<svg width="32" height="32" viewBox="0 0 32 32" fill="none" xmlns="http://www.w3.org/2000/svg">
<g clip-path="url(#clip0)">
<path d="M3.37261 12.4995C1.09808 14.7015 -0.0164036 17.6411 0.000307207 20.5881C0.0168894 23.5166 1.15046 26.4522 3.37261 28.6792C5.60954 30.9207 8.52448 32.018 11.4467 32.0007C14.349 31.9835 17.2586 30.8667 19.5182 28.6792C25.8525 22.5467 32.0001 10.2868 32.0001 0.00100708C19.4377 12.5635 10.6118 5.49114 3.37261 12.4995ZM11.0002 26.0009C8.23872 26.0009 6.00019 23.7623 6.00019 21.0009C6.00019 18.2395 8.23872 16.0009 11.0002 16.0009C13.7616 16.0009 16.0002 18.2395 16.0002 21.0009C16.0002 23.7623 13.7616 26.0009 11.0002 26.0009Z" fill="#2A8BF2"/>
</g>
<defs>
<clipPath id="clip0">
<rect width="32" height="32" fill="white"/>
</clipPath>
</defs>
</svg>
