<svg width="27" height="27" viewBox="0 0 27 27" fill="none" xmlns="http://www.w3.org/2000/svg">
<g clip-path="url(#clip0)">
<path d="M13.5979 14.5484C13.5699 14.5484 13.5419 14.5484 13.5084 14.5484C13.4972 14.5484 13.486 14.5484 13.4749 14.5484C13.4581 14.5484 13.4357 14.5484 13.4189 14.5484C11.7807 14.5204 10.4556 13.9445 9.47713 12.843C7.32451 10.4164 7.68235 6.25657 7.72149 5.8596C7.86127 2.87948 9.27026 1.45372 10.4332 0.788361C11.2999 0.290743 12.3119 0.0223643 13.4413 -5.15285e-07L13.4804 -5.11863e-07C13.486 -5.11374e-07 13.4972 -5.10397e-07 13.5028 -5.09908e-07L13.5364 -5.06975e-07C14.157 -4.52718e-07 15.3759 0.100642 16.5444 0.765997C17.7186 1.43135 19.1499 2.85711 19.2897 5.8596C19.3289 6.25658 19.6867 10.4164 17.5341 12.843C16.5612 13.9445 15.2361 14.5204 13.5979 14.5484ZM17.7969 5.99938C17.7969 5.98261 17.7913 5.96583 17.7913 5.95465C17.6068 1.94574 14.7608 1.51522 13.542 1.51522L13.5196 1.51522C13.5084 1.51522 13.4916 1.51522 13.4749 1.51522C11.9652 1.54877 9.39886 2.1638 9.22553 5.95465C9.22553 5.97142 9.22553 5.9882 9.21994 5.99938C9.21435 6.03852 8.82296 9.84055 10.601 11.8422C11.3055 12.6362 12.2448 13.0275 13.4804 13.0387C13.4916 13.0387 13.4972 13.0387 13.5084 13.0387C13.5196 13.0387 13.5252 13.0387 13.5364 13.0387C14.7664 13.0275 15.7113 12.6362 16.4102 11.8422C18.1827 9.85173 17.8025 6.03293 17.7969 5.99938Z" fill="#73B3F7"/>
<path d="M2.0184 21.4479C2.0184 21.4423 2.0184 21.4367 2.0184 21.4311C2.0184 21.3864 2.02399 21.3417 2.02399 21.2914C2.05754 20.1843 2.13023 17.5956 4.55682 16.7681C4.57359 16.7625 4.59595 16.7569 4.61273 16.7513C7.13437 16.1083 9.23108 14.6546 9.25344 14.6378C9.59451 14.3974 10.0642 14.4813 10.3046 14.8223C10.545 15.1634 10.4611 15.633 10.1201 15.8735C10.025 15.9406 7.79972 17.4893 5.01529 18.205C3.71254 18.6691 3.56717 20.0613 3.52803 21.3361C3.52803 21.3864 3.52803 21.4311 3.52244 21.4759C3.51685 21.9791 3.5504 22.7563 3.63986 23.2036C4.54563 23.718 8.09606 25.496 13.4972 25.496C18.8759 25.496 22.4487 23.7124 23.3601 23.198C23.4495 22.7507 23.4887 21.9735 23.4775 21.4703C23.4775 21.4256 23.4719 21.3808 23.4719 21.3305C23.4328 20.0557 23.2874 18.6635 21.9846 18.1994C19.2002 17.4837 16.9749 15.9294 16.8799 15.8679C16.5388 15.6275 16.4549 15.1578 16.6954 14.8167C16.9358 14.4757 17.4054 14.3918 17.7465 14.6322C17.7689 14.649 19.8544 16.1027 22.3872 16.7457C22.4096 16.7513 22.4264 16.7569 22.4431 16.7625C24.8697 17.5956 24.9424 20.1843 24.9759 21.2858C24.9759 21.3361 24.9759 21.3808 24.9815 21.4256C24.9815 21.4311 24.9815 21.4367 24.9815 21.4423C24.9871 21.7331 24.9927 23.2259 24.6964 23.9752C24.6405 24.1205 24.5398 24.2435 24.4056 24.3274C24.2379 24.4392 20.2178 27 13.4916 27C6.76535 27 2.74526 24.4336 2.57752 24.3274C2.44893 24.2435 2.34269 24.1205 2.28678 23.9751C2.00722 23.2315 2.01281 21.7387 2.0184 21.4479Z" fill="#73B3F7"/>
</g>
<defs>
<clipPath id="clip0">
<rect width="27" height="27" fill="white" transform="matrix(-1 -8.74228e-08 -8.74228e-08 1 27 0)"/>
</clipPath>
</defs>
</svg>
