<svg width="32" height="32" viewBox="0 0 32 32" fill="none" xmlns="http://www.w3.org/2000/svg">
<g clip-path="url(#clip0)">
<path d="M25.3333 9.33331C25.3333 4.18687 21.1465 0 16 0C10.8535 0 6.66669 4.18687 6.66669 9.33331C6.66669 13.7902 10.0049 20.221 14.7711 21.1946L13.4669 22.9336C13.3152 23.1354 13.2911 23.4056 13.4037 23.6315C13.5171 23.8574 13.7475 24 14.0001 24H15.274C15.1911 24.4267 15.0252 24.6515 14.8126 24.9167C14.4506 25.3698 14.0001 25.9329 14.0001 27.3334C14.0001 28.7338 14.4506 29.2969 14.8126 29.7501C15.1154 30.1277 15.3334 30.4004 15.3334 31.3334C15.3334 31.7019 15.6316 32.0001 16.0001 32.0001C16.3686 32.0001 16.6668 31.7019 16.6668 31.3334C16.6668 29.933 16.2163 29.3698 15.8543 28.9167C15.5516 28.5391 15.3335 28.2663 15.3335 27.3334C15.3335 26.4004 15.5516 26.1276 15.8543 25.7501C16.1516 25.3779 16.5046 24.9235 16.6227 24.0001H18C18.2526 24.0001 18.4831 23.8575 18.5964 23.6316C18.709 23.4056 18.6849 23.1354 18.5333 22.9336L17.229 21.1946C21.9951 20.221 25.3333 13.7903 25.3333 9.33331ZM13.6302 4.556C11.8021 5.46619 10.6666 7.29688 10.6666 9.33337C10.6666 9.70187 10.3684 10.0001 9.99994 10.0001C9.63144 10.0001 9.33325 9.70187 9.33325 9.33337C9.33325 6.78781 10.7519 4.50006 13.0364 3.362C13.3658 3.19794 13.7662 3.33269 13.9302 3.66213C14.0943 3.99156 13.9603 4.39194 13.6302 4.556Z" fill="#2A8BF2"/>
<path d="M29.3333 3.55988C29.3333 3.097 29.5176 2.89644 29.8236 2.56506C30.1791 2.179 30.6667 1.65038 30.6667 0.666625C30.6667 0.298188 30.3685 0 30 0C29.6315 0 29.3333 0.298187 29.3333 0.666687C29.3333 1.12956 29.1491 1.33012 28.8431 1.6615C28.4876 2.0475 28 2.57619 28 3.55988C28 4.54362 28.4876 5.07225 28.8431 5.45831C29.1491 5.78969 29.3334 5.99019 29.3334 6.45244C29.3334 6.914 29.1491 7.11387 28.8431 7.44462C28.4876 7.83069 28 8.35869 28 9.34112C28 9.70962 28.2982 10.0078 28.6667 10.0078C29.0352 10.0078 29.3334 9.70962 29.3334 9.34112C29.3334 8.88019 29.5176 8.68031 29.8229 8.34956C30.1791 7.9635 30.6667 7.4355 30.6667 6.45244C30.6667 5.46937 30.1797 4.94069 29.8236 4.55463C29.5176 4.22331 29.3333 4.02281 29.3333 3.55988Z" fill="#2A8BF2"/>
<path d="M25.3333 22.6666C26.0697 22.6666 26.6666 22.0697 26.6666 21.3333C26.6666 20.5969 26.0697 20 25.3333 20C24.5969 20 24 20.5969 24 21.3333C24 22.0697 24.5969 22.6666 25.3333 22.6666Z" fill="#2A8BF2"/>
<path d="M9.33331 28C10.0697 28 10.6666 27.4031 10.6666 26.6667C10.6666 25.9303 10.0697 25.3334 9.33331 25.3334C8.59694 25.3334 8 25.9303 8 26.6667C8 27.4031 8.59694 28 9.33331 28Z" fill="#2A8BF2"/>
<path d="M3.33331 4C4.43787 4 5.33331 3.10457 5.33331 2C5.33331 0.89543 4.43787 0 3.33331 0C2.22874 0 1.33331 0.89543 1.33331 2C1.33331 3.10457 2.22874 4 3.33331 4Z" fill="#2A8BF2"/>
</g>
<defs>
<clipPath id="clip0">
<rect width="32" height="32" fill="white"/>
</clipPath>
</defs>
</svg>
