<svg width="24" height="24" viewBox="0 0 24 24" fill="none" xmlns="http://www.w3.org/2000/svg">
<g opacity="0.5">
<path d="M23.4123 0.67804C23.0207 0.226165 22.5501 0 21.9999 0H2C1.45001 0 0.979311 0.226165 0.58742 0.67804C0.195748 1.13007 0 1.67313 0 2.30777V18C0 18.6348 0.195748 19.1778 0.58742 19.63C0.979311 20.0818 1.45001 20.3076 2 20.3076H8.8001C8.8001 20.6729 8.73337 21.0482 8.60002 21.4326C8.46674 21.8172 8.33338 22.1536 8.20002 22.442C8.06684 22.7307 8.00016 22.9419 8.00016 23.0764C8.00016 23.3264 8.07927 23.5432 8.23763 23.7254C8.3959 23.9084 8.58342 24 8.8001 24H15.2001C15.4168 24 15.6043 23.9084 15.7626 23.7254C15.9211 23.5433 16.0002 23.3265 16.0002 23.0764C16.0002 22.9518 15.9334 22.7425 15.8001 22.4493C15.6667 22.1562 15.5333 21.8145 15.4002 21.4254C15.2668 21.036 15.2001 20.6634 15.2001 20.3076H22.0002C22.5501 20.3076 23.0207 20.0818 23.4124 19.63C23.8042 19.1779 24 18.6349 24 18V2.30777C24.0001 1.67313 23.8041 1.13007 23.4123 0.67804ZM22.4 14.3077C22.4 14.4327 22.3604 14.5407 22.2813 14.6322C22.202 14.7233 22.1082 14.769 21.9999 14.769H2C1.89172 14.769 1.79794 14.7233 1.71879 14.6322C1.63967 14.5404 1.60005 14.4327 1.60005 14.3077V2.30777C1.60005 2.18274 1.63954 2.07463 1.71879 1.9833C1.79799 1.89212 1.89177 1.8463 2 1.8463H22.0002C22.1084 1.8463 22.2023 1.89197 22.2813 1.9833C22.3604 2.07469 22.4 2.18279 22.4 2.30777V14.3077Z" fill="#0D1C2E"/>
</g>
</svg>
