<svg width="25" height="25" viewBox="0 0 25 25" fill="none" xmlns="http://www.w3.org/2000/svg">
<g clip-path="url(#clip0)">
<path d="M24.7341 10.1594L12.8837 1.48276C12.6552 1.31548 12.3447 1.31548 12.1163 1.48276L0.265821 10.1594C-0.023632 10.3713 -0.0865227 10.7778 0.12544 11.0672C0.337403 11.3567 0.743897 11.4195 1.0333 11.2076L12.5 2.81191L23.9666 11.2076C24.0822 11.2923 24.2166 11.3331 24.3498 11.3331C24.5498 11.3331 24.7472 11.241 24.8744 11.0672C25.0864 10.7778 25.0235 10.3713 24.7341 10.1594Z" fill="#2A8BF2"/>
<path d="M21.594 11.3547C21.2353 11.3547 20.9445 11.6455 20.9445 12.0042V22.3435H15.7481V16.6997C15.7481 14.9087 14.2909 13.4516 12.5 13.4516C10.7091 13.4516 9.25198 14.9088 9.25198 16.6997V22.3436H4.05555V12.0043C4.05555 11.6455 3.76468 11.3547 3.40598 11.3547C3.04729 11.3547 2.75642 11.6455 2.75642 12.0043V22.9932C2.75642 23.3519 3.04729 23.6428 3.40598 23.6428H9.90154C10.2431 23.6428 10.5227 23.3788 10.5486 23.0438C10.5501 23.0286 10.5511 23.012 10.5511 22.9932V16.6997C10.5511 15.6251 11.4254 14.7508 12.5 14.7508C13.5747 14.7508 14.449 15.6251 14.449 16.6997V22.9932C14.449 23.0119 14.4499 23.0282 14.4515 23.0432C14.4771 23.3785 14.7567 23.6428 15.0985 23.6428H21.5941C21.9528 23.6428 22.2436 23.3519 22.2436 22.9932V12.0043C22.2436 11.6455 21.9528 11.3547 21.594 11.3547Z" fill="#2A8BF2"/>
</g>
<defs>
<clipPath id="clip0">
<rect width="25" height="25" fill="white"/>
</clipPath>
</defs>
</svg>
