<svg width="24" height="24" viewBox="0 0 24 24" fill="none" xmlns="http://www.w3.org/2000/svg">
<g opacity="0.5">
<path d="M3.2892 0.0579442C3.47792 -0.0377646 3.69899 -0.0108044 3.8621 0.117257L18.3896 11.578C18.5163 11.6778 18.5945 11.8355 18.5945 11.9986C18.5945 12.1577 18.515 12.3222 18.3896 12.4219L3.86076 23.884C3.7637 23.9595 3.64238 24 3.52375 24L3.28785 23.9461C3.10317 23.8584 2.98724 23.6684 2.98724 23.4581V0.543228C2.98724 0.335635 3.10317 0.142869 3.2892 0.0579442Z" fill="#0D1C2E"/>
<path d="M17.0065 0.0458298H20.5869C20.8228 0.0458298 21.0128 0.28982 21.0128 0.583686V23.4123C21.0128 23.7115 20.8214 23.9555 20.5869 23.9555H17.0065C16.772 23.9555 16.5806 23.7102 16.5806 23.4123V0.585034C16.5806 0.28982 16.7733 0.0458298 17.0065 0.0458298Z" fill="#0D1C2E"/>
</g>
</svg>
