<svg width="25" height="25" viewBox="0 0 25 25" fill="none" xmlns="http://www.w3.org/2000/svg">
<path d="M12.4896 2.08337C6.73963 2.08337 2.07296 6.75004 2.07296 12.5C2.07296 18.25 6.73963 22.9167 12.4896 22.9167C18.2396 22.9167 22.9063 18.25 22.9063 12.5C22.9063 6.75004 18.2396 2.08337 12.4896 2.08337ZM16.25 8.68754C17.3646 8.68754 18.2605 9.58337 18.2605 10.698C18.2605 11.8125 17.3646 12.7084 16.25 12.7084C15.1355 12.7084 14.2396 11.8125 14.2396 10.698C14.2292 9.58337 15.1355 8.68754 16.25 8.68754ZM10 7.04171C11.3542 7.04171 12.4584 8.14587 12.4584 9.50004C12.4584 10.8542 11.3542 11.9584 10 11.9584C8.64588 11.9584 7.54171 10.8542 7.54171 9.50004C7.54171 8.13546 8.63546 7.04171 10 7.04171ZM10 16.5521V20.4584C7.50004 19.6771 5.52088 17.75 4.64588 15.2917C5.73963 14.125 8.46879 13.5313 10 13.5313C10.5521 13.5313 11.25 13.6146 11.9792 13.7605C10.2709 14.6667 10 15.8646 10 16.5521ZM12.4896 20.8334C12.2084 20.8334 11.9375 20.823 11.6667 20.7917V16.5521C11.6667 15.073 14.7292 14.3334 16.25 14.3334C17.3646 14.3334 19.2917 14.7396 20.25 15.5313C19.0313 18.625 16.0209 20.8334 12.4896 20.8334Z" fill="white"/>
</svg>
