<svg width="25" height="25" viewBox="0 0 25 25" fill="none" xmlns="http://www.w3.org/2000/svg">
<path d="M21.9165 1.27182H3.08347C1.38601 1.27182 0 2.65263 0 4.35529V16.2999C0 17.9973 1.38081 19.3833 3.08347 19.3833H11.7992V22.3266H7.45432C7.06499 22.3266 6.75353 22.6381 6.75353 23.0274C6.75353 23.4168 7.06499 23.7282 7.45432 23.7282H17.5457C17.935 23.7282 18.2465 23.4168 18.2465 23.0274C18.2465 22.6381 17.935 22.3266 17.5457 22.3266H13.2008V19.3833H21.9165C23.614 19.3833 25 18.0025 25 16.2999V4.35529C25 2.65263 23.6192 1.27182 21.9165 1.27182ZM3.08347 2.6734H21.9217C22.8457 2.6734 23.6036 3.4261 23.6036 4.35529V14.3376H1.40158V4.35529C1.40158 3.4261 2.15428 2.6734 3.08347 2.6734ZM21.9165 17.9817H3.08347C2.15947 17.9817 1.40158 17.229 1.40158 16.2999V15.7392H23.5984V16.2999C23.5984 17.2239 22.8457 17.9817 21.9165 17.9817Z" fill="#2A8BF2"/>
</svg>
