<svg width="32" height="32" viewBox="0 0 32 32" fill="none" xmlns="http://www.w3.org/2000/svg">
<path d="M27.0644 14.1789C26.6757 13.9845 26.227 13.9472 25.8115 14.0747C25.396 14.2022 25.0455 14.4847 24.8327 14.8636L23.2996 17.5933C22.9926 17.9576 22.5859 18.2244 22.1295 18.3609L15.3182 20.3983C15.1782 20.4393 15.0312 20.4512 14.8865 20.4332C14.7417 20.4153 14.6021 20.3678 14.4763 20.2938C14.3506 20.2199 14.2413 20.1209 14.1553 20.0031C14.0692 19.8852 14.0082 19.751 13.976 19.6087C13.9099 19.3355 13.9518 19.0474 14.0931 18.8044C14.2344 18.5614 14.4642 18.3824 14.7343 18.3048L17.8092 17.3608C18.0887 17.2826 18.3282 17.1015 18.4796 16.8538C18.631 16.6062 18.6831 16.3104 18.6252 16.0259C18.59 15.8797 18.5253 15.7422 18.4351 15.6218C18.3449 15.5014 18.2311 15.4006 18.1007 15.3257C17.9702 15.2507 17.8259 15.2031 17.6764 15.1858C17.527 15.1685 17.3756 15.1818 17.2315 15.225L10.6194 17.2082C9.55269 17.4995 8.57202 18.0439 7.76068 18.7952C6.94933 19.5466 6.33128 20.4826 5.95899 21.5238L3.13458 29.4234L9.13458 30.5L9.96313 27.7984C10.0336 27.3683 10.2198 26.9654 10.5016 26.633C10.7835 26.3005 11.1504 26.0509 11.5632 25.911L24.6113 21.6256C24.9399 21.5177 25.2159 21.2902 25.3846 20.9883L27.7984 16.4924C27.9054 16.293 27.9714 16.0741 27.9923 15.8488C28.0133 15.6235 27.9888 15.3962 27.9204 15.1805C27.852 14.9648 27.7409 14.765 27.5939 14.5929C27.4469 14.4209 27.2668 14.2801 27.0644 14.1789Z" fill="#F0B77D"/>
<path d="M27.0644 14.1789C27.0449 14.1692 27.0243 14.1649 27.0046 14.156C27.2063 14.4137 27.3288 14.7245 27.357 15.0505C27.3853 15.3766 27.3181 15.7038 27.1638 15.9924L24.75 20.4883C24.5813 20.7902 24.3053 21.0177 23.9767 21.1256L10.9286 25.411C10.5159 25.5509 10.1489 25.8005 9.86703 26.133C9.58518 26.4655 9.39904 26.8683 9.32855 27.2985L8.36014 30.361L9.13458 30.5L9.96313 27.7984C10.0336 27.3683 10.2198 26.9654 10.5016 26.633C10.7835 26.3005 11.1504 26.0509 11.5632 25.911L24.6113 21.6256C24.9399 21.5177 25.2159 21.2902 25.3845 20.9883L27.7984 16.4924C27.9054 16.293 27.9714 16.0741 27.9923 15.8488C28.0133 15.6235 27.9888 15.3962 27.9204 15.1805C27.852 14.9648 27.7409 14.765 27.5939 14.5929C27.4469 14.4209 27.2668 14.2801 27.0644 14.1789Z" fill="#EAA15E"/>
<path d="M22.4579 8.23572V6.76432L21.27 6.24008C21.2023 5.9363 21.1093 5.63871 20.992 5.35043L21.6466 4.22128C21.4073 3.79421 21.1216 3.3949 20.7945 3.03064L19.5376 3.3185C19.3078 3.11634 19.0613 2.93399 18.8007 2.7734L18.6805 1.45981C18.2436 1.25506 17.7848 1.10079 17.313 1L16.4563 1.99387H15.5437L14.6871 1C14.2153 1.10076 13.7565 1.25502 13.3196 1.45978L13.1994 2.77338C12.9389 2.93396 12.6924 3.11628 12.4625 3.31838L11.2056 3.03055C10.8785 3.39481 10.5927 3.79412 10.3535 4.22119L11.008 5.35034C10.8907 5.63862 10.7977 5.93621 10.7301 6.24L9.54211 6.76426V8.23567L10.73 8.75987C10.7977 9.06365 10.8907 9.36123 11.008 9.64952L10.3534 10.7787C10.5927 11.2057 10.8784 11.6051 11.2055 11.9693L12.4624 11.6815C12.6923 11.8836 12.9388 12.066 13.1993 12.2266L13.3195 13.5401C13.7564 13.7449 14.2152 13.8992 14.6871 14L15.5437 13.0061H16.4563L17.3129 14C17.7847 13.8992 18.2435 13.7449 18.6804 13.5402L18.8006 12.2266C19.0611 12.066 19.3077 11.8837 19.5375 11.6816L20.7944 11.9694C21.1214 11.6052 21.4072 11.2059 21.6465 10.7788L20.992 9.64966C21.1093 9.36136 21.2023 9.06376 21.2699 8.75995L22.4579 8.23572Z" fill="#65CECC"/>
<path d="M19.0025 5.50574C18.8462 5.34566 18.6594 5.21845 18.4531 5.1316C18.2469 5.04475 18.0253 5.00001 17.8015 5.00001C17.5777 5.00001 17.3562 5.04475 17.15 5.1316C16.9437 5.21845 16.7569 5.34566 16.6005 5.50574L16 6.11622L15.3995 5.50572C15.2431 5.34563 15.0563 5.21842 14.8501 5.13156C14.6438 5.04471 14.4223 4.99997 14.1985 4.99997C13.9747 4.99997 13.7532 5.04471 13.5469 5.13156C13.3407 5.21842 13.1539 5.34563 12.9975 5.50572C12.6786 5.8321 12.5 6.27033 12.5 6.72667C12.5 7.18301 12.6786 7.62123 12.9975 7.94761L16 11L19.0025 7.94764C19.3215 7.62125 19.5 7.18303 19.5 6.72669C19.5 6.27035 19.3215 5.83213 19.0025 5.50574Z" fill="#DE2F55"/>
<path d="M14.1119 6.04565C14.3609 5.82108 14.6691 5.6727 15 5.61813C14.7376 5.51388 14.4534 5.47668 14.1731 5.50991C13.8927 5.54313 13.625 5.64573 13.3943 5.80842C13.2731 5.88843 13.1737 5.99726 13.1048 6.12514C13.036 6.25303 13 6.396 13 6.54122C13 6.68645 13.036 6.82942 13.1048 6.9573C13.1737 7.08519 13.2731 7.19402 13.3943 7.27403L13.6865 7.5C13.6123 7.2422 13.6128 6.9686 13.6881 6.7111C13.7634 6.4536 13.9104 6.22282 14.1119 6.04565Z" fill="#F47A7A"/>
</svg>
