<svg width="25" height="25" viewBox="0 0 25 25" fill="none" xmlns="http://www.w3.org/2000/svg">
<g clip-path="url(#clip0)">
<path d="M13.1182 11.8824C12.9273 11.6914 12.6182 11.6914 12.4273 11.8824C12.2369 12.0728 12.2369 12.3819 12.4273 12.5728C12.6182 12.7632 12.9273 12.7632 13.1182 12.5728C13.3087 12.3819 13.3087 12.0728 13.1182 11.8824Z" fill="#2A8BF2"/>
<path d="M19.3327 5.66743C18.3786 4.71338 16.8341 4.71333 15.8799 5.66743C14.9283 6.61904 14.9282 8.16787 15.8801 9.12026C16.832 10.0716 18.3808 10.072 19.3327 9.12016C20.2867 8.16616 20.2869 6.62158 19.3327 5.66743ZM18.6421 8.42958C18.0712 9.00058 17.1418 9.00058 16.5706 8.42968C15.9995 7.8583 15.9995 6.9289 16.5705 6.35796C17.1429 5.78555 18.0696 5.78545 18.6421 6.35796C19.2146 6.93032 19.2147 7.85712 18.6421 8.42958Z" fill="#2A8BF2"/>
<path d="M24.8569 0.143022C24.761 0.0471727 24.6301 -0.00478036 24.4941 0.000346582C24.3837 0.00430165 21.7551 0.109966 18.6303 1.21441C16.1264 2.09849 14.0393 3.36426 12.4271 4.97656C12.0658 5.33784 11.7143 5.72094 11.3779 6.11894C9.78374 5.18056 8.5063 5.4748 7.69873 5.90698C5.83931 6.90209 4.68839 9.60404 4.68839 11.5367C4.68853 11.7341 4.80753 11.9122 4.98995 11.9877C5.05035 12.0128 5.11382 12.0249 5.17671 12.0249C5.30381 12.0249 5.42867 11.9753 5.52207 11.8819C6.50269 10.9013 7.71221 10.9626 8.10732 11.0146L8.27832 11.1856C7.9418 11.9864 7.6707 12.7826 7.47188 13.5571C7.4001 13.8374 7.42432 14.134 7.53101 14.4053C7.06089 14.6219 6.60733 14.94 6.21241 15.3349C4.95552 16.5919 4.7003 19.6551 4.69005 19.7848C4.67881 19.9273 4.73047 20.0675 4.8315 20.1685C4.92344 20.2604 5.04781 20.3115 5.17671 20.3115C5.18951 20.3115 5.20235 20.3111 5.21519 20.31C5.34498 20.2998 8.40825 20.0446 9.66513 18.7877C10.0599 18.3929 10.378 17.9394 10.5946 17.4694C10.8818 17.5823 11.1774 17.5963 11.4433 17.5281C12.2174 17.3294 13.0136 17.0584 13.8144 16.7218L13.9854 16.8928C14.0373 17.288 14.0987 18.4975 13.1181 19.478C12.9785 19.6176 12.9367 19.8277 13.0123 20.0101C13.0878 20.1925 13.2659 20.3115 13.4634 20.3115C15.396 20.3115 18.0979 19.1606 19.093 17.3011C19.5252 16.4937 19.8194 15.2162 18.881 13.6221C19.2788 13.2858 19.662 12.9343 20.0234 12.5728C21.6357 10.9605 22.9014 8.87348 23.7855 6.36977C24.89 3.24487 24.9956 0.616166 24.9996 0.505814C25.0045 0.370317 24.9527 0.23892 24.8569 0.143022ZM5.78008 10.4864C6.0834 9.01849 6.96441 7.40771 8.15972 6.76796C8.95849 6.34052 9.83159 6.38242 10.7599 6.89057C9.96904 7.9307 9.28149 9.05131 8.7084 10.2347C8.70112 10.2302 8.61323 10.1197 8.44995 10.0828C8.38281 10.0677 7.09087 9.78978 5.78008 10.4864ZM8.97461 18.0971C8.30322 18.7685 6.72827 19.1226 5.73282 19.2672C5.87745 18.2717 6.23159 16.6968 6.90293 16.0255C7.27891 15.6495 7.71484 15.3644 8.15303 15.2039L9.79619 16.847C9.63564 17.2852 9.35063 17.7212 8.97461 18.0971ZM11.2007 16.5822C11.0594 16.6183 10.8957 16.5652 10.774 16.4437C10.1423 15.812 9.89521 15.5649 9.81767 15.4874C9.67548 15.3452 9.3268 14.9966 8.55664 14.2263C8.43486 14.1043 8.38174 13.9407 8.41782 13.7996C8.57422 13.1906 8.77876 12.5657 9.02749 11.9347L13.0653 15.9726C12.4343 16.2214 11.8095 16.4259 11.2007 16.5822ZM18.2321 16.8404C17.5924 18.0356 15.9816 18.9167 14.5138 19.2199C14.9818 18.3392 15.0849 17.2181 14.9139 16.5383C14.8743 16.3803 14.7712 16.301 14.7655 16.2916C15.9487 15.7185 17.0693 15.031 18.1095 14.2401C18.6177 15.1685 18.6595 16.0417 18.2321 16.8404ZM19.333 11.8823C18.893 12.3222 18.4192 12.7473 17.9248 13.1456C16.7362 14.1026 15.428 14.9133 14.0323 15.5586L9.4415 10.9679C10.0868 9.57206 10.8975 8.26386 11.8544 7.07543C12.253 6.58066 12.678 6.10683 13.1178 5.66709C14.5643 4.22051 16.4312 3.06924 18.6681 2.24053L22.7595 6.33193C21.9309 8.56879 20.7797 10.4357 19.333 11.8823ZM23.1109 5.3021L19.698 1.88921C21.5574 1.31167 23.175 1.09541 23.9824 1.01768C23.9047 1.82525 23.6883 3.44287 23.1109 5.3021Z" fill="#2A8BF2"/>
<path d="M11.7368 20.1683C11.546 19.9777 11.2368 19.9778 11.0462 20.1684L9.66537 21.5498C9.47474 21.7405 9.47479 22.0497 9.66547 22.2403C9.85624 22.4309 10.1654 22.4309 10.356 22.2402L11.7369 20.8589C11.9275 20.6682 11.9275 20.359 11.7368 20.1683Z" fill="#2A8BF2"/>
<path d="M4.83174 13.2632C4.64112 13.0724 4.33199 13.0724 4.14121 13.2631L2.75987 14.6439C2.56915 14.8346 2.5691 15.1437 2.75972 15.3345C2.9503 15.5251 3.25943 15.5253 3.45025 15.3346L4.83159 13.9537C5.02232 13.7631 5.02237 13.4539 4.83174 13.2632Z" fill="#2A8BF2"/>
<path d="M8.28427 20.8594C8.09369 20.6687 7.78446 20.6687 7.59374 20.8593L4.28613 24.1664C4.09541 24.3571 4.09541 24.6663 4.28608 24.857C4.47666 25.0476 4.78588 25.0477 4.97661 24.857L8.28422 21.5499C8.47494 21.3592 8.47494 21.05 8.28427 20.8594Z" fill="#2A8BF2"/>
<path d="M4.37802 20.8594C4.18739 20.6687 3.87816 20.6687 3.68749 20.8593L0.379879 24.1664C0.189157 24.3571 0.189157 24.6663 0.379831 24.857C0.570406 25.0476 0.879634 25.0477 1.07036 24.857L4.37797 21.5499C4.56869 21.3592 4.56869 21.05 4.37802 20.8594Z" fill="#2A8BF2"/>
<path d="M4.14073 16.7157C3.9501 16.5251 3.64087 16.5251 3.4502 16.7157L0.143075 20.0233C-0.0475982 20.2141 -0.0475982 20.5232 0.143124 20.7139C0.333798 20.9046 0.642977 20.9046 0.83365 20.7139L4.14077 17.4063C4.33145 17.2155 4.33145 16.9064 4.14073 16.7157Z" fill="#2A8BF2"/>
<path d="M15.1896 9.81046C14.9989 9.61978 14.6898 9.61978 14.499 9.81046L13.8086 10.5009C13.6179 10.6916 13.6179 11.0007 13.8086 11.1915C13.9993 11.3821 14.3084 11.3821 14.4992 11.1915L15.1896 10.501C15.3803 10.3104 15.3803 10.0012 15.1896 9.81046Z" fill="#2A8BF2"/>
</g>
<defs>
<clipPath id="clip0">
<rect width="25" height="25" fill="white"/>
</clipPath>
</defs>
</svg>
