<svg width="69" height="54" viewBox="0 0 69 54" fill="none" xmlns="http://www.w3.org/2000/svg">
<g clip-path="url(#clip0)">
<path opacity="0.1" d="M40.0903 8.26614C35.667 8.09974 31.4537 6.54913 27.4309 4.85268C23.4082 3.15623 19.4227 1.27814 15.1056 0.378537C12.3285 -0.199542 9.15265 -0.284398 6.91534 1.33515C4.76169 2.8904 4.06619 5.57794 3.69249 8.06726C3.411 9.94204 3.24552 11.9123 4.01612 13.6697C4.55163 14.8875 5.50237 15.9118 6.16 17.0785C8.44677 21.1397 6.83169 26.1468 4.35135 30.1112C3.19117 31.9714 1.83987 33.7454 0.942872 35.7256C0.0458722 37.7057 -0.369349 39.9736 0.415297 41.9929C1.19384 43.995 3.04768 45.4959 5.05662 46.5566C9.13616 48.7045 13.9436 49.3197 18.6313 49.6677C29.0082 50.4381 39.4406 50.1046 49.8449 49.7705C53.6955 49.6465 57.5626 49.5212 61.3508 48.8749C63.4538 48.5162 65.6252 47.9468 67.1517 46.5712C69.0904 44.825 69.571 41.8683 68.2716 39.6767C66.0929 36.0047 60.0679 35.0925 58.545 31.1513C57.7067 28.9822 58.5676 26.5658 59.7858 24.5538C62.3993 20.2374 66.7799 16.4514 67.0107 11.5178C67.1694 8.12957 65.0634 4.73601 61.8076 3.13303C58.3942 1.45249 53.6619 1.66397 51.1437 4.44564C48.5523 7.31085 43.9958 8.41331 40.0903 8.26614Z" fill="#3993F3"/>
<path d="M50.4738 8.88797H21.506C20.8383 8.88797 20.297 9.47564 20.297 10.2006V48.609C20.297 49.334 20.8383 49.9216 21.506 49.9216H50.4738C51.1415 49.9216 51.6828 49.334 51.6828 48.609V10.2006C51.6828 9.47564 51.1415 8.88797 50.4738 8.88797Z" fill="#464353"/>
<path opacity="0.1" d="M48.9754 12.7774H23.0045V45.5323H48.9754V12.7774Z" fill="white" stroke="white" stroke-miterlimit="10"/>
<path d="M35.9899 49.142C36.6003 49.142 37.0951 48.6048 37.0951 47.9421C37.0951 47.2794 36.6003 46.7422 35.9899 46.7422C35.3795 46.7422 34.8846 47.2794 34.8846 47.9421C34.8846 48.6048 35.3795 49.142 35.9899 49.142Z" fill="white"/>
<path d="M35.99 11.8539C35.8868 11.8533 35.7861 11.8195 35.7006 11.7567C35.6151 11.694 35.5487 11.6052 35.5097 11.5014C35.4707 11.3977 35.4609 11.2838 35.4814 11.1741C35.502 11.0643 35.5521 10.9636 35.6254 10.8847C35.6986 10.8058 35.7918 10.7523 35.893 10.7308C35.9943 10.7094 36.0992 10.721 36.1944 10.7642C36.2895 10.8074 36.3708 10.8802 36.4279 10.9735C36.485 11.0669 36.5153 11.1764 36.5151 11.2885C36.5148 11.363 36.5011 11.4368 36.4745 11.5056C36.448 11.5744 36.4093 11.6369 36.3605 11.6894C36.3117 11.7419 36.2539 11.7835 36.1903 11.8117C36.1267 11.8399 36.0587 11.8543 35.99 11.8539Z" fill="white"/>
<path d="M35.99 10.7535C36.0875 10.7528 36.1829 10.7836 36.2642 10.842C36.3455 10.9004 36.409 10.9837 36.4466 11.0814C36.4842 11.179 36.4941 11.2866 36.4753 11.3904C36.4564 11.4942 36.4095 11.5896 36.3406 11.6645C36.2717 11.7393 36.1838 11.7902 36.0882 11.8107C35.9925 11.8312 35.8935 11.8203 35.8035 11.7795C35.7136 11.7387 35.6368 11.6698 35.5831 11.5815C35.5293 11.4933 35.5009 11.3896 35.5015 11.2838C35.5024 11.1435 35.5542 11.0092 35.6456 10.9099C35.737 10.8107 35.8607 10.7545 35.99 10.7535ZM35.99 10.6872C35.8806 10.6872 35.7736 10.7224 35.6827 10.7885C35.5917 10.8546 35.5209 10.9485 35.4792 11.0583C35.4374 11.1681 35.4267 11.2889 35.4482 11.4054C35.4698 11.5219 35.5227 11.6288 35.6003 11.7125C35.6779 11.7963 35.7767 11.8532 35.8841 11.876C35.9915 11.8987 36.1027 11.8864 36.2036 11.8405C36.3045 11.7945 36.3906 11.7171 36.4509 11.618C36.5113 11.5189 36.5432 11.4026 36.5426 11.2838C36.5418 11.1253 36.4832 10.9735 36.3797 10.8617C36.2761 10.7499 36.136 10.6872 35.99 10.6872Z" fill="white"/>
<path d="M35.5869 19.058V17.8913H36.3929V19.058H37.2124V17.3086H37.7363L35.9899 15.5584L34.2441 17.3086H34.7674V19.058H35.5869Z" fill="#3993F3"/>
<path d="M26.9546 24.4808V23.2213C26.9546 23.1503 26.9287 23.0823 26.8825 23.0321C26.8362 22.9819 26.7736 22.9538 26.7082 22.9538C26.6429 22.9538 26.5802 22.9819 26.534 23.0321C26.4878 23.0823 26.4618 23.1503 26.4618 23.2213V24.4808C26.3646 24.54 26.2883 24.6325 26.2446 24.7438C26.201 24.8552 26.1927 24.9791 26.2208 25.0961C26.249 25.2132 26.3121 25.3168 26.4003 25.3907C26.4885 25.4647 26.5968 25.5048 26.7082 25.5048C26.8197 25.5048 26.928 25.4647 27.0162 25.3907C27.1044 25.3168 27.1675 25.2132 27.1956 25.0961C27.2238 24.9791 27.2154 24.8552 27.1718 24.7438C27.1282 24.6325 27.0518 24.54 26.9546 24.4808ZM26.623 23.2213C26.6248 23.1984 26.6345 23.1772 26.65 23.1617C26.6656 23.1462 26.6859 23.1376 26.707 23.1376C26.7281 23.1376 26.7485 23.1462 26.764 23.1617C26.7796 23.1772 26.7892 23.1984 26.791 23.2213V23.5037H26.623V23.2213Z" fill="white" stroke="white" stroke-miterlimit="10"/>
<path opacity="0.3" d="M44.7755 24.1361H30.1206V24.3131H44.7755V24.1361Z" fill="#3993F3"/>
<path d="M34.6459 24.6446C34.8594 24.6446 35.0324 24.4567 35.0324 24.225C35.0324 23.9932 34.8594 23.8053 34.6459 23.8053C34.4325 23.8053 34.2594 23.9932 34.2594 24.225C34.2594 24.4567 34.4325 24.6446 34.6459 24.6446Z" fill="#3993F3"/>
<path d="M34.6459 24.1361H30.1206V24.3131H34.6459V24.1361Z" fill="#3993F3"/>
<path d="M26.7934 30.6356C26.7906 30.6119 26.7798 30.5902 26.7631 30.5747C26.7464 30.5593 26.7249 30.5512 26.703 30.552C26.683 30.5514 26.6633 30.5582 26.6473 30.5712C26.6312 30.5841 26.6197 30.6026 26.6144 30.6236L26.5253 31.15C26.5228 31.1633 26.5216 31.1769 26.5216 31.1904C26.5216 31.2432 26.5409 31.2938 26.5753 31.3311C26.6096 31.3684 26.6562 31.3893 26.7048 31.3893C26.7534 31.3893 26.8 31.3684 26.8343 31.3311C26.8687 31.2938 26.888 31.2432 26.888 31.1904C26.8878 31.1741 26.8858 31.1578 26.8819 31.142L26.7934 30.6356ZM27.487 30.8616C27.4776 30.8533 27.4676 30.8458 27.4571 30.8391L27.0956 30.5686C27.0819 30.5575 27.0651 30.552 27.048 30.553C27.031 30.5539 27.0147 30.5613 27.0022 30.5739C26.991 30.5847 26.9838 30.5995 26.982 30.6156C26.9802 30.6318 26.9839 30.6481 26.9924 30.6614L27.2709 31.036C27.2762 31.0447 27.2824 31.053 27.2892 31.0605C27.3166 31.0862 27.3516 31.1004 27.3878 31.1004C27.424 31.1004 27.459 31.0862 27.4864 31.0605C27.4994 31.0481 27.5098 31.0328 27.5169 31.0156C27.5241 30.9985 27.5278 30.9799 27.5278 30.9611C27.5278 30.9423 27.5241 30.9237 27.5169 30.9065C27.5098 30.8894 27.4994 30.8741 27.4864 30.8616H27.487ZM27.7313 30.4751L27.3924 30.4619C27.3822 30.4601 27.3718 30.4627 27.3634 30.4692C27.3549 30.4756 27.3491 30.4854 27.3472 30.4963C27.3459 30.5068 27.3479 30.5174 27.3527 30.5265C27.3576 30.5356 27.3651 30.5427 27.3741 30.5467L27.702 30.6475C27.7496 30.6588 27.8027 30.6349 27.8027 30.5812C27.8027 30.5149 27.785 30.4811 27.7313 30.4745V30.4751ZM26.0472 30.5467C26.0562 30.5427 26.0637 30.5356 26.0685 30.5265C26.0734 30.5174 26.0753 30.5068 26.0741 30.4963C26.072 30.4853 26.0661 30.4755 26.0575 30.4691C26.049 30.4627 26.0385 30.4601 26.0283 30.4619L25.69 30.4751C25.6356 30.4818 25.6198 30.5142 25.6198 30.5812C25.6198 30.6342 25.6717 30.6588 25.7187 30.6475L26.0466 30.5461L26.0472 30.5467ZM26.3238 30.5679L25.9623 30.8378C25.9519 30.8443 25.9421 30.8518 25.933 30.8603C25.92 30.8727 25.9096 30.888 25.9025 30.9052C25.8953 30.9223 25.8917 30.9409 25.8917 30.9597C25.8917 30.9785 25.8953 30.9971 25.9025 31.0143C25.9096 31.0314 25.92 31.0467 25.933 31.0592C25.9599 31.0858 25.9949 31.1005 26.0313 31.1005C26.0677 31.1005 26.1027 31.0858 26.1296 31.0592C26.1369 31.0522 26.1433 31.0442 26.1485 31.0353L26.427 30.6621C26.4355 30.6487 26.4392 30.6324 26.4374 30.6163C26.4356 30.6002 26.4284 30.5853 26.4172 30.5746C26.4046 30.5612 26.388 30.5532 26.3704 30.552C26.3528 30.5508 26.3354 30.5565 26.3213 30.5679H26.3238ZM26.7109 28.8204C26.7109 28.8204 26.8697 29.0193 26.8697 29.187C26.8724 29.2233 26.8681 29.2598 26.8573 29.2943C26.8464 29.3287 26.8291 29.3603 26.8065 29.3872C26.7838 29.4141 26.7564 29.4356 26.7257 29.4504C26.6951 29.4653 26.662 29.4731 26.6285 29.4734C26.5942 29.4734 26.5603 29.4658 26.5287 29.4513C26.4972 29.4368 26.4686 29.4156 26.4447 29.3889C26.4208 29.3622 26.4021 29.3306 26.3896 29.2959C26.3771 29.2613 26.3711 29.2242 26.372 29.187V29.1479C26.2238 29.3434 26.1431 29.5889 26.1437 29.842C26.1437 30.0048 26.2032 30.161 26.3093 30.2761C26.4153 30.3912 26.5591 30.4559 26.7091 30.4559C26.8591 30.4559 27.0029 30.3912 27.1089 30.2761C27.215 30.161 27.2745 30.0048 27.2745 29.842C27.2745 29.4283 27.0865 28.9437 26.7085 28.8204H26.7109ZM26.6908 30.2259C26.6311 30.2266 26.5736 30.2016 26.5309 30.1563C26.4882 30.1111 26.4638 30.0493 26.463 29.9846C26.4629 29.925 26.4831 29.8676 26.5198 29.8234C26.5564 29.7792 26.6069 29.7513 26.6615 29.7452C26.7887 29.7227 26.9045 29.6523 26.9888 29.5464C27.0165 29.647 27.0304 29.7515 27.0303 29.8566C27.0303 29.9544 26.9945 30.0481 26.9308 30.1172C26.8672 30.1864 26.7808 30.2252 26.6908 30.2252V30.2259Z" fill="white" stroke="white" stroke-miterlimit="10"/>
<path opacity="0.3" d="M44.7755 30.0077H30.1206V30.1847H44.7755V30.0077Z" fill="#3993F3"/>
<path d="M38.0654 30.5162C38.2788 30.5162 38.4519 30.3283 38.4519 30.0965C38.4519 29.8648 38.2788 29.6769 38.0654 29.6769C37.8519 29.6769 37.6788 29.8648 37.6788 30.0965C37.6788 30.3283 37.8519 30.5162 38.0654 30.5162Z" fill="#3993F3"/>
<path d="M38.1026 30.0077H30.1206V30.1847H38.1026V30.0077Z" fill="#3993F3"/>
<path d="M26.3726 36.9062C26.3728 36.9364 26.3839 36.9653 26.4036 36.9867C26.4232 37.008 26.4498 37.0201 26.4776 37.0203H26.9393C26.9671 37.0201 26.9937 37.008 27.0134 36.9867C27.033 36.9653 27.0441 36.9364 27.0443 36.9062V36.8041H26.3726V36.9062ZM26.7085 34.8326C26.2902 34.8326 25.9531 35.174 25.9531 35.5963C25.954 35.7222 25.984 35.8458 26.0403 35.9558C26.0966 36.0659 26.1775 36.1588 26.2755 36.2261V36.4733C26.276 36.4882 26.2792 36.5029 26.2849 36.5164C26.2906 36.53 26.2986 36.5422 26.3087 36.5524C26.3187 36.5625 26.3305 36.5704 26.3434 36.5756C26.3562 36.5808 26.3699 36.5833 26.3836 36.5827H27.0333C27.047 36.5833 27.0607 36.5808 27.0736 36.5756C27.0864 36.5704 27.0982 36.5625 27.1082 36.5524C27.1183 36.5422 27.1264 36.53 27.1321 36.5164C27.1377 36.5029 27.1409 36.4882 27.1414 36.4733V36.2261C27.2396 36.159 27.3207 36.0661 27.3771 35.956C27.4336 35.846 27.4636 35.7223 27.4644 35.5963C27.4644 35.174 27.1267 34.8326 26.7085 34.8326Z" fill="white" stroke="white" stroke-miterlimit="10"/>
<path opacity="0.3" d="M44.7755 35.8382H30.1206V36.0152H44.7755V35.8382Z" fill="#3993F3"/>
<path d="M41.8512 36.3461C42.0647 36.3461 42.2378 36.1582 42.2378 35.9264C42.2378 35.6947 42.0647 35.5068 41.8512 35.5068C41.6378 35.5068 41.4647 35.6947 41.4647 35.9264C41.4647 36.1582 41.6378 36.3461 41.8512 36.3461Z" fill="#3993F3"/>
<path d="M41.8885 35.8382H30.1206V36.0152H41.8885V35.8382Z" fill="#3993F3"/>
<path d="M26.2048 40.3813V41.6568H26.5407V42.7507L27.2124 41.2922H26.8765L27.2124 40.3813H26.2048Z" fill="white" stroke="white" stroke-miterlimit="10"/>
<path opacity="0.3" d="M44.7755 41.4778H30.1206V41.6548H44.7755V41.4778Z" fill="#3993F3"/>
<path d="M34.6459 41.9856C34.8594 41.9856 35.0324 41.7978 35.0324 41.566C35.0324 41.3342 34.8594 41.1464 34.6459 41.1464C34.4325 41.1464 34.2594 41.3342 34.2594 41.566C34.2594 41.7978 34.4325 41.9856 34.6459 41.9856Z" fill="#3993F3"/>
<path d="M34.6459 41.4778H30.1206V41.6548H34.6459V41.4778Z" fill="#3993F3"/>
<path d="M21.0103 52.5031C23.0158 52.5031 24.6416 52.1636 24.6416 51.7447C24.6416 51.3258 23.0158 50.9863 21.0103 50.9863C19.0047 50.9863 17.3789 51.3258 17.3789 51.7447C17.3789 52.1636 19.0047 52.5031 21.0103 52.5031Z" fill="#3993F3"/>
<path d="M20.9498 52.0231C21.1831 52.0231 21.3723 51.7542 21.3723 51.4225C21.3723 51.0908 21.1831 50.8219 20.9498 50.8219C20.7164 50.8219 20.5272 51.0908 20.5272 51.4225C20.5272 51.7542 20.7164 52.0231 20.9498 52.0231Z" fill="#3F3D56"/>
<path d="M20.9498 51.2886C21.1831 51.2886 21.3723 51.0197 21.3723 50.688C21.3723 50.3562 21.1831 50.0873 20.9498 50.0873C20.7164 50.0873 20.5272 50.3562 20.5272 50.688C20.5272 51.0197 20.7164 51.2886 20.9498 51.2886Z" fill="#3F3D56"/>
<path d="M20.9498 50.5547C21.1831 50.5547 21.3723 50.2858 21.3723 49.9541C21.3723 49.6224 21.1831 49.3535 20.9498 49.3535C20.7164 49.3535 20.5272 49.6224 20.5272 49.9541C20.5272 50.2858 20.7164 50.5547 20.9498 50.5547Z" fill="#3F3D56"/>
<path d="M20.9498 49.8202C21.1831 49.8202 21.3723 49.5513 21.3723 49.2196C21.3723 48.8879 21.1831 48.619 20.9498 48.619C20.7164 48.619 20.5272 48.8879 20.5272 49.2196C20.5272 49.5513 20.7164 49.8202 20.9498 49.8202Z" fill="#3F3D56"/>
<path d="M20.9498 49.0856C21.1831 49.0856 21.3723 48.8167 21.3723 48.485C21.3723 48.1533 21.1831 47.8844 20.9498 47.8844C20.7164 47.8844 20.5272 48.1533 20.5272 48.485C20.5272 48.8167 20.7164 49.0856 20.9498 49.0856Z" fill="#3F3D56"/>
<path d="M20.9498 48.3511C21.1831 48.3511 21.3723 48.0822 21.3723 47.7505C21.3723 47.4188 21.1831 47.1499 20.9498 47.1499C20.7164 47.1499 20.5272 47.4188 20.5272 47.7505C20.5272 48.0822 20.7164 48.3511 20.9498 48.3511Z" fill="#3F3D56"/>
<path d="M20.9498 47.6166C21.1831 47.6166 21.3723 47.3477 21.3723 47.016C21.3723 46.6843 21.1831 46.4154 20.9498 46.4154C20.7164 46.4154 20.5272 46.6843 20.5272 47.016C20.5272 47.3477 20.7164 47.6166 20.9498 47.6166Z" fill="#3F3D56"/>
<path d="M22.5318 41.991C22.5894 41.9109 22.6421 41.8267 22.6893 41.739L21.578 41.5402L22.7797 41.5501C22.8948 41.2778 22.9575 40.9828 22.9642 40.6833C22.9708 40.3838 22.9211 40.0859 22.8182 39.8079L21.2074 40.7161L22.6936 39.5295C22.5544 39.2681 22.367 39.0407 22.1433 38.8613C21.9195 38.682 21.6642 38.5546 21.3931 38.4871C21.122 38.4196 20.841 38.4135 20.5677 38.469C20.2943 38.5246 20.0344 38.6407 19.8042 38.8101C19.5739 38.9794 19.3783 39.1985 19.2294 39.4535C19.0806 39.7086 18.9817 39.9942 18.939 40.2926C18.8962 40.5909 18.9106 40.8956 18.981 41.1877C19.0515 41.4798 19.1767 41.753 19.3486 41.9903C19.2591 42.1137 19.1817 42.2471 19.1178 42.3881L20.5601 43.2015L19.0226 42.6453C18.9146 42.9917 18.8879 43.3618 18.9448 43.7223C19.0018 44.0827 19.1406 44.4221 19.3486 44.7097C19.1139 45.0339 18.9678 45.4234 18.9273 45.8335C18.8867 46.2437 18.9533 46.6579 19.1193 47.0289C19.2854 47.3999 19.5442 47.7127 19.8663 47.9316C20.1883 48.1504 20.5606 48.2665 20.9405 48.2665C21.3205 48.2665 21.6927 48.1504 22.0148 47.9316C22.3368 47.7127 22.5957 47.3999 22.7617 47.0289C22.9278 46.6579 22.9943 46.2437 22.9538 45.8335C22.9132 45.4234 22.7672 45.0339 22.5324 44.7097C22.8129 44.3221 22.9654 43.8435 22.9654 43.3506C22.9654 42.8578 22.8129 42.3792 22.5324 41.9916L22.5318 41.991Z" fill="#3993F3"/>
<path opacity="0.1" d="M18.9158 43.3499C18.9149 43.843 19.0675 44.3218 19.3487 44.7089C19.1139 45.0332 18.9679 45.4227 18.9273 45.8328C18.8868 46.243 18.9533 46.6572 19.1194 47.0282C19.2854 47.3992 19.5443 47.712 19.8663 47.9309C20.1884 48.1497 20.5607 48.2658 20.9406 48.2658C21.3205 48.2658 21.6928 48.1497 22.0149 47.9309C22.3369 47.712 22.5957 47.3992 22.7618 47.0282C22.9278 46.6572 22.9944 46.243 22.9538 45.8328C22.9133 45.4227 22.7673 45.0332 22.5325 44.7089C22.8036 44.3351 18.9158 43.1033 18.9158 43.3499Z" fill="black"/>
<path d="M13.0624 46.3345C16.1629 46.3345 18.6764 45.8097 18.6764 45.1624C18.6764 44.5151 16.1629 43.9903 13.0624 43.9903C9.96185 43.9903 7.44836 44.5151 7.44836 45.1624C7.44836 45.8097 9.96185 46.3345 13.0624 46.3345Z" fill="#3993F3"/>
<path d="M13.1558 45.5933C13.5166 45.5933 13.8092 45.1775 13.8092 44.6645C13.8092 44.1516 13.5166 43.7358 13.1558 43.7358C12.795 43.7358 12.5024 44.1516 12.5024 44.6645C12.5024 45.1775 12.795 45.5933 13.1558 45.5933Z" fill="#3F3D56"/>
<path d="M13.1558 44.4577C13.5166 44.4577 13.8092 44.0419 13.8092 43.529C13.8092 43.016 13.5166 42.6002 13.1558 42.6002C12.795 42.6002 12.5024 43.016 12.5024 43.529C12.5024 44.0419 12.795 44.4577 13.1558 44.4577Z" fill="#3F3D56"/>
<path d="M13.1558 43.3221C13.5166 43.3221 13.8092 42.9063 13.8092 42.3933C13.8092 41.8804 13.5166 41.4646 13.1558 41.4646C12.795 41.4646 12.5024 41.8804 12.5024 42.3933C12.5024 42.9063 12.795 43.3221 13.1558 43.3221Z" fill="#3F3D56"/>
<path d="M13.1558 42.1865C13.5166 42.1865 13.8092 41.7707 13.8092 41.2577C13.8092 40.7448 13.5166 40.3289 13.1558 40.3289C12.795 40.3289 12.5024 40.7448 12.5024 41.2577C12.5024 41.7707 12.795 42.1865 13.1558 42.1865Z" fill="#3F3D56"/>
<path d="M13.1558 41.0515C13.5166 41.0515 13.8092 40.6357 13.8092 40.1228C13.8092 39.6098 13.5166 39.194 13.1558 39.194C12.795 39.194 12.5024 39.6098 12.5024 40.1228C12.5024 40.6357 12.795 41.0515 13.1558 41.0515Z" fill="#3F3D56"/>
<path d="M13.1558 39.916C13.5166 39.916 13.8092 39.5001 13.8092 38.9872C13.8092 38.4742 13.5166 38.0584 13.1558 38.0584C12.795 38.0584 12.5024 38.4742 12.5024 38.9872C12.5024 39.5001 12.795 39.916 13.1558 39.916Z" fill="#3F3D56"/>
<path d="M13.1558 38.7803C13.5166 38.7803 13.8092 38.3645 13.8092 37.8516C13.8092 37.3386 13.5166 36.9228 13.1558 36.9228C12.795 36.9228 12.5024 37.3386 12.5024 37.8516C12.5024 38.3645 12.795 38.7803 13.1558 38.7803Z" fill="#3F3D56"/>
<path d="M10.7091 30.0813C10.6196 29.9578 10.538 29.8278 10.4648 29.6922L12.1831 29.3866L10.3256 29.4018C10.1474 28.9809 10.05 28.525 10.0395 28.0619C10.029 27.5988 10.1056 27.1382 10.2646 26.7083L12.7571 28.1118L10.46 26.2768C10.6756 25.8734 10.9654 25.5226 11.3112 25.246C11.6571 24.9695 12.0517 24.7732 12.4704 24.6693C12.8892 24.5654 13.3231 24.5561 13.7453 24.6421C14.1675 24.7281 14.5689 24.9074 14.9245 25.169C15.2801 25.4306 15.5823 25.7688 15.8124 26.1627C16.0424 26.5565 16.1954 26.9975 16.2617 27.4582C16.3281 27.919 16.3064 28.3896 16.1981 28.8409C16.0897 29.2922 15.897 29.7144 15.6319 30.0813C15.7711 30.2733 15.8907 30.4812 15.9885 30.7012L13.7591 31.9608L16.1363 31.0943C16.3031 31.6298 16.3443 32.2019 16.2562 32.759C16.1682 33.3161 15.9536 33.8406 15.6319 34.285C15.9952 34.7864 16.2212 35.3888 16.2841 36.0231C16.347 36.6574 16.2442 37.2981 15.9874 37.872C15.7307 38.4459 15.3304 38.9297 14.8323 39.2683C14.3342 39.6068 13.7584 39.7863 13.1708 39.7863C12.5832 39.7863 12.0074 39.6068 11.5093 39.2683C11.0112 38.9297 10.6109 38.4459 10.3542 37.872C10.0975 37.2981 9.99465 36.6574 10.0575 36.0231C10.1204 35.3888 10.3464 34.7864 10.7097 34.285C10.2757 33.6857 10.0398 32.9455 10.0398 32.1832C10.0398 31.4208 10.2757 30.6806 10.7097 30.0813H10.7091Z" fill="#3993F3"/>
<path opacity="0.1" d="M16.3036 32.1828C16.3041 32.9457 16.0674 33.6864 15.6319 34.285C15.9952 34.7864 16.2212 35.3887 16.2841 36.0231C16.347 36.6574 16.2441 37.2981 15.9874 37.872C15.7307 38.4459 15.3304 38.9297 14.8323 39.2683C14.3342 39.6068 13.7584 39.7863 13.1708 39.7863C12.5832 39.7863 12.0074 39.6068 11.5093 39.2683C11.0112 38.9297 10.6109 38.4459 10.3542 37.872C10.0975 37.2981 9.99466 36.6574 10.0575 36.0231C10.1204 35.3887 10.3464 34.7864 10.7097 34.285C10.2896 33.7063 16.3036 31.8016 16.3036 32.1828Z" fill="black"/>
<path opacity="0.1" d="M53.8567 54C57.1953 54 59.9018 53.3767 59.9018 52.6078C59.9018 51.839 57.1953 51.2157 53.8567 51.2157C50.518 51.2157 47.8115 51.839 47.8115 52.6078C47.8115 53.3767 50.518 54 53.8567 54Z" fill="#3993F3"/>
<path d="M51.6127 52.7683C51.6164 52.8021 51.6242 52.8354 51.6359 52.867C51.6693 52.9893 51.7399 53.0956 51.8362 53.1687C51.8856 53.1996 51.9392 53.222 51.9949 53.235C52.3693 53.3324 52.7582 53.3013 53.1405 53.343C53.5227 53.3848 53.9276 53.4928 54.3049 53.3762C54.3953 53.3483 54.4881 53.2973 54.5247 53.1972C54.5271 53.191 54.529 53.1845 54.5302 53.1779C54.8044 53.2164 55.0798 53.2442 55.3424 53.164C55.4321 53.1362 55.5255 53.0851 55.5622 52.985C55.5762 52.9332 55.5806 52.8789 55.575 52.8253C55.564 52.5462 55.5518 52.2631 55.4736 51.9986C55.4444 51.9032 55.4096 51.81 55.3692 51.7195C55.3094 51.5803 55.2443 51.4444 55.1738 51.3118L55.1525 51.2687C55.2037 51.2932 55.2538 51.3197 55.3033 51.3482C55.5301 50.5827 55.6954 49.7973 55.7973 49.0008C55.9236 48.0558 55.898 47.0942 55.7216 46.1588C55.667 45.8467 55.6465 45.5288 55.6605 45.2115C55.6855 44.5797 55.8205 43.9618 55.9548 43.348C56.0232 43.0386 56.0914 42.7272 56.1594 42.4139C56.2563 41.9719 56.3535 41.5282 56.4512 41.0827C56.516 40.7877 56.5807 40.4861 56.5605 40.1824C56.5465 40.0164 56.5162 39.8523 56.4702 39.6932C56.4012 39.4363 56.3155 39.1851 56.2137 38.9414C56.2436 38.9475 56.2745 38.9406 56.2998 38.9222C56.3199 38.8993 56.3333 38.8705 56.3383 38.8393L56.4922 38.2374C56.6002 37.8158 56.7083 37.3908 56.7364 36.9533C56.77 36.4581 56.701 35.9589 56.6863 35.4657C56.6674 34.8213 56.7395 34.1749 56.701 33.5319C56.6924 33.3927 56.679 33.2541 56.6637 33.1162C56.6705 33.0433 56.6723 32.9704 56.6741 32.8975C56.6839 32.5382 56.6802 32.1795 56.5587 31.848C56.4753 31.6116 56.3366 31.4027 56.1563 31.2421C56.1618 31.2123 56.1679 31.1831 56.1734 31.1533L56.3016 30.4904C56.4433 29.7552 56.5862 29.0021 56.505 28.2549C56.4323 27.592 56.1459 26.9185 55.6611 26.5645L55.6568 26.5611L55.6049 26.5253L55.5958 26.5194C55.5799 26.5088 55.5634 26.4988 55.5469 26.4895L55.5347 26.4823C55.5152 26.4703 55.4944 26.4591 55.4736 26.4491C55.318 26.3731 55.1537 26.3198 54.9851 26.2907L54.918 26.2794C54.851 26.2679 54.7836 26.2604 54.7159 26.2569H54.6481C54.5805 26.256 54.513 26.2604 54.446 26.2701C54.4209 26.2701 54.3965 26.2781 54.3715 26.2834L54.2982 26.2999C54.1533 26.345 54.0055 26.3784 53.8561 26.4001C53.828 26.4001 53.7993 26.404 53.7712 26.4047C53.6864 26.4047 53.6015 26.3987 53.516 26.3934C53.4739 26.3934 53.4311 26.3894 53.389 26.3894C53.3187 26.3883 53.2485 26.3952 53.1795 26.41C53.0603 26.4396 52.948 26.4958 52.8498 26.5751C52.7774 26.6324 52.7103 26.6972 52.6495 26.7686C52.6001 26.8264 52.5537 26.8871 52.5103 26.9503C52.4902 26.9795 52.4706 27.0093 52.4492 27.0404L52.4212 27.0875C52.4034 27.12 52.3863 27.1538 52.3705 27.1856C52.347 27.2354 52.3266 27.2867 52.3094 27.3394C52.2608 27.4766 52.2513 27.6265 52.2819 27.7697C52.2893 27.8 52.2983 27.8299 52.3088 27.8592C52.1976 28.0972 52.14 28.3606 52.1409 28.6275C52.1409 29.3567 52.5598 29.9719 53.1356 30.1748C53.2058 30.3153 53.2913 30.4943 53.3627 30.668C53.2112 30.7857 53.0793 30.9305 52.9725 31.0963C52.6147 31.0744 52.2618 31.384 52.1482 31.7745C52.1067 31.9247 52.092 32.0822 52.1049 32.2385C52.0304 32.5647 52.0267 32.9174 52.02 33.2581C52.0096 33.7951 51.984 34.3307 51.9589 34.867C51.9339 35.4034 51.9082 35.935 51.8826 36.4694C51.8753 36.6225 51.8679 36.7763 51.8496 36.9281C51.7599 36.954 51.7556 37.0872 51.766 37.1933C51.794 37.4764 51.8398 37.7627 51.8692 38.0471C51.8292 38.2225 51.8207 38.4046 51.8441 38.5835L51.896 38.6086C51.893 38.7918 51.8683 38.9739 51.8227 39.1503C51.8167 39.1823 51.8032 39.2122 51.7837 39.2371C51.8095 39.2252 51.8369 39.2178 51.8649 39.2152C51.7873 39.4923 51.7257 39.7761 51.6347 40.0485C51.5877 40.1891 51.5327 40.327 51.4924 40.4708C51.4571 40.6074 51.4285 40.7459 51.4069 40.8858C51.3916 40.9664 51.3808 41.0478 51.3746 41.1298C51.3654 41.2871 51.3897 41.4446 51.4455 41.5901C51.5013 41.7356 51.5871 41.8652 51.6963 41.9691C51.6963 42.0234 51.6927 42.0771 51.6927 42.1315C51.6927 42.5193 51.7452 42.9058 51.7324 43.2929C51.7153 43.8147 51.6292 44.3085 51.6267 44.8309C51.6188 46.2761 51.9839 47.6889 52.4126 49.0472C52.5824 49.5855 52.7625 50.1187 52.953 50.6469C53.0654 50.9598 53.1924 51.3098 53.0715 51.6167C53.1124 51.5988 53.1527 51.5823 53.1936 51.5664C53.13 51.7398 53.0349 51.8976 52.9139 52.0304C52.7244 52.2329 52.4773 52.3598 52.2129 52.3904C52.0853 52.4056 51.954 52.3977 51.8325 52.4461C51.711 52.4945 51.6005 52.6217 51.6127 52.7683ZM53.1734 45.2691C53.3061 44.522 53.56 43.8064 53.9233 43.1557L53.9269 43.1988C53.9465 43.4123 53.9825 43.6257 54.0216 43.8385C54.1034 44.2867 54.1993 44.7342 54.1846 45.1843C54.1693 45.6614 54.1951 46.139 54.2616 46.6109C54.2817 46.7956 54.3227 46.9768 54.3837 47.1506C54.424 47.254 54.4765 47.3494 54.5058 47.4581C54.5374 47.5823 54.5538 47.7105 54.5547 47.8393C54.6088 48.9015 54.549 49.967 54.3764 51.0141C54.3342 51.0141 54.3074 51.0214 54.3067 51.0274C54.2812 51.2066 54.2246 51.3789 54.1401 51.5352L54.1327 51.5206C54.1181 51.4928 54.1028 51.4609 54.0869 51.4291L54.1376 51.4377C53.9978 51.1103 54.0106 50.7284 54.0045 50.3638C53.9924 49.869 53.946 49.376 53.8659 48.8888C53.7459 48.1513 53.5376 47.4341 53.2461 46.7554C53.1861 46.6126 53.145 46.4613 53.124 46.306C53.0853 45.9598 53.102 45.6091 53.1734 45.2691ZM55.6922 37.3802C55.6693 37.3465 55.6446 37.3142 55.6184 37.2834C55.5573 37.2125 55.484 37.1303 55.5023 37.0335C55.5116 36.9955 55.5292 36.9605 55.5536 36.9314C55.6027 36.8647 55.657 36.8028 55.7161 36.7465L55.7356 36.7279C55.7209 36.944 55.7065 37.1608 55.6922 37.3782V37.3802Z" fill="url(#paint0_linear)"/>
<path d="M56.5825 32.5686L56.6497 33.1315C56.6723 33.3224 56.6949 33.5127 56.7071 33.7042C56.748 34.342 56.6723 34.9824 56.6918 35.6214C56.7077 36.1133 56.7798 36.6046 56.7449 37.0958C56.7138 37.5294 56.6002 37.951 56.4867 38.3686L56.3255 38.9653C56.3199 38.9965 56.3059 39.0251 56.2852 39.0475C56.2541 39.0674 56.2172 39.0738 56.182 39.0654L55.4663 38.9991C55.5121 38.771 55.5628 38.535 55.5884 38.301C55.608 38.118 55.6196 37.9338 55.6318 37.7495C55.6696 37.1754 55.713 36.6013 55.7539 36.0258L55.8302 35.0182C55.8626 34.5806 55.8962 34.1411 55.9975 33.7162C56.0987 33.2855 56.3001 32.8904 56.5825 32.5686Z" fill="#3993F3"/>
<path opacity="0.1" d="M56.5825 32.5686L56.6497 33.1315C56.6723 33.3224 56.6949 33.5127 56.7071 33.7042C56.748 34.342 56.6723 34.9824 56.6918 35.6214C56.7077 36.1133 56.7798 36.6046 56.7449 37.0958C56.7138 37.5294 56.6002 37.951 56.4867 38.3686L56.3255 38.9653C56.3199 38.9965 56.3059 39.0251 56.2852 39.0475C56.2541 39.0674 56.2172 39.0738 56.182 39.0654L55.4663 38.9991C55.5121 38.771 55.5628 38.535 55.5884 38.301C55.608 38.118 55.6196 37.9338 55.6318 37.7495C55.6696 37.1754 55.713 36.6013 55.7539 36.0258L55.8302 35.0182C55.8626 34.5806 55.8962 34.1411 55.9975 33.7162C56.0987 33.2855 56.3001 32.8904 56.5825 32.5686Z" fill="black"/>
<path d="M55.3075 51.7308C55.3495 51.8205 55.3862 51.9131 55.4174 52.0079C55.4993 52.2697 55.5115 52.5508 55.5237 52.8273C55.5291 52.8805 55.5245 52.9344 55.5102 52.9857C55.4748 53.0852 55.3735 53.1355 55.2788 53.1627C54.8825 53.2787 54.4649 53.17 54.0576 53.1302C53.6503 53.0905 53.2479 53.1196 52.8547 53.0235C52.7966 53.0113 52.7404 52.9901 52.688 52.9605C52.5884 52.8902 52.514 52.7849 52.4773 52.6622C52.4655 52.6308 52.4574 52.5978 52.4535 52.5641C52.4407 52.4182 52.5573 52.2923 52.6843 52.2446C52.8113 52.1968 52.9499 52.2041 53.0836 52.1895C53.3591 52.1589 53.6175 52.0305 53.8189 51.8243C54.0202 51.618 54.1533 51.3454 54.1974 51.0486C54.2023 51.0168 54.8593 51.036 54.9302 51.0771C55.0108 51.1255 55.0596 51.2455 55.1054 51.3271C55.1775 51.4583 55.2448 51.5929 55.3075 51.7308Z" fill="#A26565"/>
<path opacity="0.1" d="M55.3075 51.7308C55.3495 51.8205 55.3862 51.9131 55.4174 52.0079C55.4993 52.2697 55.5115 52.5508 55.5237 52.8273C55.5291 52.8805 55.5245 52.9344 55.5102 52.9857C55.4748 53.0852 55.3735 53.1355 55.2788 53.1627C54.8825 53.2787 54.4649 53.17 54.0576 53.1302C53.6503 53.0905 53.2479 53.1196 52.8547 53.0235C52.7966 53.0113 52.7404 52.9901 52.688 52.9605C52.5884 52.8902 52.514 52.7849 52.4773 52.6622C52.4655 52.6308 52.4574 52.5978 52.4535 52.5641C52.4407 52.4182 52.5573 52.2923 52.6843 52.2446C52.8113 52.1968 52.9499 52.2041 53.0836 52.1895C53.3591 52.1589 53.6175 52.0305 53.8189 51.8243C54.0202 51.618 54.1533 51.3454 54.1974 51.0486C54.2023 51.0168 54.8593 51.036 54.9302 51.0771C55.0108 51.1255 55.0596 51.2455 55.1054 51.3271C55.1775 51.4583 55.2448 51.5929 55.3075 51.7308Z" fill="black"/>
<path d="M54.2175 51.9416C54.2598 52.031 54.2965 52.1234 54.3275 52.2181C54.4099 52.4832 54.4221 52.761 54.4337 53.0374C54.4394 53.0907 54.4348 53.1447 54.4203 53.1959C54.3855 53.2953 54.2841 53.3457 54.1895 53.3736C53.7932 53.4889 53.3749 53.3802 52.9682 53.3404C52.5615 53.3006 52.1579 53.3298 51.7653 53.2337C51.707 53.2209 51.6508 53.1985 51.5986 53.1674C51.4989 53.0972 51.4245 52.9918 51.3879 52.8691C51.3761 52.8376 51.3681 52.8046 51.3641 52.7709C51.3513 52.6258 51.4679 52.4991 51.5949 52.4514C51.7219 52.4037 51.8606 52.4116 51.9943 52.3964C52.2696 52.3657 52.5279 52.2374 52.7292 52.0313C52.9306 51.8251 53.0637 51.5527 53.108 51.2561C53.1129 51.2243 53.77 51.2429 53.8408 51.284C53.922 51.3324 53.9708 51.4524 54.0166 51.5339C54.0863 51.6685 54.1546 51.8037 54.2175 51.9416Z" fill="#A26565"/>
<path d="M51.3762 44.8992C51.3677 46.3318 51.7512 47.732 52.2012 49.0757C52.3795 49.6087 52.5686 50.1371 52.7684 50.6608C52.8869 50.971 53.0206 51.3158 52.8936 51.6221C53.26 51.4709 53.6325 51.3821 54.0178 51.4517C53.8712 51.1268 53.8853 50.749 53.8786 50.391C53.8661 49.9004 53.8179 49.4116 53.7344 48.9292C53.6051 48.1951 53.3834 47.4837 53.0756 46.8151C53.0134 46.6741 52.9704 46.5241 52.948 46.3696C52.8979 46.0289 52.937 45.6788 53.0023 45.3414C53.1429 44.5961 53.41 43.8857 53.79 43.2465L53.7937 43.289C53.8165 43.5022 53.8495 43.7139 53.8926 43.9234C53.9787 44.3669 54.0794 44.8111 54.0642 45.2572C54.0483 45.7303 54.0753 46.2039 54.1448 46.6713C54.1672 46.8548 54.2113 47.0344 54.2761 47.2056C54.3182 47.3083 54.3732 47.4045 54.4061 47.5112C54.4391 47.634 54.4564 47.7611 54.4574 47.8891C54.5063 48.9677 54.4574 50.0628 54.2547 51.1202C54.5948 51.091 54.9349 51.1978 55.239 51.3635C55.4768 50.6066 55.6505 49.8277 55.758 49.0366C55.8905 48.101 55.8636 47.1469 55.6787 46.2218C55.621 45.9133 55.5995 45.5981 55.6145 45.2837C55.6408 44.6573 55.7825 44.0447 55.9235 43.4361L56.1385 42.508C56.2402 42.0661 56.342 41.6261 56.4438 41.1881C56.5115 40.8958 56.5799 40.5968 56.5586 40.2958C56.5437 40.1307 56.5117 39.9679 56.4633 39.8105C56.3109 39.2753 56.0828 38.769 55.7873 38.3097C54.6107 38.3813 53.42 38.2619 52.2458 38.1638C52.1888 38.1516 52.1297 38.1625 52.0797 38.1943C52.0397 38.2385 52.0158 38.2969 52.0125 38.3587L51.571 41.0768C51.5006 41.4546 51.4597 41.8383 51.4489 42.2236C51.4489 42.6081 51.5039 42.9913 51.4904 43.3751C51.4691 43.8922 51.3787 44.3815 51.3762 44.8992Z" fill="#454B69"/>
<path opacity="0.1" d="M53.7955 43.289C53.8183 43.5022 53.8514 43.7139 53.8945 43.9234C54.1503 43.4428 54.4263 42.9741 54.662 42.4815C54.7231 42.3549 54.7805 42.2263 54.8385 42.0977L55.0125 41.7132C55.0449 41.6409 55.0772 41.5687 55.1065 41.4951C55.1542 41.3894 55.1909 41.2782 55.2158 41.1636C55.1303 41.1464 54.9191 41.3969 54.8556 41.4626C54.726 41.6018 54.6037 41.7488 54.4892 41.9028C54.348 42.0737 54.2182 42.2554 54.1008 42.4464C53.9552 42.7061 53.8519 42.9911 53.7955 43.289Z" fill="black"/>
<path d="M52.8125 30.1025C52.8125 30.1025 53.4659 31.2328 53.345 31.4695C53.2241 31.7062 55.4027 31.2594 55.4027 31.2594C55.4027 31.2594 54.2163 30.129 54.3378 29.6557C54.4593 29.1824 52.8125 30.1025 52.8125 30.1025Z" fill="#EE8E9E"/>
<path d="M53.3932 30.4446C54.209 30.4446 54.8703 29.7266 54.8703 28.841C54.8703 27.9553 54.209 27.2373 53.3932 27.2373C52.5775 27.2373 51.9161 27.9553 51.9161 28.841C51.9161 29.7266 52.5775 30.4446 53.3932 30.4446Z" fill="#EE8E9E"/>
<path d="M52.7904 31.2879C52.9484 31.0489 53.163 30.8608 53.4115 30.7436C53.5545 30.688 53.7024 30.6484 53.8529 30.6256L54.4422 30.5129C54.5863 30.485 54.7408 30.4592 54.8751 30.5235C54.943 30.5613 55.0049 30.6108 55.0583 30.67C55.2629 30.8762 55.4613 31.1022 55.7184 31.2216C55.7886 31.254 55.8619 31.2779 55.9321 31.3104C56.2197 31.443 56.4346 31.7254 56.5562 32.0396C56.6844 32.3671 56.688 32.7231 56.6783 33.0791C56.6784 33.202 56.6672 33.3246 56.6447 33.445C56.6153 33.5598 56.5779 33.6719 56.533 33.7805C56.4522 34.0127 56.3845 34.25 56.3302 34.4911C56.1776 35.1254 56.0506 35.7662 55.9492 36.4137C55.9406 36.5064 55.9155 36.5965 55.8753 36.6788C55.8184 36.7613 55.7495 36.8332 55.6714 36.8916C55.6094 36.9469 55.5523 37.0084 55.501 37.0753C55.4755 37.1035 55.4568 37.1381 55.4467 37.176C55.4277 37.2715 55.5077 37.3537 55.5688 37.4233C55.7002 37.5689 55.7952 37.7485 55.8448 37.945C55.8754 37.9854 55.8911 38.0367 55.8887 38.0889C55.876 38.1252 55.8712 38.1642 55.8747 38.2029C55.8867 38.2381 55.9057 38.27 55.9303 38.2964C55.9584 38.3363 55.9785 38.3822 55.989 38.4311C55.9995 38.48 56.0003 38.5308 55.9913 38.5801C55.5336 38.796 55.0438 38.9205 54.5454 38.9474C54.4233 38.954 54.3011 38.954 54.179 38.9699C54.0923 38.9819 54.0068 39.0011 53.9201 39.0124C53.7943 39.0252 53.6678 39.0287 53.5415 39.023C52.8839 39.0084 52.2073 38.9905 51.6034 38.7074C51.5466 38.3713 51.6693 38.0286 51.7463 37.6971C51.8684 37.1668 51.8989 36.6238 51.9905 36.0888C52.0516 35.7235 52.1432 35.3636 52.1951 34.9956C52.247 34.6277 52.2592 34.2465 52.1658 33.8885C52.0833 33.5717 52.0583 33.2481 51.9728 32.9319C51.8873 32.6157 51.8275 32.273 51.924 31.9601C52.0437 31.5742 52.4143 31.266 52.7904 31.2879Z" fill="#3993F3"/>
<path d="M52.0651 27.9904C51.9931 27.706 52.1347 27.4097 52.3033 27.1783C52.4865 26.9297 52.7197 26.7056 53.0061 26.6433C53.2387 26.5923 53.4799 26.6539 53.7169 26.6334C53.9263 26.6155 54.1278 26.5333 54.336 26.5008C54.5249 26.4787 54.7158 26.4865 54.9027 26.524C55.08 26.5526 55.2533 26.6052 55.4187 26.6804C56.0476 26.9834 56.4158 27.7299 56.5013 28.4704C56.5868 29.2109 56.4402 29.9573 56.2882 30.6859L56.1532 31.3449C56.0128 32.031 55.8723 32.7198 55.8351 33.4212C55.7978 34.1226 55.8675 34.8425 56.1331 35.4829C55.2741 34.9819 54.6085 34.1639 54.2566 33.1765C54.1614 32.9054 54.0906 32.6237 53.9843 32.3572C53.8933 32.1278 53.7767 31.9103 53.6961 31.6763C53.605 31.4122 53.5613 31.1316 53.5673 30.8496C53.5721 30.6375 53.6045 30.4267 53.599 30.2146C53.5935 30.0024 53.5434 29.7817 53.4085 29.6279C53.2864 29.492 53.1184 29.429 52.964 29.3408C52.7208 29.2052 52.5083 29.0127 52.3417 28.7773C52.2447 28.6394 52.2392 28.5784 52.2147 28.422C52.1903 28.2655 52.103 28.1409 52.0651 27.9904Z" fill="#454B69"/>
<path d="M52.0633 40.0366C52.048 40.2017 52.0755 40.3681 52.0425 40.5318C52.0175 40.6538 51.9595 40.7639 51.9253 40.8832C51.8914 41.021 51.874 41.1629 51.8734 41.3055C51.8685 41.4248 51.877 41.5707 51.9747 41.6264C52.0175 41.6509 52.0688 41.6509 52.1133 41.6721C52.1579 41.6933 52.1958 41.751 52.1701 41.7961C52.1445 41.8411 52.1005 41.8339 52.0602 41.8425C52.0199 41.8511 51.9765 41.8962 51.9991 41.9326C52.0083 41.9446 52.0207 41.9531 52.0346 41.9572C52.0753 41.9708 52.114 41.9909 52.1494 42.0168C52.1666 42.0305 52.1801 42.049 52.1884 42.0704C52.1967 42.0918 52.1995 42.1152 52.1964 42.1381C52.1939 42.1491 52.1892 42.1593 52.1826 42.1681C52.176 42.1768 52.1676 42.1838 52.1581 42.1885C52.1487 42.1932 52.1384 42.1955 52.128 42.1953C52.1176 42.1951 52.1073 42.1923 52.0981 42.1872C52.116 42.2288 52.1258 42.2739 52.1268 42.3198C51.9704 42.3927 51.7952 42.2972 51.6486 42.2051C51.5853 42.1667 51.5241 42.1242 51.4655 42.0778C51.3469 41.979 51.2524 41.8502 51.1903 41.7026C51.1281 41.5551 51.1002 41.3932 51.1088 41.2312C51.1158 41.1499 51.1275 41.0691 51.1437 40.9893C51.1662 40.8503 51.1962 40.7128 51.2334 40.5776C51.2755 40.4351 51.3329 40.2992 51.3824 40.1593C51.4874 39.8616 51.5552 39.55 51.6505 39.2484C51.6568 39.2171 51.673 39.1892 51.6963 39.1695C51.7173 39.1583 51.7407 39.1535 51.764 39.1556C51.871 39.1495 51.9781 39.1602 52.0822 39.1874C52.1432 39.2073 52.2477 39.2537 52.2764 39.32C52.3051 39.3863 52.2593 39.442 52.2318 39.497C52.144 39.6634 52.0868 39.8466 52.0633 40.0366Z" fill="#EE8E9E"/>
<path opacity="0.1" d="M52.1627 31.9813C52.1313 32.0162 52.105 32.0559 52.0845 32.0993C51.8745 32.5136 51.872 33.0088 51.8623 33.4815C51.8513 34.0119 51.8244 34.5422 51.7976 35.0759L51.7176 36.6669C51.7096 36.8187 51.7023 36.9705 51.6821 37.121C51.5881 37.1469 51.5844 37.2795 51.5948 37.3862C51.6626 38.0345 51.8305 38.7021 51.6559 39.3259C51.6492 39.3579 51.6351 39.3876 51.615 39.4121C51.7037 39.3819 51.7985 39.3806 51.8879 39.4081C51.9752 39.428 52.0595 39.4632 52.1474 39.485C52.2586 39.5122 52.3844 39.5242 52.4601 39.6176C52.5459 39.3374 52.6142 39.0513 52.6646 38.7611C52.7062 38.4959 52.7178 38.2228 52.8167 37.9775C52.8564 37.8788 52.9101 37.7873 52.9589 37.6925C53.2148 37.1966 53.3406 36.6364 53.4633 36.0835C53.5184 35.8214 53.5316 35.551 53.5024 35.284C53.4846 35.1623 53.4744 35.0393 53.4719 34.9161C53.4793 34.786 53.495 34.6567 53.5189 34.5289C53.5708 34.1541 53.5464 33.7714 53.4474 33.4079C53.3559 33.0705 53.2752 32.7152 53.0811 32.4314C52.8869 32.1477 52.4869 31.9859 52.1627 31.9813Z" fill="black"/>
<path d="M52.0902 31.9283C52.0588 31.9634 52.0324 32.0033 52.012 32.0469C51.8019 32.4606 51.7995 32.9565 51.7897 33.4291C51.7787 33.9595 51.7519 34.4898 51.725 35.0202L51.645 36.6112C51.6371 36.763 51.6298 36.9148 51.6096 37.0653C51.5156 37.0912 51.5119 37.2238 51.5229 37.3305C51.5901 37.9788 51.758 38.6458 51.584 39.2702C51.5772 39.3023 51.5631 39.3319 51.543 39.3564C51.6317 39.3263 51.7266 39.3249 51.816 39.3524C51.9033 39.3723 51.9876 39.4075 52.0755 39.4287C52.1866 39.4565 52.3124 39.4678 52.3881 39.5613C52.4742 39.2809 52.5425 38.9945 52.5927 38.7041C52.6342 38.4389 52.6458 38.1665 52.7447 37.9212C52.7877 37.8236 52.8352 37.7285 52.887 37.6361C53.1435 37.1402 53.2686 36.5794 53.3914 36.0265C53.4465 35.7644 53.4597 35.494 53.4305 35.227C53.3845 34.9771 53.3901 34.7192 53.4469 34.4719C53.4988 34.0973 53.4744 33.7149 53.3755 33.3516C53.2839 33.0141 53.2033 32.6588 53.0091 32.3751C52.815 32.0913 52.4144 31.9336 52.0902 31.9283Z" fill="#3993F3"/>
<g opacity="0.1">
<path opacity="0.1" d="M52.3033 27.1783C52.4865 26.9297 52.7197 26.7056 53.0061 26.6433C53.2387 26.5923 53.4799 26.6539 53.7169 26.6334C53.9263 26.6155 54.1278 26.5333 54.336 26.5008C54.5249 26.4787 54.7158 26.4865 54.9027 26.524C55.08 26.5526 55.2533 26.6052 55.4187 26.6804C55.508 26.7239 55.5932 26.7765 55.6733 26.8376C55.5261 26.7755 55.3732 26.731 55.2172 26.705C55.0305 26.6674 54.8398 26.6596 54.6511 26.6818C54.4423 26.7109 54.2414 26.7925 54.0313 26.8104C53.795 26.8309 53.5538 26.7699 53.3206 26.8203C53.0342 26.8826 52.7997 27.1074 52.6184 27.356C52.4492 27.5867 52.3082 27.883 52.3796 28.1681C52.4175 28.3179 52.5054 28.4492 52.5292 28.6036C52.553 28.7581 52.5591 28.8211 52.6568 28.9589C52.7821 29.1358 52.9336 29.2888 53.105 29.4117C53.058 29.3879 53.0098 29.364 52.964 29.3381C52.7208 29.2025 52.5083 29.0101 52.3417 28.7747C52.2447 28.6368 52.2392 28.5758 52.2147 28.4193C52.1903 28.2629 52.103 28.1343 52.0651 27.9838C51.9931 27.706 52.1347 27.4097 52.3033 27.1783Z" fill="black"/>
<path opacity="0.1" d="M53.4085 29.6318C53.3832 29.6033 53.3556 29.5774 53.326 29.5542C53.4671 29.6285 53.6155 29.6934 53.7236 29.8194C53.8585 29.9725 53.9068 30.194 53.9141 30.4061C53.9214 30.6182 53.8866 30.8291 53.8823 31.0405C53.8763 31.3227 53.9201 31.6035 54.0112 31.8679C54.0918 32.1019 54.2084 32.3187 54.2994 32.5487C54.405 32.8139 54.4758 33.0963 54.5711 33.3674C54.8764 34.2234 55.4184 34.9558 56.1227 35.4636C56.1264 35.4723 56.1294 35.4815 56.1331 35.4902C55.2741 34.9892 54.6085 34.1711 54.2566 33.1838C54.1614 32.9127 54.0905 32.6309 53.9843 32.3644C53.8933 32.135 53.7767 31.9176 53.6961 31.6836C53.605 31.4195 53.5612 31.1389 53.5672 30.8569C53.5721 30.6448 53.6045 30.4339 53.599 30.2218C53.5935 30.0097 53.5434 29.7843 53.4085 29.6318Z" fill="black"/>
</g>
<path opacity="0.1" d="M11.959 8.07321H8.06934C7.76077 8.07321 7.51062 8.34479 7.51062 8.6798V11.3116C7.51062 11.6467 7.76077 11.9182 8.06934 11.9182H11.959C12.2676 11.9182 12.5177 11.6467 12.5177 11.3116V8.6798C12.5177 8.34479 12.2676 8.07321 11.959 8.07321Z" fill="#3993F3"/>
<path opacity="0.1" d="M16.9661 14.8351H13.0764C12.7678 14.8351 12.5177 15.1067 12.5177 15.4417V18.0736C12.5177 18.4086 12.7678 18.6802 13.0764 18.6802H16.9661C17.2746 18.6802 17.5248 18.4086 17.5248 18.0736V15.4417C17.5248 15.1067 17.2746 14.8351 16.9661 14.8351Z" fill="#3993F3"/>
<path opacity="0.1" d="M58.6104 8.73615H54.7207C54.4121 8.73615 54.162 9.00772 54.162 9.34273V11.9746C54.162 12.3096 54.4121 12.5812 54.7207 12.5812H58.6104C58.9189 12.5812 59.1691 12.3096 59.1691 11.9746V9.34273C59.1691 9.00772 58.9189 8.73615 58.6104 8.73615Z" fill="#3993F3"/>
</g>
<defs>
<linearGradient id="paint0_linear" x1="54.0594" y1="53.4252" x2="54.0594" y2="26.2516" gradientUnits="userSpaceOnUse">
<stop stop-color="#808080" stop-opacity="0.25"/>
<stop offset="0.54" stop-color="#808080" stop-opacity="0.12"/>
<stop offset="1" stop-color="#808080" stop-opacity="0.1"/>
</linearGradient>
<clipPath id="clip0">
<rect width="69" height="54" fill="white"/>
</clipPath>
</defs>
</svg>
