<svg width="69" height="54" viewBox="0 0 69 54" fill="none" xmlns="http://www.w3.org/2000/svg">
<g clip-path="url(#clip0)">
<g opacity="0.5">
<path opacity="0.5" d="M68.11 25.175H61.4439C60.9524 25.175 60.554 25.6078 60.554 26.1418V33.3829C60.554 33.9169 60.9524 34.3497 61.4439 34.3497H68.11C68.6015 34.3497 68.9999 33.9169 68.9999 33.3829V26.1418C68.9999 25.6078 68.6015 25.175 68.11 25.175Z" fill="#D0D2D5"/>
<path opacity="0.1" d="M63.5794 27.8117H65.9745C65.9745 27.8117 67.9915 29.7288 65.9745 31.7144H63.5794C63.5794 31.7144 61.5625 29.9342 63.5794 27.8117Z" fill="black"/>
<path opacity="0.5" d="M64.1467 28.9065H63.8315V29.9335H64.1467V28.9065Z" fill="#3F3D56"/>
<path opacity="0.5" d="M65.7224 28.7696H65.4072V30.002H65.7224V28.7696Z" fill="#3F3D56"/>
<path opacity="0.5" d="M64.777 30.5497C64.8773 30.5497 64.9735 30.593 65.0444 30.67C65.1153 30.7471 65.1552 30.8516 65.1552 30.9605V31.3029H64.3988V30.9605C64.3988 30.8516 64.4386 30.7471 64.5096 30.67C64.5805 30.593 64.6767 30.5497 64.777 30.5497Z" fill="#3F3D56"/>
</g>
<path d="M39.19 16.3269C39.3898 16.3221 39.589 16.3385 39.7882 16.3269C39.9703 16.3173 40.1512 16.2851 40.3334 16.2653C40.6447 16.2317 40.9586 16.2344 41.2713 16.2201C41.4767 16.2105 41.6936 16.1886 41.86 16.0571C42.0163 15.9346 42.1033 15.7346 42.2426 15.5895C42.8098 14.9972 43.1987 14.2051 43.703 13.5478C43.829 13.3807 43.9607 13.2143 44.0748 13.0356C44.2935 12.6933 44.448 12.3051 44.6018 11.9216C44.6624 11.7795 44.7129 11.6326 44.753 11.4821C44.7814 11.3616 44.7959 11.237 44.8337 11.1192C44.9119 10.8782 45.0997 10.6673 45.1224 10.4133L45.0959 10.4174C45.3253 10.1004 45.29 9.54786 45.4035 9.14184C45.476 8.90069 45.5639 8.66528 45.6663 8.43731L46.088 7.43973C46.1605 7.26856 46.2361 7.09191 46.3615 6.96045C46.5134 6.80092 46.7252 6.7215 46.8778 6.56266C46.9685 6.46485 47.0363 6.34489 47.0757 6.21278L47.0889 6.22648C47.1696 6.31206 47.2326 6.41682 47.3114 6.50514C47.481 6.69548 47.7161 6.80435 47.8888 6.99127C47.977 7.08644 48.0495 7.20215 48.156 7.2713C48.2104 7.30358 48.2727 7.31651 48.3342 7.30828C48.3958 7.30005 48.4533 7.27107 48.4989 7.22543C48.8084 6.92964 49.2697 6.90226 49.6044 6.64139C49.6971 6.56882 49.7778 6.48049 49.8647 6.40107C50.0724 6.22132 50.298 6.06744 50.5373 5.94234C50.6777 5.94482 50.8172 5.96644 50.9526 6.0067C51.1468 6.06489 51.3365 6.16143 51.5382 6.15733C51.7182 6.14768 51.8907 6.07571 52.0304 5.95192C52.1332 5.86565 52.2271 5.74652 52.2422 5.60958C52.2461 5.5393 52.2344 5.46903 52.2081 5.40469C52.1818 5.34035 52.1416 5.28382 52.091 5.23985C52.0771 5.22685 52.0626 5.21521 52.0481 5.20357C52.0438 5.14212 52.0282 5.08224 52.0021 5.02753C51.976 4.97282 51.94 4.92441 51.8962 4.88519C51.794 4.79833 51.6774 4.7337 51.5527 4.69485C51.4833 4.66524 51.4102 4.64723 51.3359 4.64145C51.2199 4.6483 51.106 4.67727 50.9993 4.72703C50.7847 4.80207 50.5636 4.85255 50.3394 4.87766C50.2996 4.88177 50.219 4.87287 50.1503 4.87218L50.1269 4.79961C49.8647 4.93106 49.5597 4.82289 49.2723 4.82357C49.1323 4.82357 48.993 4.85027 48.8537 4.85986C48.6995 4.86648 48.545 4.86282 48.3911 4.8489L47.9253 4.81672C47.7264 4.80562 47.5282 4.78276 47.3316 4.74826C47.2793 4.63254 47.2269 4.51683 47.1683 4.40592C47.0696 4.21947 46.9537 4.04443 46.8223 3.88351C46.8751 3.83414 46.9307 3.7884 46.9887 3.74657L47 3.73904C47.0145 3.73014 47.0322 3.72055 47.0517 3.71097C47.2335 3.80488 47.4342 3.84731 47.6352 3.83429C47.8361 3.82127 48.0308 3.75324 48.201 3.63652C48.3712 3.5198 48.5115 3.35819 48.6088 3.16674C48.7061 2.97528 48.7571 2.76021 48.7573 2.54153C48.7918 2.5271 48.8255 2.51041 48.8582 2.49155C48.8771 2.4806 48.896 2.46896 48.9143 2.45595L48.9414 2.43609C48.9586 2.42191 48.975 2.40659 48.9905 2.39022C48.9981 2.382 49.0056 2.37379 49.0126 2.36489C49.0264 2.34715 49.0384 2.32787 49.0485 2.30737C49.0523 2.29916 49.0561 2.29162 49.0592 2.28341C49.0624 2.27519 49.0592 2.27725 49.0624 2.27382C49.0655 2.2704 49.0668 2.2615 49.0687 2.25602C49.0706 2.25054 49.0687 2.24781 49.0718 2.2437L49.0756 2.22726C49.0759 2.22293 49.0759 2.21859 49.0756 2.21426C49.0756 2.20878 49.0756 2.2033 49.0756 2.19851V2.18413C49.0753 2.17912 49.0753 2.17408 49.0756 2.16907C49.0759 2.16405 49.0759 2.15902 49.0756 2.154C49.0756 2.14921 49.0756 2.14373 49.0756 2.13894C49.0759 2.13393 49.0759 2.12889 49.0756 2.12388V2.10539C49.0759 2.10015 49.0759 2.09489 49.0756 2.08964C49.0756 2.08485 49.0756 2.08006 49.0756 2.07527V2.05883V2.04514C49.0756 2.03898 49.0756 2.03282 49.0756 2.02734C49.0759 2.02324 49.0759 2.01912 49.0756 2.01501C49.076 2.00863 49.076 2.00223 49.0756 1.99584C49.0756 1.99174 49.0756 1.98831 49.0756 1.98489C49.0756 1.98146 49.0756 1.97119 49.0712 1.96435V1.95476L49.0655 1.93285V1.92464C49.0655 1.91711 49.0611 1.90957 49.0592 1.90204V1.8952L49.0517 1.87055V1.86644C49.0517 1.8548 49.0447 1.84247 49.0409 1.83084C48.9937 1.68294 48.9426 1.53574 48.8884 1.39059C48.8489 1.26912 48.7895 1.1564 48.7132 1.05783C48.6016 0.929112 48.4415 0.864753 48.3079 0.762051C48.1503 0.641547 48.0325 0.471062 47.8988 0.319063C47.7652 0.167064 47.6032 0.0294434 47.411 0.00411028C47.2583 -0.00556235 47.1057 0.0247277 46.966 0.092434C45.8081 0.556647 44.8602 1.47138 43.8221 2.19714C43.4181 2.47991 42.9655 2.74488 42.4871 2.70859L42.9094 3.43709C42.9296 3.4727 42.9504 3.50556 42.9724 3.54253C42.9945 3.57951 43.0166 3.611 43.0399 3.64524C43.0994 3.73396 43.1746 3.80891 43.2611 3.8657C43.2829 3.87948 43.3057 3.89138 43.3292 3.90131C43.3498 3.90972 43.3708 3.91681 43.3922 3.92253C43.5429 3.96156 43.7074 3.92869 43.8599 3.89583C43.9122 3.88487 43.9645 3.87323 44.0162 3.86023L44.0792 3.84105H44.0893C44.0893 3.84516 44.0893 3.84859 44.0893 3.85201C44.054 3.92048 44.0206 3.98278 43.991 4.05057C43.8937 4.29592 43.8183 4.55089 43.766 4.81193C43.6469 5.32544 43.5271 5.8499 43.5586 6.37711C43.5693 6.55512 43.5971 6.73725 43.5498 6.90842C43.5271 6.99264 43.4868 7.0789 43.5082 7.16244C43.5307 7.21068 43.55 7.26055 43.5662 7.3117C43.5763 7.39112 43.5183 7.45959 43.4767 7.52532C43.4351 7.59104 43.4136 7.6958 43.4729 7.74167C43.4129 7.76451 43.36 7.80516 43.3202 7.85902C43.2805 7.91289 43.2554 7.97779 43.2479 8.04636C43.2492 8.08666 43.2419 8.12675 43.2264 8.16344C43.2088 8.18823 43.1875 8.20974 43.1634 8.22711C43.0994 8.28545 43.0575 8.36735 43.0456 8.45716C42.9239 8.45716 42.8212 8.58588 42.7102 8.66257C42.6132 8.71595 42.5105 8.75641 42.4045 8.78307C42.1001 8.88851 41.8373 9.10556 41.5996 9.33424C41.4673 9.45954 41.3337 9.59784 41.2757 9.77723C41.2568 9.83611 41.2467 9.89773 41.2303 9.9573C41.1964 10.0726 41.1471 10.182 41.0841 10.2818C40.9632 10.4839 40.8144 10.6645 40.6429 10.8173C40.556 10.8932 40.4796 10.9822 40.4159 11.0815C40.3195 11.2329 40.1235 11.278 40.0201 11.4239C39.983 11.4957 39.9408 11.5644 39.8941 11.6293C39.814 11.7114 39.693 11.7183 39.5909 11.7662C39.352 11.8737 39.2417 12.177 39.0287 12.3372C39.0169 12.348 39.0018 12.3534 38.9864 12.3523C38.9682 12.3523 38.9574 12.3283 38.9417 12.3167C38.9108 12.2941 38.8698 12.3112 38.8333 12.3215C38.7967 12.3318 38.7475 12.3277 38.7381 12.2879C38.2244 11.9497 37.7195 11.5827 37.2052 11.2445L36.9707 11.0904L35.7164 10.2647C35.7016 10.2546 35.6845 10.2493 35.667 10.2493C35.6495 10.2493 35.6323 10.2546 35.6175 10.2647L35.5784 10.2942C35.5154 10.2216 35.4454 10.1572 35.4038 10.1038C35.3868 10.0826 35.3698 10.0614 35.3521 10.0408C35.3636 10.0413 35.375 10.0389 35.3855 10.034C35.3996 10.0257 35.4103 10.0118 35.4153 9.99531C35.4204 9.97877 35.4194 9.96077 35.4126 9.94497C35.3993 9.91377 35.3794 9.88635 35.3547 9.86487C35.2998 9.80714 35.2494 9.74463 35.204 9.67795C35.1551 9.59443 35.0996 9.51563 35.0382 9.44242C35.0073 9.40578 34.9691 9.37721 34.9265 9.35884C34.8839 9.34047 34.8381 9.33276 34.7924 9.33629C34.7417 9.34685 34.6933 9.36801 34.65 9.3986C34.4776 9.5074 34.3187 9.6397 34.1773 9.79229C34.171 9.79714 34.1659 9.8035 34.1623 9.81087C34.1587 9.81823 34.1567 9.8264 34.1565 9.83474C34.1565 9.84843 34.1691 9.8587 34.1703 9.87171C34.1707 9.8844 34.1664 9.89671 34.1584 9.90595C34.0735 10.0203 33.9729 10.1199 33.8602 10.201C33.7001 10.3311 33.5436 10.4662 33.3907 10.6064C33.2949 10.6803 33.2191 10.7808 33.1713 10.8974C33.1379 11.0326 33.1516 11.1764 33.2098 11.3013C33.3144 11.569 33.4978 11.7909 33.6793 12.0052C33.7091 12.0493 33.7514 12.0815 33.7997 12.0969C33.8381 12.1027 33.8771 12.0924 33.9088 12.0682C34.0203 11.9887 34.0386 11.8244 34.0468 11.6806C34.0499 11.6122 34.0537 11.5492 34.0575 11.4834C34.0572 11.4703 34.0596 11.4572 34.0644 11.4451C34.0741 11.4302 34.0874 11.4185 34.1029 11.4116L34.2762 11.3123C34.2712 11.3034 34.2655 11.2945 34.2598 11.2856C34.3906 11.2323 34.5329 11.2223 34.6689 11.2568C34.7609 11.2863 34.8454 11.3458 34.9336 11.3828C34.9196 11.5106 34.9416 11.64 34.9966 11.7539C35.32 11.7902 35.6112 11.9463 35.9005 12.1038C36.1337 12.2293 36.3606 12.3685 36.58 12.5207C36.7581 12.6467 36.9325 12.7784 37.1031 12.9158C37.3451 13.1102 37.579 13.3163 37.8103 13.5245C37.9607 13.6686 38.1224 13.7981 38.2937 13.9113C38.7488 14.1886 39.3589 14.1982 39.7768 13.8524C40.3038 13.4163 40.9744 13.1897 41.5417 12.8124C41.7102 12.71 41.8641 12.5816 41.9986 12.431C41.9974 12.4488 41.9949 12.4664 41.9911 12.4838C41.957 12.6543 41.8215 12.7775 41.7705 12.95C41.7307 13.087 41.7452 13.2451 41.6683 13.3608C41.6097 13.4492 41.5001 13.5122 41.4969 13.621C41.4969 13.6511 41.5051 13.6813 41.5051 13.7114C41.5019 13.7495 41.4916 13.7866 41.4748 13.8203C41.4118 13.9743 41.3412 14.1359 41.212 14.2311C41.1616 14.2687 41.0973 14.303 41.086 14.368C41.0852 14.3869 41.0807 14.4053 41.0727 14.4221C41.0513 14.4543 41.004 14.4372 40.97 14.4508C40.9227 14.47 40.9151 14.5364 40.8962 14.5878C40.8789 14.6304 40.8497 14.6661 40.8127 14.6897C40.7757 14.7133 40.7328 14.7236 40.6901 14.7192C40.2596 14.6624 39.8367 14.874 39.4031 14.8617C39.2537 14.8569 39.1049 14.8404 38.9549 14.8391C38.4948 14.835 38.0441 14.976 37.601 15.1129C37.5516 15.2077 37.5212 15.3127 37.5115 15.421C37.3601 15.4633 37.2022 15.4698 37.0483 15.4402C37.01 15.432 36.9712 15.4263 36.9323 15.4231C36.9434 15.3922 36.9469 15.3587 36.9424 15.3259C36.7613 15.3882 36.5873 15.4725 36.4236 15.5771C36.3159 15.6456 36.2018 15.7415 36.1917 15.8764C36.1902 15.9284 36.197 15.9802 36.2119 16.0297L36.2705 16.2714C36.2777 16.3162 36.2957 16.358 36.3228 16.3926C36.3423 16.4131 36.3682 16.4255 36.3858 16.4474C36.403 16.4733 36.4146 16.503 36.4199 16.5343L36.469 16.7438C36.4874 16.8135 36.5004 16.8848 36.5081 16.9568C36.5138 17.0252 36.5081 17.0882 36.5125 17.154C36.5191 17.2623 36.5337 17.3699 36.556 17.4758L36.626 17.8551C36.6416 17.9611 36.6694 18.0646 36.7085 18.1632C36.7382 18.2316 36.7779 18.2905 36.8018 18.359C36.8207 18.4117 36.8296 18.4679 36.8522 18.5178C36.8931 18.599 36.9573 18.6635 37.035 18.7013C37.0621 18.7187 37.0925 18.729 37.1239 18.7315C37.2134 18.7315 37.2777 18.6411 37.3193 18.5548C37.4022 18.398 37.4471 18.2208 37.4498 18.0399C37.4498 17.9674 37.4365 17.8955 37.4309 17.8229C37.4157 17.6175 37.4699 17.4176 37.4699 17.2128C37.472 17.1854 37.4653 17.158 37.4509 17.1353C37.4366 17.1126 37.4155 17.096 37.3911 17.0882C37.3968 16.9143 37.3962 16.7301 37.4806 16.5816C37.5225 16.5124 37.5745 16.4512 37.6344 16.4001C37.6578 16.4809 37.6836 16.561 37.7126 16.6391C38.1923 16.4871 38.6877 16.3406 39.19 16.3269ZM49.438 5.81225C49.404 5.82594 49.3693 5.83963 49.334 5.85196C49.0403 5.95808 48.7037 6.06147 48.3999 5.98889C48.3079 5.96003 48.2212 5.91367 48.144 5.85196L48.122 5.8369C48.5499 5.75542 48.9968 5.77527 49.438 5.81225Z" fill="url(#paint0_linear)"/>
<path d="M51.1436 5.10771C51.2497 5.05831 51.363 5.0298 51.4783 5.02349C51.5523 5.02959 51.625 5.04783 51.6939 5.07758C51.8184 5.11706 51.9348 5.18214 52.0368 5.26929C52.0872 5.31352 52.1272 5.37007 52.1536 5.43434C52.18 5.4986 52.192 5.56874 52.1887 5.63902C52.1742 5.77595 52.0809 5.8944 51.9788 5.98136C51.8402 6.10501 51.6688 6.17702 51.4897 6.18676C51.2892 6.19018 51.1001 6.09228 50.9066 6.03408C50.7659 5.99083 50.6205 5.96781 50.4743 5.96561C50.4006 5.96992 50.3268 5.96487 50.2543 5.95055C50.2179 5.94309 50.1837 5.92644 50.1543 5.90194C50.125 5.87743 50.1014 5.84577 50.0854 5.8095C50.0671 5.74247 50.0671 5.67113 50.0854 5.6041C50.0999 5.5192 50.0973 5.3179 50.1667 5.26724C50.2221 5.22616 50.4188 5.25902 50.4869 5.25286C50.7099 5.2299 50.9301 5.18124 51.1436 5.10771Z" fill="#FBBEBE"/>
<path d="M46.644 3.72945C46.835 3.93229 46.9993 4.16267 47.1325 4.41413C47.3544 4.83453 47.4956 5.32339 47.8296 5.64656C47.9184 5.72772 48.0126 5.80164 48.1114 5.86771C48.1886 5.92938 48.2752 5.97574 48.3673 6.00465C48.6673 6.07791 49.0039 5.97589 49.2963 5.86771C49.5858 5.75484 49.8668 5.61748 50.1365 5.4569C50.1384 5.58918 50.1723 5.71859 50.2348 5.83211C50.3048 5.9396 50.4479 6.00259 50.55 5.93481C50.2914 6.06682 50.0475 6.23062 49.8233 6.42299C49.7369 6.50241 49.6569 6.59005 49.5648 6.66194C49.2327 6.92143 48.7732 6.94745 48.4662 7.24186C48.4207 7.28693 48.3634 7.31545 48.3023 7.32343C48.2412 7.3314 48.1793 7.31845 48.1252 7.28637C48.0187 7.2179 47.9462 7.10013 47.8586 7.00496C47.6859 6.81736 47.4514 6.70781 47.2819 6.51679C47.2031 6.42846 47.1401 6.32371 47.0594 6.23744C46.9441 6.11419 46.794 6.03203 46.6882 5.8951C46.6094 5.79445 46.5621 5.67189 46.4884 5.5644C46.4253 5.47128 46.3509 5.3898 46.2948 5.29052C46.1574 5.05294 46.1587 4.74278 46.2375 4.47644C46.3163 4.2101 46.4972 3.96156 46.644 3.72945Z" fill="#F86D70"/>
<path opacity="0.1" d="M46.644 3.72945C46.835 3.93229 46.9993 4.16267 47.1325 4.41413C47.3544 4.83453 47.4956 5.32339 47.8296 5.64656C47.9184 5.72772 48.0126 5.80164 48.1114 5.86771C48.1886 5.92938 48.2752 5.97574 48.3673 6.00465C48.6673 6.07791 49.0039 5.97589 49.2963 5.86771C49.5858 5.75484 49.8668 5.61748 50.1365 5.4569C50.1384 5.58918 50.1723 5.71859 50.2348 5.83211C50.3048 5.9396 50.4479 6.00259 50.55 5.93481C50.2914 6.06682 50.0475 6.23062 49.8233 6.42299C49.7369 6.50241 49.6569 6.59005 49.5648 6.66194C49.2327 6.92143 48.7732 6.94745 48.4662 7.24186C48.4207 7.28693 48.3634 7.31545 48.3023 7.32343C48.2412 7.3314 48.1793 7.31845 48.1252 7.28637C48.0187 7.2179 47.9462 7.10013 47.8586 7.00496C47.6859 6.81736 47.4514 6.70781 47.2819 6.51679C47.2031 6.42846 47.1401 6.32371 47.0594 6.23744C46.9441 6.11419 46.794 6.03203 46.6882 5.8951C46.6094 5.79445 46.5621 5.67189 46.4884 5.5644C46.4253 5.47128 46.3509 5.3898 46.2948 5.29052C46.1574 5.05294 46.1587 4.74278 46.2375 4.47644C46.3163 4.2101 46.4972 3.96156 46.644 3.72945Z" fill="black"/>
<path d="M35.4417 10.0525C35.3928 9.98285 35.3326 9.92366 35.2639 9.87787C35.1596 9.82761 35.0433 9.81466 34.9318 9.8409C34.6507 9.88746 34.3897 10.0271 34.1426 10.1832C33.9435 10.3072 33.7456 10.4448 33.6031 10.6399C33.5562 10.6987 33.5235 10.7693 33.5079 10.8453C33.4998 10.908 33.5048 10.9719 33.5224 11.0322C33.5351 11.1002 33.562 11.164 33.601 11.2189C33.64 11.2738 33.6901 11.3181 33.7474 11.3486C33.8792 11.4047 34.026 11.3451 34.1584 11.2904C34.3361 11.2157 34.5315 11.1466 34.7143 11.2055C34.8498 11.2493 34.9664 11.3609 35.1095 11.365C35.2778 11.3705 35.4139 11.2226 35.5211 11.0815C35.6137 10.9583 35.8167 10.7358 35.8035 10.5625C35.7902 10.3893 35.5413 10.1764 35.4417 10.0525Z" fill="#FBBEBE"/>
<path d="M37.5658 15.3813C37.4115 15.426 37.2501 15.4332 37.093 15.4026C36.9972 15.3834 36.88 15.3587 36.8189 15.4402C36.7992 15.4704 36.786 15.5051 36.7804 15.5415C36.6235 16.2392 36.7672 16.9794 37.0325 17.6401C37.0359 17.6512 37.042 17.6612 37.0502 17.6688C37.0672 17.6825 37.0905 17.673 37.1101 17.6641C37.1743 17.636 37.2343 17.598 37.2884 17.5511C37.4094 17.4319 37.4353 17.2382 37.441 17.0608C37.4466 16.8835 37.4441 16.6959 37.5286 16.5439C37.6345 16.3556 37.8557 16.2639 37.9427 16.0646C38.0127 15.9024 37.9761 15.71 37.9143 15.5443C37.8935 15.4868 37.8853 15.3389 37.8362 15.3108C37.787 15.2827 37.6219 15.3649 37.5658 15.3813Z" fill="#FBBEBE"/>
<path d="M35.4234 9.98263C35.4374 9.9742 35.4479 9.96032 35.4528 9.9438C35.4577 9.92727 35.4567 9.90933 35.4499 9.89362C35.4363 9.86232 35.4165 9.83471 35.3919 9.81283C35.3369 9.75519 35.2867 9.69241 35.2419 9.62522C35.1924 9.54213 35.1369 9.46338 35.0761 9.38969C35.0452 9.35311 35.0071 9.32452 34.9647 9.30603C34.9222 9.28755 34.8765 9.27964 34.8309 9.28288C34.7803 9.29273 34.732 9.3137 34.6891 9.3445C34.5176 9.45245 34.3598 9.58409 34.2195 9.73614C34.2088 9.74778 34.1968 9.76216 34.1993 9.77859C34.2019 9.79502 34.212 9.80187 34.2132 9.81556C34.2136 9.82793 34.2096 9.83998 34.2019 9.84911C34.1177 9.96304 34.0177 10.0621 33.9056 10.1428C33.7468 10.2725 33.5913 10.4071 33.4392 10.5468C33.3441 10.6203 33.2689 10.7204 33.2218 10.8364C33.1895 10.9716 33.2036 11.115 33.2615 11.2397C33.3667 11.5081 33.5501 11.7299 33.731 11.9456C33.7613 11.9896 33.8037 12.022 33.8521 12.038C33.8902 12.0437 33.929 12.0334 33.9605 12.0093C34.0708 11.9305 34.0865 11.7662 34.096 11.6231L34.1061 11.4252C34.1058 11.4123 34.1082 11.3994 34.113 11.3876C34.1225 11.3725 34.1359 11.3609 34.1514 11.354L34.3229 11.2554C34.2705 11.1628 34.1959 11.0874 34.107 11.0372C34.0182 10.9871 33.9186 10.9641 33.8186 10.9706C33.773 10.9824 33.7249 10.9753 33.6838 10.9508C33.6639 10.9283 33.6528 10.8984 33.6528 10.8672C33.6528 10.8361 33.6639 10.8061 33.6838 10.7837C33.7255 10.7406 33.7767 10.7097 33.8325 10.694C34.2844 10.5139 34.6929 10.225 35.1316 10.0093C35.1796 9.98291 35.2328 9.96952 35.2866 9.9703C35.3307 9.97373 35.3824 10.0018 35.4234 9.98263Z" fill="#F86D70"/>
<path d="M37.2039 17.1526C37.1837 17.1937 37.1768 17.2416 37.1547 17.282C37.1327 17.3224 37.0848 17.3505 37.0476 17.3299C37.028 17.315 37.0134 17.2937 37.006 17.269C36.8148 16.7941 36.761 16.2674 36.8516 15.7586C36.8641 15.6754 36.8868 15.5943 36.919 15.5176C36.9524 15.4436 37.0009 15.3683 36.9871 15.2875C36.8071 15.3492 36.6341 15.4328 36.4715 15.5368C36.3643 15.6052 36.2515 15.7004 36.2414 15.8346C36.2405 15.8866 36.2475 15.9384 36.2622 15.988L36.3215 16.2296C36.3286 16.2745 36.3469 16.3164 36.3744 16.3508C36.3933 16.3714 36.4192 16.3844 36.4374 16.4063C36.4548 16.4318 36.4664 16.4613 36.4715 16.4926L36.5213 16.7021C36.5398 16.772 36.5531 16.8434 36.561 16.9157C36.5667 16.9842 36.561 17.0472 36.566 17.1129C36.5732 17.221 36.5879 17.3283 36.6101 17.434L36.6814 17.8133C36.6974 17.9193 36.7254 18.0228 36.7646 18.1214C36.7942 18.1899 36.8339 18.2488 36.8585 18.3179C36.8768 18.3706 36.8862 18.4268 36.9089 18.4768C36.9499 18.5578 37.0137 18.6224 37.0911 18.6609C37.1182 18.6782 37.1486 18.6887 37.1799 18.6918C37.2688 18.6952 37.3325 18.6014 37.3741 18.5151C37.4553 18.3583 37.4987 18.1816 37.5001 18.0016C37.5001 17.929 37.4863 17.8571 37.4806 17.7846C37.4648 17.5792 37.5178 17.3799 37.5171 17.1752C37.5184 16.9835 37.2688 17.0198 37.2039 17.1526Z" fill="#F86D70"/>
<path d="M46.4517 5.22342C46.2553 5.12526 46.0826 4.97874 45.9474 4.7955C45.8779 4.69888 45.8147 4.59706 45.7583 4.49081C45.519 4.05195 45.3134 3.59233 45.1438 3.11666C45.4123 3.17623 45.694 3.23032 45.9581 3.14816C46.0959 3.10255 46.2243 3.02864 46.3363 2.93043C46.4799 2.80217 46.6132 2.66084 46.7347 2.50798C46.8265 2.69916 46.9319 2.88229 47.0498 3.05572C47.1173 3.15432 47.3454 3.35493 47.3284 3.48913C47.3114 3.62332 47.0593 3.69042 46.9572 3.7541L46.9464 3.76163C46.7959 3.86502 46.6644 3.99808 46.5588 4.15395C46.3609 4.45932 46.2922 4.88519 46.4517 5.22342Z" fill="#FBBEBE"/>
<path opacity="0.1" d="M46.9623 3.75136C46.8108 3.67055 46.6769 3.5554 46.5698 3.41367C46.4628 3.27194 46.3849 3.10693 46.3414 2.92974C46.485 2.80148 46.6183 2.66016 46.7398 2.50729C46.8316 2.69847 46.937 2.8816 47.0549 3.05504C47.1224 3.15363 47.3506 3.35424 47.3335 3.48844C47.3165 3.62264 47.0644 3.68768 46.9623 3.75136Z" fill="black"/>
<path d="M47.5294 3.85201C48.1814 3.85201 48.71 3.27786 48.71 2.56961C48.71 1.86135 48.1814 1.2872 47.5294 1.2872C46.8774 1.2872 46.3489 1.86135 46.3489 2.56961C46.3489 3.27786 46.8774 3.85201 47.5294 3.85201Z" fill="#FBBEBE"/>
<path d="M44.9472 10.5578C44.8655 10.611 44.7725 10.6403 44.6772 10.6428C44.582 10.6453 44.4878 10.621 44.4038 10.5721C44.3164 10.5136 44.2374 10.4414 44.1694 10.3578C43.7817 9.9258 43.413 9.46775 43.154 8.93165C43.0937 8.81853 43.0547 8.69356 43.0392 8.56397C43.032 8.49921 43.0392 8.4335 43.0604 8.37245C43.0816 8.3114 43.1161 8.25684 43.1609 8.21342C43.185 8.19611 43.2063 8.17459 43.2239 8.14974C43.2391 8.11324 43.2462 8.07338 43.2447 8.03335C43.2517 7.96505 43.2764 7.90031 43.3159 7.84663C43.3554 7.79294 43.4081 7.75252 43.4679 7.73003C43.4048 7.68348 43.43 7.58009 43.471 7.51368C43.512 7.44726 43.5693 7.37674 43.5592 7.30006C43.5431 7.24891 43.5237 7.19904 43.5013 7.1508C43.4786 7.06726 43.5195 6.981 43.5416 6.89746C43.5876 6.72629 43.5599 6.54417 43.5485 6.36615C43.5151 5.83895 43.633 5.31585 43.7496 4.80303C43.8012 4.54262 43.8755 4.28814 43.9715 4.04303C44.0011 3.97457 44.0345 3.9061 44.0685 3.84516C44.1876 3.63563 44.3201 3.43544 44.465 3.24607C44.5328 3.13466 44.626 3.04411 44.7354 2.98315C44.7456 2.97833 44.7562 2.97421 44.7669 2.97083C44.8454 2.94879 44.927 2.94207 45.0077 2.95097C45.2207 2.96535 45.4445 3.01944 45.5964 3.18239C45.7483 3.34535 45.7974 3.57403 45.8661 3.7945C45.888 3.86828 45.9145 3.94035 45.9456 4.01017C46.0458 4.22653 46.209 4.39907 46.3697 4.56681L46.5443 4.74962C46.6319 4.84137 46.7838 4.81809 46.8664 4.91463C46.9 4.96 46.9251 5.01212 46.9402 5.068C47.0334 5.31496 47.0877 5.5772 47.1009 5.84374C47.1015 5.90302 47.0984 5.96227 47.0914 6.02107C47.0701 6.22743 46.986 6.42016 46.8525 6.56882C46.7013 6.72698 46.4908 6.80503 46.3401 6.96388C46.2141 7.09534 46.1409 7.2713 46.0691 7.44315C45.9304 7.77454 45.7915 8.10638 45.6525 8.43868C45.5518 8.66605 45.4652 8.90051 45.3934 9.14047C45.2623 9.61907 45.3367 10.2942 44.9472 10.5578Z" fill="#F86D70"/>
<path d="M41.3073 16.1995C40.9959 16.2132 40.6839 16.2091 40.3738 16.2413C40.1929 16.2605 40.0126 16.2926 39.8311 16.3009C39.6332 16.3104 39.4347 16.2933 39.2361 16.2974C38.7363 16.3091 38.2434 16.4535 37.7625 16.6028C37.6267 16.2426 37.5559 15.8575 37.5539 15.4683C37.5526 15.4425 37.5526 15.4167 37.5539 15.3909C37.5626 15.2807 37.5929 15.1738 37.6427 15.0773C38.0839 14.9404 38.5314 14.8035 38.9897 14.8103C39.139 14.8103 39.2872 14.8295 39.4359 14.8343C39.8677 14.8486 40.2875 14.6384 40.7161 14.6973C40.7585 14.7019 40.8013 14.6917 40.8381 14.6682C40.8749 14.6447 40.9039 14.6091 40.9209 14.5666C40.9392 14.5159 40.9467 14.4495 40.994 14.4296C41.0281 14.4159 41.0747 14.433 41.0961 14.4015C41.1038 14.3846 41.1082 14.3663 41.1094 14.3475C41.122 14.279 41.1856 14.2482 41.2354 14.2105C41.3615 14.116 41.4327 13.9545 41.4957 13.7997C41.5123 13.7662 41.5224 13.7294 41.5254 13.6915C41.5254 13.6614 41.5165 13.6313 41.5172 13.6005C41.5172 13.4923 41.6287 13.43 41.6867 13.3417C41.763 13.2253 41.7497 13.0678 41.7869 12.9309C41.8374 12.7583 41.9716 12.6358 42.005 12.466C42.0088 12.4486 42.0113 12.431 42.0126 12.4132C41.8789 12.563 41.7258 12.6908 41.5581 12.7926C40.9984 13.1671 40.3291 13.391 39.8065 13.8244C39.3918 14.1667 38.7842 14.1564 38.3304 13.8778C38.1593 13.764 37.9977 13.6341 37.8476 13.4896C37.6169 13.2842 37.3837 13.074 37.1423 12.8781C36.9742 12.7412 36.8 12.6091 36.6198 12.4817C36.4015 12.3249 36.1755 12.1811 35.9428 12.051C35.6541 11.8922 35.3636 11.7347 35.0421 11.6971C35.0008 11.6054 34.9779 11.5053 34.9748 11.4033C34.9718 11.3014 34.9887 11.1998 35.0245 11.1055C35.0979 10.9178 35.1974 10.7435 35.3194 10.5886C35.4108 10.443 35.5252 10.3162 35.6573 10.214C35.672 10.2039 35.689 10.1986 35.7065 10.1986C35.7239 10.1986 35.7409 10.2039 35.7556 10.214L37.0049 11.0473L37.2387 11.2027C37.7511 11.5451 38.2554 11.9114 38.7678 12.2517C38.7773 12.2907 38.8271 12.2955 38.863 12.2852C38.8989 12.2749 38.9399 12.2585 38.9708 12.2811C38.9859 12.2921 38.9966 12.3126 39.0155 12.3167C39.0306 12.3172 39.0454 12.3119 39.0571 12.3016C39.2689 12.1435 39.3773 11.8395 39.6149 11.7334C39.7164 11.6882 39.8368 11.6813 39.9162 11.5964C39.9632 11.5317 40.0053 11.463 40.0423 11.391C40.145 11.2452 40.3398 11.2014 40.4349 11.0487C40.498 10.9498 40.5738 10.8612 40.66 10.7858C40.8316 10.6339 40.9805 10.454 41.1012 10.2524C41.1635 10.1529 41.2121 10.044 41.2455 9.92922C41.2619 9.86965 41.272 9.80803 41.2903 9.74915C41.3476 9.56976 41.4793 9.43214 41.6111 9.30753C41.85 9.08022 42.1077 8.86454 42.4103 8.75979C42.5158 8.73325 42.618 8.69302 42.7147 8.63997C42.8364 8.55918 42.9479 8.40923 43.0872 8.44415C43.1401 8.46194 43.1877 8.49452 43.2253 8.53864C43.3961 8.71914 43.5532 8.91446 43.6948 9.12267C43.9196 9.43351 44.1442 9.74459 44.3686 10.0559C44.4394 10.1678 44.529 10.2642 44.6327 10.34C44.7832 10.4241 44.956 10.4484 45.1212 10.4085C45.0991 10.6625 44.9132 10.872 44.8363 11.113C44.7991 11.2301 44.7846 11.3547 44.7569 11.4745C44.7178 11.6249 44.6679 11.7716 44.6075 11.9134C44.4562 12.2962 44.3037 12.6809 44.0869 13.0247C43.9747 13.2034 43.8455 13.367 43.7188 13.5347C43.219 14.19 42.8364 14.9801 42.2691 15.5696C42.1317 15.7141 42.0447 15.912 41.8909 16.0359C41.7239 16.1701 41.5083 16.1906 41.3073 16.1995Z" fill="#434175"/>
<path opacity="0.1" d="M43.6822 7.51231C43.6266 7.51525 43.5726 7.53288 43.5247 7.56365C43.64 7.51984 43.7806 7.63691 43.8871 7.58146C43.9369 7.55544 43.9293 7.54791 43.8871 7.53216C43.8234 7.50888 43.7465 7.53011 43.6822 7.51231Z" fill="black"/>
<path d="M63.5809 30.1381L58.948 31.9252L59.2433 32.8285L63.8762 31.0414L63.5809 30.1381Z" fill="#D0D2D5"/>
<path d="M60.4978 33.7983L64.7149 32.1716C64.8252 32.1291 64.9465 32.1359 65.0522 32.1905C65.1579 32.2451 65.2392 32.3431 65.2784 32.4629C65.3175 32.5827 65.3113 32.7144 65.261 32.8292C65.2107 32.944 65.1205 33.0324 65.0102 33.0749L60.7931 34.7016L60.4978 33.7983Z" fill="#D0D2D5"/>
<path d="M56.4802 30.9885L57.5077 30.5921C58.4214 30.2397 59.4265 30.2959 60.302 30.7485C61.1775 31.2011 61.8516 32.013 62.176 33.0054L62.5409 34.1217C62.6678 34.5098 62.6475 34.9367 62.4846 35.3086C62.3217 35.6805 62.0294 35.9668 61.6721 36.1046L58.5467 37.3102C58.1894 37.448 57.7964 37.426 57.4541 37.2491C57.1117 37.0721 56.8481 36.7546 56.7213 36.3665L55.6114 32.9714C55.4845 32.5833 55.5048 32.1564 55.6677 31.7845C55.8306 31.4126 56.1229 31.1263 56.4802 30.9885Z" fill="#3F3D56"/>
<path opacity="0.1" d="M43.6254 8.18055C43.5827 8.16427 43.5367 8.16118 43.4924 8.17165C43.4264 8.17926 43.365 8.212 43.3191 8.26408C43.3313 8.27003 43.3445 8.27311 43.3579 8.27311C43.3712 8.27311 43.3844 8.27003 43.3966 8.26408C43.4378 8.25273 43.4802 8.24767 43.5227 8.24902C43.5593 8.24902 43.6683 8.29284 43.6967 8.27366C43.7383 8.24422 43.6538 8.19219 43.6254 8.18055Z" fill="black"/>
<path opacity="0.1" d="M47.0914 6.02107C46.9965 5.98622 46.9059 5.93885 46.8217 5.88003C46.6004 5.72734 46.4145 5.51989 46.1958 5.36378C46.0853 5.2884 45.9711 5.21983 45.8535 5.15837L45.1154 4.74757C45.0592 4.71279 44.999 4.6861 44.9364 4.66814C44.8161 4.63939 44.6805 4.72703 44.5583 4.70854C44.4949 4.69589 44.4347 4.66878 44.3817 4.62901C44.3287 4.58923 44.284 4.5377 44.2507 4.4778C44.184 4.35814 44.1371 4.22677 44.112 4.08959C44.0932 4.0087 44.0791 3.9266 44.0698 3.84379C44.0588 3.75779 44.0574 3.67068 44.0654 3.5843C44.078 3.41274 44.1528 3.25364 44.2734 3.14199C44.3609 3.07448 44.4605 3.02782 44.5658 3.00506C44.6322 2.98682 44.6999 2.97468 44.7681 2.96877C44.807 2.96535 44.846 2.96535 44.8848 2.96877C45.1633 2.99273 45.3991 3.19814 45.585 3.42408C45.6827 3.54322 45.7741 3.67125 45.8674 3.79244C45.8893 3.86623 45.9158 3.93829 45.9468 4.00811C46.047 4.22447 46.2103 4.39701 46.371 4.56476L46.5456 4.74757C46.6332 4.83931 46.7851 4.81603 46.8677 4.91257C46.9013 4.95794 46.9263 5.01006 46.9414 5.06594C47.0344 5.31363 47.0884 5.57658 47.1009 5.84374C47.1015 5.90302 47.0983 5.96227 47.0914 6.02107Z" fill="black"/>
<path opacity="0.1" d="M41.3513 14.7836L37.5531 15.3909C37.5619 15.2807 37.5922 15.1738 37.642 15.0773C38.0832 14.9404 38.5307 14.8035 38.9889 14.8103C39.1383 14.8103 39.2864 14.8295 39.4352 14.8343C39.8669 14.8487 40.2867 14.6385 40.7153 14.6973C40.7578 14.7019 40.8005 14.6917 40.8373 14.6682C40.8741 14.6447 40.9031 14.6091 40.9201 14.5666C40.9384 14.5159 40.946 14.4495 40.9933 14.4296C41.0273 14.4159 41.0739 14.4331 41.0954 14.4016C41.103 14.3846 41.1075 14.3663 41.1086 14.3475C41.1212 14.279 41.1849 14.2482 41.2347 14.2105C41.3607 14.116 41.432 13.9545 41.495 13.7997C41.5115 13.7662 41.5216 13.7294 41.5246 13.6915C41.5246 13.6614 41.5158 13.6313 41.5164 13.6005C41.5164 13.4923 41.628 13.43 41.686 13.3417C41.7622 13.2253 41.749 13.0678 41.7862 12.9309C41.8366 12.7583 41.9709 12.6358 42.0043 12.466L42.0206 12.4427L42.6673 12.1688L41.3513 14.7836Z" fill="black"/>
<path opacity="0.1" d="M26.7877 48.0419C41.5821 48.0419 53.5753 47.0303 53.5753 45.7825C53.5753 44.5346 41.5821 43.523 26.7877 43.523C11.9932 43.523 0 44.5346 0 45.7825C0 47.0303 11.9932 48.0419 26.7877 48.0419Z" fill="#3993F3"/>
<path opacity="0.1" d="M50.4692 54C60.0421 54 67.8024 52.9035 67.8024 51.5509C67.8024 50.1983 60.0421 49.1018 50.4692 49.1018C40.8963 49.1018 33.136 50.1983 33.136 51.5509C33.136 52.9035 40.8963 54 50.4692 54Z" fill="#3993F3"/>
<path d="M29.955 43.953L29.9726 42.9835C30.813 42.9315 31.6534 42.8968 32.4938 42.8794C32.9816 42.8698 33.4758 42.8664 33.9479 42.9992C34.275 43.0917 34.5845 43.2478 34.9072 43.3573C35.5501 43.5751 36.2308 43.6038 36.9059 43.6237C37.5608 43.6435 38.2446 43.6504 38.8327 43.3361C39.8506 42.7884 40.2786 41.443 40.3284 40.2112C40.3782 38.9795 40.1525 37.7382 40.3095 36.514" stroke="#3F3D56" stroke-width="12" stroke-miterlimit="10"/>
<path d="M32.2592 45.8503L21.028 45.6942L21.0607 45.3813L21.604 40.2195H31.4669L32.1931 45.3813L32.2485 45.7722L32.2592 45.8503Z" fill="#D0D2D5"/>
<path opacity="0.1" d="M32.2485 45.7722H26.6433L21.028 45.6942L21.0607 45.3813H32.1931L32.2485 45.7722Z" fill="black"/>
<path d="M34.0594 45.4593H19.156V45.8503H34.0594V45.4593Z" fill="#D0D2D5"/>
<path d="M48.2783 9.21716C48.2794 9.08311 48.2561 8.95015 48.2097 8.82591C48.1634 8.70167 48.0949 8.5886 48.0082 8.49318C47.9216 8.39775 47.8184 8.32186 47.7047 8.26986C47.5909 8.21786 47.4689 8.19077 47.3455 8.19014H5.7256C5.60222 8.19086 5.48018 8.21801 5.36648 8.27004C5.25278 8.32208 5.14964 8.39797 5.06299 8.49338C4.97633 8.58878 4.90786 8.70182 4.86149 8.82602C4.81511 8.95022 4.79176 9.08314 4.79276 9.21716V36.6222H48.2783V9.21716Z" fill="#3F3D56"/>
<path d="M4.79285 36.3483V39.5587C4.79285 39.8275 4.89113 40.0852 5.06607 40.2753C5.24101 40.4653 5.47828 40.5721 5.72569 40.5721H47.3455C47.5929 40.5721 47.8302 40.4653 48.0052 40.2753C48.1801 40.0852 48.2784 39.8275 48.2784 39.5587V36.3483H4.79285Z" fill="#D0D2D5"/>
<path d="M46.6944 9.91416H6.5929V34.5496H46.6944V9.91416Z" fill="#2F2E41"/>
<path d="M26.7518 39.354C26.899 39.354 27.0443 39.3178 27.1767 39.2479C27.3092 39.178 27.4253 39.0764 27.5163 38.9507C27.5441 38.9123 27.5694 38.8718 27.592 38.8296L27.0587 38.7344L27.6354 38.7392C27.6908 38.6084 27.7209 38.4668 27.7241 38.3229C27.7272 38.179 27.7033 38.036 27.6537 37.9025L26.8803 38.3386L27.5938 37.769C27.528 37.6415 27.4385 37.5302 27.331 37.4422C27.2236 37.3542 27.1004 37.2914 26.9694 37.2578C26.8385 37.2242 26.7025 37.2205 26.5701 37.247C26.4377 37.2735 26.3119 37.3295 26.2005 37.4116C26.0891 37.4937 25.9946 37.6 25.923 37.7238C25.8515 37.8476 25.8043 37.9862 25.7846 38.1308C25.7649 38.2755 25.7731 38.423 25.8086 38.564C25.8442 38.705 25.9063 38.8365 25.991 38.9501C26.0815 39.0755 26.1969 39.1769 26.3287 39.2469C26.4605 39.3169 26.6051 39.3535 26.7518 39.354Z" fill="#3993F3"/>
<path opacity="0.1" d="M27.7236 40.5714L32.2044 45.4593L31.5168 40.5714H27.7236Z" fill="black"/>
<path d="M46.9684 9.71355L49.3749 6.24975C49.5186 6.04435 49.6668 5.83004 49.864 5.68215C50.4313 5.25628 51.2627 5.50825 51.7373 6.05393C52.2119 6.59962 52.4111 7.35893 52.5567 8.09291C52.8958 9.78229 53.0473 11.5097 53.008 13.2383C52.9878 14.1482 52.9128 15.0677 52.6462 15.9311C52.2415 17.2443 51.4215 18.3501 50.8019 19.5599C49.8042 21.5092 49.3863 24.1089 50.6494 25.8679C51.061 26.441 51.6213 26.8791 52.0014 27.4776C52.4306 28.1533 52.5976 28.9797 52.7577 29.7822C52.9966 30.9941 53.2361 32.2135 53.2802 33.4521C53.4227 37.4568 51.3207 41.458 48.0746 43.3628C45.8213 44.6856 43.0953 45.069 41.1357 46.8629C40.4423 47.4949 39.8448 48.424 40.015 49.3866C40.1537 50.1678 40.7852 50.7615 41.4785 51.0196C42.1719 51.2777 42.9238 51.2565 43.655 51.2113C45.4111 51.1022 47.1587 50.8678 48.8864 50.5095C50.3506 50.2055 51.8123 49.9433 53.0886 49.1066C53.2165 49.0331 53.3258 48.9266 53.4069 48.7964C53.4895 48.6465 53.5034 48.465 53.5147 48.2905C53.5494 47.7763 53.5822 47.2429 53.4151 46.7602C53.2204 46.196 52.776 45.7688 52.563 45.2128C52.3499 44.6569 52.3884 44.0167 52.5264 43.4326C52.6966 42.711 53.0061 42.0386 53.3174 41.3752C53.6206 40.7289 53.9282 40.0846 54.2849 39.4718C55.2896 37.7491 56.6624 36.3222 58.0207 34.9152" stroke="#3F3D56" stroke-width="12" stroke-miterlimit="10"/>
<path d="M50.9509 4.74826C51.0568 4.69822 51.1702 4.66967 51.2856 4.66404C51.3595 4.67028 51.4321 4.68827 51.5011 4.71745C51.6257 4.75716 51.7421 4.82247 51.844 4.90984C51.8945 4.95399 51.9346 5.01054 51.961 5.07482C51.9874 5.1391 51.9994 5.20927 51.9959 5.27957C51.9814 5.4165 51.8881 5.53427 51.786 5.62191C51.6476 5.74577 51.4761 5.81781 51.2969 5.82731C51.0965 5.82731 50.9074 5.73283 50.7139 5.67394C50.5732 5.63069 50.4278 5.60767 50.2815 5.60548C50.2079 5.60956 50.1341 5.60428 50.0616 5.58973C50.0252 5.5824 49.991 5.56587 49.9616 5.54148C49.9323 5.51709 49.9087 5.48554 49.8926 5.44937C49.8753 5.38336 49.8753 5.3134 49.8926 5.24739C49.9078 5.16249 49.9052 4.96051 49.9746 4.90984C50.03 4.86944 50.2267 4.90231 50.2948 4.89615C50.5176 4.87159 50.7375 4.82203 50.9509 4.74826Z" fill="#FBBEBE"/>
<path d="M50.0765 4.81672C49.8155 4.94681 49.5092 4.83863 49.2256 4.83794C49.0863 4.83794 48.9476 4.86328 48.809 4.87218C48.6553 4.87812 48.5014 4.87377 48.3482 4.85917L47.8868 4.82493C47.615 4.81513 47.3449 4.77475 47.0807 4.70443C46.855 4.4155 46.4888 4.28815 46.2166 4.05262C45.9985 3.86364 45.8422 3.6062 45.6562 3.37958C45.4703 3.15295 45.2346 2.94823 44.9566 2.92426C44.849 2.91843 44.7411 2.9309 44.637 2.96124C44.5318 2.98354 44.4323 3.03025 44.3452 3.09817C44.2854 3.15336 44.2362 3.22085 44.2005 3.29675C44.1648 3.37266 44.1433 3.45549 44.1372 3.54048C44.1257 3.71053 44.1413 3.88146 44.1832 4.04577C44.2083 4.18316 44.2552 4.31476 44.3219 4.43467C44.3556 4.49433 44.4005 4.54567 44.4536 4.58541C44.5066 4.62514 44.5668 4.65239 44.6301 4.6654C44.7517 4.68321 44.8866 4.59694 45.0083 4.62432C45.0709 4.64228 45.131 4.66897 45.1873 4.70375L45.926 5.11455C46.0433 5.17615 46.1573 5.24473 46.2676 5.31996C46.487 5.47607 46.6723 5.68352 46.8935 5.83621C47.1147 5.98889 47.3939 6.08474 47.6398 5.98478C48.3961 5.67873 49.2483 5.82114 50.0506 5.89714C50.0456 5.88071 50.0784 5.86565 50.0878 5.85195C50.1871 5.70399 50.2321 5.52115 50.2139 5.33913C50.1944 5.15906 50.1313 4.98926 50.0765 4.81672Z" fill="#F86D70"/>
<path d="M48.8077 2.51003C48.8862 2.4708 48.9521 2.40688 48.9968 2.32654C49.0687 2.18207 49.0246 2.00474 48.9754 1.84726C48.9262 1.68979 48.8764 1.55217 48.8216 1.40701C48.7823 1.28521 48.723 1.17222 48.6464 1.07358C48.5348 0.944172 48.3753 0.879127 48.2424 0.77711C48.0848 0.655922 47.9669 0.484067 47.8339 0.332753C47.7009 0.181439 47.5383 0.0410796 47.3467 0.0157464C47.1991 0.00769178 47.0519 0.0374795 46.9168 0.102701C45.7659 0.562121 44.8249 1.47206 43.7943 2.19371C43.3935 2.47511 42.9434 2.73735 42.4707 2.69969L42.8936 3.42956C43.0014 3.61648 43.1224 3.81435 43.3115 3.89445C43.4785 3.96292 43.6651 3.92869 43.8403 3.89445C43.9798 3.87251 44.1156 3.82821 44.2431 3.763C44.4952 3.61442 44.6572 3.30563 44.9282 3.19814C45.1306 3.11803 45.3562 3.16733 45.5585 3.24401C45.7609 3.32069 45.9594 3.42476 46.1724 3.45626C46.5506 3.51172 46.9288 3.32617 47.244 3.08653C47.433 2.94412 47.6051 2.78048 47.8112 2.67573C47.9663 2.58833 48.1423 2.55464 48.3155 2.57919C48.5064 2.60794 48.6186 2.61753 48.8077 2.51003Z" fill="#2F2E41"/>
<path opacity="0.1" d="M48.9969 2.32654C49.0674 2.18481 49.0258 2.01091 48.9779 1.85822C48.9935 1.9457 48.9824 2.03629 48.9464 2.11635C48.9013 2.19629 48.8355 2.26009 48.7573 2.29984C48.5683 2.40802 48.4535 2.39843 48.2594 2.36352C48.0862 2.33941 47.9103 2.37308 47.7552 2.46006C47.5503 2.56755 47.377 2.73393 47.1879 2.87086C46.8727 3.1105 46.4946 3.29536 46.1164 3.23991C45.9027 3.20909 45.7054 3.10297 45.5025 3.02766C45.2995 2.95234 45.0732 2.90167 44.8722 2.98178C44.6018 3.08928 44.4417 3.39875 44.1877 3.54664C44.0601 3.61176 43.9244 3.65606 43.7849 3.6781C43.6091 3.71507 43.4225 3.75136 43.2561 3.6781C43.067 3.59868 42.946 3.40012 42.8376 3.2132L42.5382 2.69627C42.5142 2.69627 42.4896 2.69627 42.4657 2.69627L42.8886 3.42614C42.9964 3.61306 43.1174 3.81093 43.3065 3.89104C43.4735 3.9595 43.6601 3.92527 43.8353 3.89104C43.9748 3.86909 44.1106 3.82479 44.2381 3.75958C44.4902 3.611 44.6522 3.30221 44.9232 3.19472C45.1256 3.11461 45.3512 3.16391 45.5535 3.24059C45.7559 3.31727 45.9544 3.42135 46.1674 3.45284C46.5456 3.5083 46.9238 3.32275 47.2389 3.08311C47.428 2.9407 47.6001 2.77706 47.8062 2.67231C47.9613 2.58491 48.1372 2.55122 48.3105 2.57577C48.5046 2.61 48.6193 2.61959 48.8078 2.51209C48.8865 2.47231 48.9524 2.40765 48.9969 2.32654Z" fill="black"/>
<path d="M52.2554 49.1607C52.2926 49.0977 52.339 49.0417 52.3928 48.995C52.6683 48.7129 52.7962 48.298 52.8643 47.8913C52.9324 47.4846 52.9519 47.0697 53.061 46.6719C53.1199 46.4678 53.1941 46.2692 53.2828 46.0783C53.3459 45.9317 53.4246 45.6442 53.5406 45.5422C53.5632 45.5208 53.5906 45.5064 53.62 45.5004C53.6742 45.3744 53.7519 45.262 53.8482 45.1704C54.0285 44.993 54.2484 44.852 54.3688 44.6226C54.4018 44.543 54.4426 44.4675 54.4905 44.3974C54.5718 44.2995 54.7004 44.2604 54.7754 44.157C54.8731 44.0242 54.851 43.8346 54.8384 43.6648C54.8258 43.495 54.8384 43.293 54.9733 43.2047C55.054 43.1506 55.158 43.1554 55.2418 43.1081C55.3679 43.0396 55.4177 42.8664 55.4151 42.7124C55.4126 42.5583 55.3685 42.4084 55.3571 42.255C55.3218 41.7648 55.6193 41.2773 55.504 40.8021C55.4605 40.622 55.3616 40.4652 55.2878 40.2982C55.2626 40.2421 55.2415 40.184 55.2248 40.1243C55.0284 40.209 54.8219 40.2632 54.6115 40.2852C54.9588 39.4389 54.8706 38.455 55.0325 37.5465L55.0117 37.515C54.8478 37.281 54.7548 36.9975 54.7458 36.7036C54.7458 36.3613 54.8914 36.0484 54.9569 35.7177C55.0124 35.4356 55.0105 35.1419 55.083 34.8653C55.1337 34.6935 55.2007 34.5278 55.2828 34.3709C55.3616 34.2121 55.4441 34.0566 55.5305 33.9033C55.6112 33.613 55.692 33.3227 55.7731 33.0324C55.8866 32.6216 56.0032 32.2108 56.2238 31.8588C56.3045 31.7294 56.3291 31.4686 56.4532 31.3905C56.5539 31.3335 56.6684 31.3117 56.781 31.3282C56.9562 31.2214 57.11 31.0673 57.1321 30.8565C57.1342 30.8104 57.13 30.7642 57.1195 30.7195H57.098C56.8201 30.6914 56.6801 30.4258 56.5358 30.1937C56.302 29.8164 56.3915 29.307 56.5358 28.8791C56.5716 28.7438 56.6364 28.6197 56.7249 28.5169C56.9272 28.3115 57.2474 28.3567 57.5084 28.2574C57.593 28.2172 57.6794 28.1818 57.7674 28.1513C57.9407 28.1068 58.1223 28.1691 58.2811 28.2554C58.4399 28.3416 58.5881 28.4553 58.7545 28.5238C58.9209 28.5922 59.1263 28.6463 59.1673 28.8319C59.1789 28.8944 59.1739 28.9592 59.1528 29.0188C59.1146 29.1375 59.0475 29.2428 58.9587 29.3235C59.0295 29.4822 59.0678 29.6557 59.071 29.8321C59.0742 30.0085 59.0421 30.1835 58.9769 30.3451C58.9118 30.5067 58.8152 30.651 58.6938 30.7681C58.5723 30.8853 58.429 30.9724 58.2735 31.0235C58.2256 31.1064 58.1809 31.1919 58.1399 31.2789C58.0668 31.4323 58.005 31.613 58.0296 31.7774C58.0754 31.8296 58.1175 31.8854 58.1557 31.9444C58.3366 32.2183 58.4393 32.5401 58.5338 32.8605C58.6614 33.2695 58.7633 33.6874 58.8389 34.1114C58.9927 34.4661 59.1805 34.8057 59.2921 35.1788C59.4918 35.1793 59.6907 35.1506 59.8833 35.0933L60.4153 34.9618C60.6 34.9166 60.7935 34.8673 60.9384 34.7345C61.0153 34.666 61.0752 34.575 61.1534 34.5065C61.2315 34.438 61.3885 34.3593 61.4742 34.4154C61.4899 34.4258 61.5044 34.4379 61.5177 34.4517C61.5952 34.2805 62.0913 34.981 61.7522 35.0501L61.7742 35.1186C61.819 35.2603 61.9141 35.4329 61.8902 35.5807L59.5228 36.4633C59.371 36.5302 59.2099 36.5688 59.0463 36.5776C58.9824 36.5771 58.9189 36.5679 58.8572 36.5503V36.6817V36.6865C58.8509 37.5896 58.9833 38.4872 59.0078 39.3896C59.0122 39.5539 59.0078 39.732 58.912 39.8607C58.8049 40.0017 58.6145 40.0291 58.4488 39.9976C58.4092 39.9907 58.3701 39.9813 58.3315 39.9695C58.2755 40.1965 58.2351 40.4276 58.2105 40.6611L58.0536 41.8771C58.0331 42.0022 58.0249 42.1293 58.029 42.2564C58.0473 42.5426 58.1866 42.8 58.2874 43.065C58.3883 43.33 58.4481 43.647 58.3151 43.8941C58.2742 43.9708 58.2168 44.0365 58.1796 44.116C58.1324 44.2387 58.1108 44.3713 58.1166 44.5042C58.1069 44.8739 58.0977 45.2432 58.0889 45.612C58.1164 45.6077 58.1445 45.614 58.1683 45.6298C58.2994 45.74 58.2849 46.2686 58.2943 46.4322C58.3044 46.7061 58.2943 46.9855 58.3082 47.2621C58.3252 47.636 58.3819 48.0066 58.4771 48.3665C58.4998 48.4833 58.5495 48.5919 58.6215 48.6821C58.6951 48.7515 58.7828 48.801 58.8774 48.8266C59.1916 48.9334 59.5202 48.982 59.8493 48.9703C59.9823 48.9656 60.1209 48.9519 60.2445 49.0066C60.368 49.0614 60.4676 49.212 60.4229 49.349C60.3844 49.464 60.2678 49.5188 60.1625 49.5619C59.922 49.6536 59.6899 49.7696 59.4692 49.9084C59.3841 49.9714 59.2943 50.0266 59.2007 50.0734C59.1113 50.1084 59.0188 50.1332 58.9246 50.1473L57.8077 50.3527C57.5789 50.3958 57.3035 50.4212 57.1579 50.2158C57.0791 50.1049 57.0678 49.9542 57.0716 49.8139C57.0779 49.54 57.1283 49.2613 57.0949 48.9875C57.0705 48.8253 57.0314 48.6661 56.9783 48.5123L56.643 47.436C56.5308 47.0751 56.4173 46.7116 56.3738 46.3336C56.3581 46.1967 56.3593 46.0413 56.4558 45.9557C56.4801 45.934 56.5085 45.9181 56.539 45.9091C56.5427 45.5791 56.5824 45.2484 56.5654 44.9184C56.561 44.8362 56.5534 44.7534 56.5471 44.6712C56.4882 44.7312 56.4358 44.7983 56.3908 44.8712C56.2837 45.054 56.244 45.2964 56.0795 45.4189C55.9395 45.523 55.7322 45.5175 55.6338 45.6681C55.6023 45.726 55.5785 45.7885 55.5632 45.8537C55.5058 46.0149 55.4202 46.1625 55.3111 46.2885C55.2732 46.4386 55.221 46.5841 55.1554 46.7225C55.0626 46.9348 54.9701 47.147 54.8781 47.3593C54.7792 47.5866 54.6796 47.8139 54.563 48.0289C54.4745 48.1653 54.4035 48.3141 54.3518 48.4712C54.2629 48.8094 54.4073 49.1805 54.6373 49.4298C54.8674 49.679 55.1693 49.8221 55.4668 49.9556C55.4985 49.9669 55.5276 49.9856 55.5519 50.0104C55.5776 50.0437 55.591 50.0861 55.5897 50.1295C55.5897 50.2877 55.4706 50.4232 55.3332 50.4718C55.1927 50.5128 55.0455 50.5187 54.9027 50.489C54.0972 50.3828 53.2942 50.1692 52.5819 49.744C52.4754 49.6889 52.3809 49.6098 52.3046 49.5119C52.2687 49.4632 52.2453 49.4051 52.2366 49.3435C52.228 49.2818 52.2345 49.2188 52.2554 49.1607Z" fill="url(#paint1_linear)"/>
<path d="M55.6603 33.8067C55.5262 34.0304 55.4002 34.26 55.2821 34.4955C55.1998 34.6508 55.1328 34.8151 55.0823 34.9857C55.0086 35.2596 55.0111 35.5527 54.9562 35.832C54.8932 36.1607 54.7457 36.4742 54.7457 36.8104C54.755 37.1026 54.848 37.3843 55.0117 37.6163C55.175 37.8459 55.3615 38.0549 55.5676 38.2393C56.0436 36.8999 56.3095 35.4833 56.3543 34.0484C56.3606 33.8499 56.3612 33.6445 56.295 33.4596C56.2534 33.3432 56.0574 33.0241 55.9307 33.1494C55.8847 33.1953 55.8727 33.4021 55.8443 33.4706C55.7912 33.5877 55.7297 33.7001 55.6603 33.8067Z" fill="#F86D70"/>
<path opacity="0.1" d="M55.6603 33.8067C55.5262 34.0304 55.4002 34.26 55.2821 34.4955C55.1998 34.6508 55.1328 34.8151 55.0823 34.9857C55.0086 35.2596 55.0111 35.5527 54.9562 35.832C54.8932 36.1607 54.7457 36.4742 54.7457 36.8104C54.755 37.1026 54.848 37.3843 55.0117 37.6163C55.175 37.8459 55.3615 38.0549 55.5676 38.2393C56.0436 36.8999 56.3095 35.4833 56.3543 34.0484C56.3606 33.8499 56.3612 33.6445 56.295 33.4596C56.2534 33.3432 56.0574 33.0241 55.9307 33.1494C55.8847 33.1953 55.8727 33.4021 55.8443 33.4706C55.7912 33.5877 55.7297 33.7001 55.6603 33.8067Z" fill="black"/>
<path d="M62.4266 34.5551C62.673 34.5106 62.9466 34.5325 63.1382 34.7057C63.2539 34.8124 63.327 34.9635 63.3424 35.1275C63.3588 35.3178 63.2573 35.5424 63.0821 35.5575C63.0399 35.558 62.9978 35.555 62.956 35.5486C62.8454 35.5478 62.7349 35.5577 62.6258 35.578C62.411 35.5999 62.1946 35.5656 61.9945 35.4779C61.7945 35.3902 61.6168 35.2517 61.4761 35.0741C61.3261 34.8728 61.524 34.7804 61.7024 34.7393C61.9457 34.6831 62.1833 34.6003 62.4266 34.5551Z" fill="#FBBEBE"/>
<path d="M58.2113 40.7391L58.055 41.9455C58.0347 42.0698 58.0267 42.196 58.031 42.3221C58.0493 42.6063 58.188 42.8616 58.2888 43.1246C58.3897 43.3875 58.4502 43.7017 58.3172 43.9462C58.2762 44.0229 58.2182 44.0872 58.1817 44.166C58.1345 44.288 58.1129 44.4199 58.1186 44.5521L58.0758 46.2638C57.5892 46.2995 57.1009 46.2966 56.6147 46.2549C56.5956 46.2567 56.5765 46.2514 56.5605 46.2398C56.5478 46.2221 56.5413 46.2 56.5423 46.1775C56.5208 45.777 56.5851 45.3758 56.5643 44.9752C56.5567 44.8287 56.5372 44.6829 56.5353 44.5357C56.5271 43.9393 56.7988 43.3553 56.7168 42.7651C56.691 42.6166 56.6574 42.4698 56.616 42.3255C56.3569 41.2985 56.4118 40.2188 56.4685 39.1589C56.4679 39.1419 56.4724 39.1251 56.4811 39.111C56.4908 39.101 56.5028 39.0939 56.5158 39.0904C56.7916 39.0008 57.0832 38.9846 57.366 39.0431C57.6488 39.1016 57.9145 39.2331 58.1407 39.4266C58.2094 39.4868 58.3827 39.545 58.4281 39.6163C58.4911 39.7169 58.4079 39.8162 58.372 39.923C58.2917 40.188 58.2378 40.4616 58.2113 40.7391Z" fill="#3F3D56"/>
<path opacity="0.1" d="M58.2113 40.7391L58.055 41.9455C58.0347 42.0698 58.0267 42.196 58.031 42.3221C58.0493 42.6063 58.188 42.8616 58.2888 43.1246C58.3897 43.3875 58.4502 43.7017 58.3172 43.9462C58.2762 44.0229 58.2182 44.0872 58.1817 44.166C58.1345 44.288 58.1129 44.4199 58.1186 44.5521L58.0758 46.2638C57.5892 46.2995 57.1009 46.2966 56.6147 46.2549C56.5956 46.2567 56.5765 46.2514 56.5605 46.2398C56.5478 46.2221 56.5413 46.2 56.5423 46.1775C56.5208 45.777 56.5851 45.3758 56.5643 44.9752C56.5567 44.8287 56.5372 44.6829 56.5353 44.5357C56.5271 43.9393 56.7988 43.3553 56.7168 42.7651C56.691 42.6166 56.6574 42.4698 56.616 42.3255C56.3569 41.2985 56.4118 40.2188 56.4685 39.1589C56.4679 39.1419 56.4724 39.1251 56.4811 39.111C56.4908 39.101 56.5028 39.0939 56.5158 39.0904C56.7916 39.0008 57.0832 38.9846 57.366 39.0431C57.6488 39.1016 57.9145 39.2331 58.1407 39.4266C58.2094 39.4868 58.3827 39.545 58.4281 39.6163C58.4911 39.7169 58.4079 39.8162 58.372 39.923C58.2917 40.188 58.2378 40.4616 58.2113 40.7391Z" fill="black"/>
<path d="M55.2885 40.3749C55.3623 40.5412 55.4612 40.6967 55.5047 40.8754C55.62 41.3471 55.3232 41.8339 55.3585 42.3173C55.3698 42.47 55.4133 42.6186 55.4165 42.7712C55.4196 42.9239 55.3679 43.0937 55.2431 43.1636C55.1593 43.2108 55.054 43.206 54.9752 43.2594C54.8423 43.3471 54.8271 43.5483 54.8404 43.7161C54.8536 43.8838 54.875 44.0728 54.7773 44.205C54.7023 44.307 54.5738 44.346 54.4931 44.4425C54.4449 44.5121 54.4039 44.5871 54.3708 44.6664C54.2504 44.8944 54.0311 45.0348 53.8508 45.2142C53.6705 45.3936 53.518 45.6565 53.5987 45.9043C53.6579 46.0871 53.8243 46.1994 53.9844 46.285C54.2765 46.4418 54.5848 46.5602 54.9028 46.6376C54.9369 46.6486 54.973 46.6505 55.008 46.6431C55.0434 46.6288 55.075 46.6053 55.1001 46.5746C55.286 46.3768 55.4782 46.1693 55.5639 45.903C55.5793 45.8382 55.6031 45.7762 55.6345 45.7188C55.7329 45.5695 55.9396 45.5743 56.0802 45.4716C56.244 45.3504 56.2838 45.1094 56.3909 44.928C56.4924 44.7568 56.655 44.639 56.7691 44.4788C56.9582 44.2132 57.0092 43.8592 57.1473 43.5559C57.2059 43.4265 57.2809 43.3067 57.3275 43.1718C57.3747 43.0112 57.4037 42.8449 57.4139 42.6768C57.5027 41.877 57.729 41.0719 57.5866 40.2804C57.5551 40.1058 57.5065 39.938 57.4864 39.7586C57.4511 39.4478 57.5065 39.1308 57.4643 38.8206C57.4634 38.7819 57.4543 38.7438 57.4378 38.7094C57.4213 38.675 57.3978 38.6451 57.3691 38.6221C57.335 38.6056 57.2981 38.5972 57.2607 38.5974C56.887 38.5763 56.5124 38.5857 56.14 38.6255C55.951 38.6454 55.7385 38.6871 55.6257 38.8549C55.5293 38.998 55.5343 39.191 55.4997 39.3656C55.4618 39.5799 55.3616 39.6977 55.2564 39.8661C55.1511 40.0346 55.211 40.2016 55.2885 40.3749Z" fill="#3F3D56"/>
<path d="M56.7426 45.9386C56.643 45.9386 56.5327 45.9324 56.4558 46.0009C56.36 46.0858 56.3581 46.2426 56.3739 46.3768C56.418 46.7513 56.5308 47.1121 56.6436 47.4723L56.979 48.541C57.0321 48.6935 57.0712 48.8513 57.0956 49.0121C57.129 49.286 57.0785 49.5598 57.0722 49.8337C57.0722 49.9707 57.0804 50.1227 57.1592 50.2329C57.3017 50.4314 57.5796 50.4082 57.8084 50.3657L58.9247 50.1603C59.0188 50.1464 59.1113 50.1218 59.2008 50.0871C59.2941 50.0404 59.3837 49.9854 59.4686 49.9227C59.6895 49.7856 59.9216 49.671 60.162 49.5804C60.2666 49.5379 60.3838 49.4832 60.4217 49.3688C60.4664 49.2319 60.3668 49.0819 60.2433 49.0265C60.1197 48.971 59.9817 48.9854 59.8481 48.9902C59.5194 49.0017 59.1914 48.9533 58.8774 48.8471C58.7828 48.8224 58.695 48.7733 58.6215 48.704C58.5493 48.6149 58.4994 48.5072 58.4766 48.3911C58.382 48.0341 58.3254 47.6666 58.3076 47.2956C58.295 47.0217 58.3038 46.7479 58.2938 46.474C58.2875 46.3117 58.302 45.7893 58.1677 45.6777C58.0675 45.5942 57.6546 45.8249 57.5198 45.8585C57.2648 45.9204 57.0037 45.9473 56.7426 45.9386Z" fill="#2F2E41"/>
<path d="M53.0649 46.6999C52.9565 47.0929 52.9388 47.5072 52.8689 47.9105C52.7989 48.3137 52.6735 48.7259 52.398 49.0059C52.3443 49.052 52.2981 49.1076 52.2613 49.1703C52.238 49.2289 52.2301 49.2934 52.2385 49.3565C52.2468 49.4197 52.2711 49.4792 52.3085 49.5284C52.3846 49.6258 52.479 49.7044 52.5852 49.7591C53.2968 50.1809 54.0979 50.3931 54.9053 50.4985C55.048 50.5282 55.1949 50.5225 55.3352 50.4821C55.4726 50.4314 55.5943 50.2973 55.5917 50.1398C55.593 50.0968 55.5796 50.0548 55.5539 50.022C55.5294 49.9976 55.5004 49.9792 55.4688 49.9679C55.1713 49.8351 54.8688 49.6899 54.6394 49.4455C54.4099 49.2011 54.265 48.8293 54.3538 48.4965C54.4059 48.3408 54.4766 48.1932 54.5644 48.0577C54.6798 47.8423 54.785 47.6206 54.8795 47.3935L55.1568 46.7616C55.2375 46.5774 55.3201 46.387 55.3333 46.1823C54.9852 46.1995 54.6375 46.1391 54.3116 46.005C54.1594 45.9376 54.0176 45.8452 53.8912 45.7311C53.7841 45.6339 53.6864 45.4531 53.542 45.5798C53.426 45.6811 53.3529 45.966 53.2842 46.1111C53.1971 46.3009 53.1238 46.4978 53.0649 46.6999Z" fill="#2F2E41"/>
<path d="M57.1277 31.0085C57.1 31.2707 56.8655 31.4446 56.6417 31.548L58.0574 32.0396C57.966 31.8492 58.0404 31.6165 58.1311 31.4234C58.205 31.2707 58.2893 31.1243 58.3832 30.9852C58.3971 30.964 58.4129 30.9366 58.4028 30.9126C58.3938 30.8965 58.3797 30.8846 58.3631 30.8791C58.0719 30.738 57.7719 30.5922 57.4536 30.5408C57.3615 30.5258 57.1876 30.486 57.1189 30.5881C57.0502 30.6901 57.1428 30.8873 57.1277 31.0085Z" fill="#FBBEBE"/>
<path opacity="0.1" d="M57.1277 31.0085C57.1 31.2707 56.8655 31.4446 56.6417 31.548L58.0574 32.0396C57.966 31.8492 58.0404 31.6165 58.1311 31.4234C58.205 31.2707 58.2893 31.1243 58.3832 30.9852C58.3971 30.964 58.4129 30.9366 58.4028 30.9126C58.3938 30.8965 58.3797 30.8846 58.3631 30.8791C58.0719 30.738 57.7719 30.5922 57.4536 30.5408C57.3615 30.5258 57.1876 30.486 57.1189 30.5881C57.0502 30.6901 57.1428 30.8873 57.1277 31.0085Z" fill="black"/>
<path d="M57.9527 31.2214C58.5661 31.2214 59.0633 30.6813 59.0633 30.015C59.0633 29.3487 58.5661 28.8086 57.9527 28.8086C57.3394 28.8086 56.8422 29.3487 56.8422 30.015C56.8422 30.6813 57.3394 31.2214 57.9527 31.2214Z" fill="#FBBEBE"/>
<path d="M58.9121 39.9408C58.8049 40.0777 58.6152 40.1079 58.4494 40.0777C58.0618 40.0093 57.7441 39.6991 57.3653 39.5875C56.9002 39.4506 56.4073 39.6265 55.9686 39.8415C55.5299 40.0565 55.0925 40.3174 54.6122 40.3584C55.0465 39.3068 54.7981 38.0408 55.2129 36.9802C55.315 36.7214 55.4568 36.4708 55.4795 36.1908C55.5078 35.8423 55.3477 35.5061 55.3232 35.159C55.3005 34.8502 55.3862 34.5428 55.4675 34.249L55.7719 33.1638C55.8854 32.7599 56.002 32.3484 56.222 31.9999C56.3026 31.8718 56.3279 31.613 56.4514 31.535C56.7212 31.3665 57.1302 31.5795 57.4227 31.5911C57.7151 31.6028 57.9818 31.8287 58.1526 32.0841C58.3335 32.3539 58.4362 32.675 58.5308 32.9927C58.6818 33.4656 58.7944 33.952 58.8673 34.4462C58.8768 34.5202 58.885 34.5941 58.8913 34.6688C58.9543 35.3719 58.8623 36.0792 58.8573 36.7851C58.8573 36.7851 58.8573 36.7851 58.8573 36.7906C58.8516 37.6861 58.9833 38.5769 59.0085 39.4725C59.0123 39.6388 59.0085 39.8175 58.9121 39.9408Z" fill="#F86D70"/>
<path opacity="0.1" d="M58.8572 36.7913C58.6398 36.7317 58.4425 36.5797 58.2742 36.4126C58.1282 36.2713 57.9983 36.1116 57.8872 35.9368C57.7476 35.6979 57.6356 35.4413 57.5538 35.1727C57.3204 34.4595 57.1721 33.7167 57.1126 32.9625C57.0962 32.7571 57.0911 32.5374 57.204 32.3744C57.2671 32.2861 57.3559 32.2236 57.456 32.1971C57.556 32.1706 57.6614 32.1817 57.7548 32.2286C57.9042 32.308 58.0007 32.4675 58.0895 32.6195C58.2673 32.9228 58.4456 33.2289 58.5597 33.5657C58.6102 33.715 58.6473 33.8691 58.6965 34.019C58.7465 34.1669 58.8042 34.3116 58.8692 34.4524C58.8787 34.5263 58.8869 34.6003 58.8932 34.6749C58.9518 35.3747 58.8623 36.0819 58.8572 36.7913Z" fill="black"/>
<path d="M57.2065 32.2415C57.0943 32.4038 57.0993 32.6263 57.1151 32.8297C57.1746 33.5836 57.3229 34.3262 57.5563 35.0392C57.6376 35.308 57.7496 35.5647 57.8897 35.8033C58.0007 35.9782 58.1306 36.1379 58.2767 36.2791C58.4911 36.4921 58.752 36.6817 59.0426 36.6844C59.2061 36.6757 59.3671 36.6376 59.5191 36.5715L61.8833 35.6992C61.9073 35.552 61.8121 35.3815 61.7674 35.2404L61.6413 34.8337C61.6054 34.7221 61.5631 34.601 61.4699 34.54C61.3766 34.4791 61.2272 34.5626 61.149 34.6304C61.0709 34.6982 61.011 34.7872 60.9347 34.8563C60.7885 34.9878 60.5963 35.0364 60.4116 35.0816L59.8802 35.2117C59.6875 35.2684 59.4887 35.297 59.289 35.2966C59.1409 34.8057 58.8592 34.373 58.6997 33.8855C58.6505 33.7362 58.6127 33.5822 58.5623 33.4329C58.4482 33.096 58.2698 32.79 58.0927 32.4867C58.0038 32.334 57.9074 32.1744 57.758 32.0957C57.6644 32.0489 57.559 32.0379 57.4589 32.0643C57.3588 32.0908 57.2698 32.1533 57.2065 32.2415Z" fill="#F86D70"/>
<path d="M57.5986 30.2868C57.6071 30.2077 57.6298 30.1312 57.6654 30.0616C57.684 30.0266 57.7123 29.999 57.7463 29.9826C57.7803 29.9663 57.8181 29.962 57.8545 29.9705C57.9654 30.0081 58.0026 30.1951 58.1185 30.2012C58.1967 30.2053 58.2528 30.1191 58.2774 30.0376C58.302 29.9561 58.3152 29.865 58.3738 29.8075C58.4145 29.7742 58.4614 29.7509 58.5112 29.7391C58.7804 29.6466 59.0583 29.4755 59.1478 29.1845C59.1686 29.1256 59.1736 29.0615 59.1623 28.9996C59.1214 28.8154 58.9102 28.76 58.7495 28.6929C58.5887 28.6258 58.4343 28.5135 58.2768 28.4272C58.1192 28.3409 57.9364 28.2793 57.7631 28.3231C57.675 28.3532 57.5885 28.3884 57.504 28.4286C57.2431 28.5265 56.9229 28.4813 56.7206 28.6853C56.6324 28.7874 56.5676 28.9105 56.5315 29.0448C56.3896 29.47 56.3008 29.976 56.5346 30.3498C56.6783 30.5805 56.8189 30.8441 57.0962 30.8715C57.4189 30.903 57.5475 30.5826 57.5986 30.2868Z" fill="#2F2E41"/>
<g opacity="0.1">
<path opacity="0.1" d="M58.0914 29.8924C58.116 29.8116 58.1292 29.7199 58.1872 29.6624C58.2281 29.6295 58.2749 29.6061 58.3246 29.5939C58.5944 29.5015 58.8717 29.331 58.9618 29.0393C58.9824 28.9804 58.9872 28.9163 58.9757 28.8545C58.9695 28.8252 58.9582 28.7976 58.9423 28.773C59.045 28.8209 59.1345 28.886 59.1597 28.9996C59.171 29.0615 59.166 29.1256 59.1452 29.1845C59.0557 29.4755 58.7778 29.6466 58.5086 29.7391C58.4588 29.7509 58.412 29.7742 58.3712 29.8075C58.3126 29.865 58.2994 29.9568 58.2748 30.0376C58.2502 30.1184 58.1941 30.2053 58.116 30.2012C58.0378 30.1971 58 30.1197 57.9502 30.0547C58.0189 30.0451 58.0681 29.9671 58.0914 29.8924Z" fill="black"/>
<path opacity="0.1" d="M56.9115 30.725C57.2355 30.7572 57.3634 30.4374 57.4158 30.1417C57.4243 30.0625 57.447 29.986 57.4826 29.9164C57.5012 29.8815 57.5296 29.854 57.5635 29.8377C57.5975 29.8215 57.6354 29.8174 57.6717 29.826C57.7315 29.8459 57.77 29.9102 57.811 29.963C57.782 29.966 57.7541 29.9762 57.7294 29.9928C57.7047 30.0094 57.6839 30.032 57.6685 30.0588C57.6329 30.1284 57.6102 30.205 57.6017 30.2841C57.5506 30.5798 57.4221 30.9003 57.0974 30.8674C56.9689 30.8525 56.8502 30.7858 56.7646 30.6805C56.811 30.7039 56.8607 30.719 56.9115 30.725Z" fill="black"/>
</g>
<path d="M10.7643 44.524L11.9707 43.7531C11.8072 43.4508 11.5987 43.1801 11.3536 42.952L9.0776 43.7209L10.8639 42.5816C10.4223 42.3189 9.92538 42.1855 9.42199 42.1948C8.9186 42.204 8.42609 42.3554 7.99295 42.6342C7.55981 42.913 7.20096 43.3095 6.95173 43.7847C6.70249 44.2599 6.57146 44.7974 6.57153 45.3443C6.57153 47.0834 7.86932 47.1443 9.47091 47.1443C11.0725 47.1443 12.3703 47.0834 12.3703 45.3443C12.3699 44.9039 12.284 44.4685 12.1182 44.0667L10.7643 44.524Z" fill="#3993F3"/>
<path opacity="0.1" d="M11.0713 46.2152C10.9429 46.0753 10.7994 45.9528 10.6439 45.8503C10.4246 45.6921 10.1983 45.5305 9.93987 45.4771C9.71296 45.4299 9.47912 45.4696 9.24654 45.4559C8.84522 45.4292 8.46747 45.241 8.18701 44.928C8.0225 44.7431 7.89266 44.5172 7.69474 44.3741C7.48107 44.2221 7.21004 44.1892 6.95666 44.2269C6.88318 44.2386 6.81037 44.2548 6.73858 44.2755C6.62483 44.6183 6.56682 44.9799 6.56714 45.3443C6.56714 47.0834 7.86493 47.1443 9.46651 47.1443C10.2437 47.1443 10.949 47.1299 11.4696 46.9163L11.3826 46.7397C11.2997 46.5512 11.195 46.375 11.0713 46.2152Z" fill="black"/>
<path d="M36.8069 48.9272L35.2066 47.905C35.4234 47.5038 35.7004 47.1446 36.0259 46.8424L39.0444 47.8618L36.6789 46.3514C37.2644 46.003 37.9234 45.8261 38.5909 45.8383C39.2585 45.8505 39.9116 46.0513 40.486 46.4209C41.0604 46.7906 41.5363 47.3163 41.8668 47.9464C42.1974 48.5765 42.3712 49.2892 42.3712 50.0145C42.3712 52.3212 40.6498 52.4013 38.5263 52.4013C36.4029 52.4013 34.6815 52.3212 34.6815 50.0145C34.6809 49.4308 34.7932 48.8534 35.0112 48.3199L36.8069 48.9272Z" fill="#3993F3"/>
<path opacity="0.1" d="M36.3991 51.1695C36.5696 50.984 36.76 50.8214 36.9664 50.6855C37.2569 50.476 37.5576 50.2623 37.8999 50.1911C38.2005 50.1288 38.5106 50.1815 38.8163 50.1624C39.3484 50.1268 39.8494 49.8777 40.2219 49.4633C40.4399 49.2175 40.612 48.9156 40.8749 48.7287C41.1579 48.5232 41.5171 48.4829 41.8531 48.5335C41.9508 48.5485 42.0477 48.57 42.143 48.5979C42.2936 49.0522 42.3704 49.5316 42.3699 50.0145C42.3699 52.3212 40.6486 52.4013 38.5251 52.4013C37.4946 52.4013 36.5592 52.3828 35.8684 52.0993L35.9837 51.8652C36.1041 51.6207 36.2264 51.3749 36.3991 51.1695Z" fill="black"/>
</g>
<defs>
<linearGradient id="paint0_linear" x1="34.5308" y1="14.2727" x2="51.8783" y2="4.8023" gradientUnits="userSpaceOnUse">
<stop stop-color="#808080" stop-opacity="0.25"/>
<stop offset="0.54" stop-color="#808080" stop-opacity="0.12"/>
<stop offset="1" stop-color="#808080" stop-opacity="0.1"/>
</linearGradient>
<linearGradient id="paint1_linear" x1="-13767.6" y1="17808.8" x2="-13448.4" y2="10464.4" gradientUnits="userSpaceOnUse">
<stop stop-color="#808080" stop-opacity="0.25"/>
<stop offset="0.54" stop-color="#808080" stop-opacity="0.12"/>
<stop offset="1" stop-color="#808080" stop-opacity="0.1"/>
</linearGradient>
<clipPath id="clip0">
<rect width="69" height="54" fill="white"/>
</clipPath>
</defs>
</svg>
