<svg width="25" height="25" viewBox="0 0 25 25" fill="none" xmlns="http://www.w3.org/2000/svg">
<path d="M24.8745 11.646H23.675V6.12837C23.675 4.80557 22.5989 3.72943 21.2761 3.72943H19.6515L17.9891 0.740346C17.7357 0.283537 17.2535 0 16.7305 0C16.4868 0 16.245 0.0628589 16.0315 0.181335L9.65123 3.72935H2.52444C1.20164 3.72935 0.125496 4.8055 0.125496 6.12829V22.601C0.125496 23.9238 1.20164 24.9999 2.52444 24.9999H21.2761C22.5989 24.9999 23.675 23.9238 23.675 22.601V17.7632H24.8745V11.646ZM21.2761 4.68896C22.0149 4.68896 22.6185 5.25029 22.6996 5.96853H20.8966L20.1855 4.68896H21.2761ZM16.4983 1.02C16.7233 0.893836 17.0261 0.982077 17.1503 1.20619L19.7988 5.96809H7.59966L16.4983 1.02ZM22.7154 22.601C22.7154 23.3946 22.0696 24.0404 21.276 24.0404H2.52444C1.73086 24.0404 1.08503 23.3946 1.08503 22.601V6.12837C1.08503 5.33479 1.73086 4.68896 2.52444 4.68896H7.9259L5.62483 5.96861H2.82432C2.559 5.96861 2.34452 6.18354 2.34452 6.44841C2.34452 6.71329 2.559 6.92822 2.82432 6.92822H3.89905H21.4301H22.7154V11.6464H19.2068C17.5774 11.6464 16.2513 12.9726 16.2513 14.6019V14.8083C16.2513 16.4377 17.5774 17.7638 19.2068 17.7638H22.7154V22.601ZM23.9149 16.8037H23.675H19.2068C18.1061 16.8037 17.2108 15.9085 17.2108 14.8078V14.6014C17.2108 13.5008 18.1061 12.6054 19.2068 12.6054H23.675H23.9149V16.8037ZM20.6763 14.744C20.6763 15.3294 20.2023 15.8033 19.617 15.8033C19.0316 15.8033 18.5576 15.3293 18.5576 14.744C18.5576 14.1587 19.0317 13.6847 19.617 13.6847C20.2023 13.6846 20.6763 14.1591 20.6763 14.744Z" fill="white"/>
</svg>
