<svg width="642" height="626" viewBox="0 0 642 626" fill="none" xmlns="http://www.w3.org/2000/svg">
<rect width="641" height="626" fill="#F5F3F3"/>
<path fill-rule="evenodd" clip-rule="evenodd" d="M500.77 0L642 0V124.698C633.216 126.856 624.034 128 614.584 128C551.301 128 500 76.6751 500 13.3627C500 8.84258 500.261 4.38358 500.77 0Z" fill="#3993F3"/>
<g clip-path="url(#clip0)">
<path d="M608.532 50.8805L587.675 35.6097C587.273 35.3152 586.727 35.3152 586.325 35.6097L565.468 50.8805C564.959 51.2536 564.848 51.9689 565.221 52.4783C565.594 52.9878 566.309 53.0983 566.819 52.7254L587 37.949L607.181 52.7253C607.385 52.8744 607.621 52.9462 607.856 52.9462C608.208 52.9462 608.555 52.7842 608.779 52.4783C609.152 51.9689 609.042 51.2536 608.532 50.8805Z" fill="white"/>
<path d="M603.005 52.9842C602.374 52.9842 601.862 53.496 601.862 54.1274V72.3246H592.717V62.3914C592.717 59.2392 590.152 56.6749 587 56.6749C583.848 56.6749 581.283 59.2394 581.283 62.3914V72.3247H572.138V54.1275C572.138 53.4961 571.626 52.9843 570.995 52.9843C570.363 52.9843 569.851 53.4961 569.851 54.1275V73.468C569.851 74.0994 570.363 74.6112 570.995 74.6112H582.427C583.028 74.6112 583.52 74.1467 583.565 73.557C583.568 73.5303 583.57 73.5011 583.57 73.468V62.3915C583.57 60.5001 585.109 58.9614 587 58.9614C588.891 58.9614 590.43 60.5002 590.43 62.3915V73.468C590.43 73.5009 590.432 73.5296 590.435 73.556C590.48 74.1461 590.972 74.6112 591.573 74.6112H603.006C603.637 74.6112 604.149 74.0994 604.149 73.468V54.1275C604.149 53.496 603.637 52.9842 603.005 52.9842Z" fill="white"/>
</g>
<defs>
<clipPath id="clip0">
<rect width="44" height="44" fill="white" transform="translate(565 33)"/>
</clipPath>
</defs>
</svg>
