<svg width="641" height="626" viewBox="0 0 641 626" fill="none" xmlns="http://www.w3.org/2000/svg">
<rect width="641" height="626" fill="#F5F3F3"/>
<path fill-rule="evenodd" clip-rule="evenodd" d="M468.938 0L641 0V143.208C630.298 145.686 619.111 147 607.599 147C530.501 147 468 88.0566 468 15.3462C468 10.1551 468.319 5.03426 468.938 0Z" fill="#3993F3"/>
<g clip-path="url(#clip0)">
<path d="M584.088 53.913C583.752 53.5769 583.208 53.5769 582.872 53.913C582.537 54.2481 582.537 54.7921 582.872 55.1281C583.208 55.4633 583.752 55.4633 584.088 55.1281C584.423 54.7921 584.423 54.2481 584.088 53.913Z" fill="white"/>
<path d="M595.025 42.9747C593.346 41.2956 590.628 41.2955 588.949 42.9747C587.274 44.6495 587.274 47.3755 588.949 49.0517C590.624 50.7261 593.35 50.7268 595.025 49.0515C596.704 47.3725 596.705 44.654 595.025 42.9747ZM593.81 47.8361C592.805 48.8411 591.169 48.8411 590.164 47.8363C589.159 46.8306 589.159 45.1949 590.164 44.19C591.171 43.1826 592.802 43.1824 593.81 44.19C594.818 45.1974 594.818 46.8286 593.81 47.8361Z" fill="white"/>
<path d="M604.748 33.2517C604.579 33.083 604.349 32.9916 604.11 33.0006C603.915 33.0076 599.289 33.1935 593.789 35.1374C589.382 36.6933 585.709 38.9211 582.872 41.7587C582.236 42.3946 581.617 43.0689 581.025 43.7693C578.219 42.1178 575.971 42.6356 574.55 43.3963C571.277 45.1477 569.252 49.9031 569.252 53.3045C569.252 53.652 569.461 53.9655 569.782 54.0984C569.889 54.1425 570 54.1639 570.111 54.1639C570.335 54.1639 570.554 54.0765 570.719 53.9122C572.445 52.1863 574.574 52.2942 575.269 52.3857L575.57 52.6866C574.978 54.096 574.5 55.4975 574.151 56.8605C574.024 57.3538 574.067 57.8758 574.255 58.3532C573.427 58.7345 572.629 59.2944 571.934 59.9895C569.722 62.2017 569.273 67.5929 569.255 67.8213C569.235 68.072 569.326 68.3188 569.503 68.4966C569.665 68.6583 569.884 68.7483 570.111 68.7483C570.134 68.7483 570.156 68.7475 570.179 68.7456C570.407 68.7277 575.799 68.2785 578.011 66.0664C578.705 65.3716 579.265 64.5734 579.647 63.7462C580.152 63.9449 580.672 63.9694 581.14 63.8495C582.503 63.4997 583.904 63.0227 585.313 62.4304L585.614 62.7313C585.706 63.4268 585.814 65.5556 584.088 67.2813C583.842 67.5271 583.769 67.8967 583.902 68.2177C584.035 68.5389 584.348 68.7482 584.696 68.7482C588.097 68.7482 592.852 66.7226 594.604 63.45C595.364 62.0289 595.882 59.7806 594.231 56.9748C594.931 56.383 595.605 55.7643 596.241 55.1282C599.079 52.2905 601.307 48.6173 602.863 44.2108C604.806 38.711 604.992 34.0845 604.999 33.8902C605.008 33.6518 604.917 33.4205 604.748 33.2517ZM571.173 51.4561C571.707 48.8725 573.257 46.0376 575.361 44.9116C576.767 44.1593 578.304 44.2331 579.937 45.1274C578.546 46.958 577.335 48.9303 576.327 51.013C576.314 51.0051 576.159 50.8106 575.872 50.7458C575.754 50.7191 573.48 50.23 571.173 51.4561ZM576.795 64.851C575.614 66.0326 572.842 66.6558 571.09 66.9103C571.344 65.1582 571.968 62.3864 573.149 61.2048C573.811 60.5431 574.578 60.0414 575.349 59.7588L578.241 62.6508C577.959 63.422 577.457 64.1892 576.795 64.851ZM580.713 62.1846C580.465 62.2483 580.176 62.1548 579.962 61.941C578.851 60.8292 578.416 60.3943 578.279 60.2579C578.029 60.0076 577.415 59.3939 576.06 58.0384C575.845 57.8236 575.752 57.5356 575.815 57.2874C576.091 56.2154 576.451 55.1156 576.888 54.0052L583.995 61.1117C582.884 61.5496 581.785 61.9095 580.713 62.1846ZM593.089 62.639C591.963 64.7427 589.128 66.2933 586.544 66.8271C587.368 65.277 587.55 63.3038 587.249 62.1073C587.179 61.8294 586.997 61.6897 586.987 61.6733C589.07 60.6646 591.042 59.4545 592.873 58.0626C593.767 59.6966 593.841 61.2334 593.089 62.639ZM595.026 53.9129C594.252 54.6872 593.418 55.4352 592.548 56.1362C590.456 57.8206 588.153 59.2473 585.697 60.3831L577.617 52.3034C578.753 49.8468 580.18 47.5444 581.864 45.4528C582.565 44.582 583.313 43.748 584.087 42.9741C586.633 40.4281 589.919 38.4019 593.856 36.9433L601.057 44.1442C599.598 48.0811 597.572 51.3668 595.026 53.9129ZM601.675 42.3317L595.668 36.325C598.941 35.3085 601.788 34.9279 603.209 34.7911C603.072 36.2124 602.692 39.0595 601.675 42.3317Z" fill="white"/>
<path d="M581.657 68.4964C581.321 68.1608 580.777 68.1609 580.441 68.4965L578.011 70.9277C577.676 71.2634 577.676 71.8075 578.011 72.143C578.347 72.4785 578.891 72.4785 579.227 72.1428L581.657 69.7117C581.992 69.376 581.992 68.8319 581.657 68.4964Z" fill="white"/>
<path d="M569.504 56.3432C569.168 56.0075 568.624 56.0075 568.289 56.343L565.857 58.7733C565.522 59.1088 565.522 59.653 565.857 59.9887C566.193 60.3242 566.737 60.3245 567.072 59.9888L569.504 57.5585C569.839 57.223 569.839 56.6789 569.504 56.3432Z" fill="white"/>
<path d="M575.58 69.7125C575.245 69.3769 574.701 69.3769 574.365 69.7124L568.544 75.5329C568.208 75.8685 568.208 76.4126 568.544 76.7482C568.879 77.0838 569.423 77.084 569.759 76.7483L575.58 70.9278C575.916 70.5922 575.916 70.048 575.58 69.7125Z" fill="white"/>
<path d="M568.705 69.7125C568.37 69.3769 567.826 69.3769 567.49 69.7124L561.669 75.5329C561.333 75.8685 561.333 76.4126 561.669 76.7482C562.004 77.0838 562.548 77.084 562.884 76.7483L568.705 70.9278C569.041 70.5922 569.041 70.048 568.705 69.7125Z" fill="white"/>
<path d="M568.288 62.4196C567.952 62.0841 567.408 62.0841 567.072 62.4197L561.252 68.2411C560.916 68.5767 560.916 69.1208 561.252 69.4565C561.587 69.7921 562.132 69.7921 562.467 69.4564L568.288 63.635C568.623 63.2993 568.623 62.7553 568.288 62.4196Z" fill="white"/>
<path d="M587.734 50.2665C587.398 49.9309 586.854 49.9309 586.518 50.2665L585.303 51.4816C584.967 51.8172 584.967 52.3614 585.303 52.697C585.639 53.0326 586.183 53.0326 586.518 52.697L587.734 51.4819C588.069 51.1463 588.069 50.6021 587.734 50.2665Z" fill="white"/>
</g>
<defs>
<clipPath id="clip0">
<rect width="44" height="44" fill="white" transform="translate(561 33)"/>
</clipPath>
</defs>
</svg>
