<svg width="641" height="626" viewBox="0 0 641 626" fill="none" xmlns="http://www.w3.org/2000/svg">
<rect width="641" height="626" fill="#F5F3F3"/>
<path fill-rule="evenodd" clip-rule="evenodd" d="M498.77 0L640 0V124.698C631.216 126.856 622.034 128 612.584 128C549.301 128 498 76.6751 498 13.3627C498 8.84258 498.261 4.38358 498.77 0Z" fill="#3993F3"/>
<path d="M601.573 35.2383H568.427C565.439 35.2383 563 37.6686 563 40.6653V61.6877C563 64.6752 565.43 67.1146 568.427 67.1146H583.767V72.2948H576.12C575.434 72.2948 574.886 72.843 574.886 73.5282C574.886 74.2134 575.434 74.7616 576.12 74.7616H593.88C594.566 74.7616 595.114 74.2134 595.114 73.5282C595.114 72.843 594.566 72.2948 593.88 72.2948H586.233V67.1146H601.573C604.561 67.1146 607 64.6844 607 61.6877V40.6653C607 37.6686 604.57 35.2383 601.573 35.2383ZM568.427 37.7051H601.582C603.208 37.7051 604.542 39.0299 604.542 40.6653V58.2342H565.467V40.6653C565.467 39.0299 566.792 37.7051 568.427 37.7051ZM601.573 64.6478H568.427C566.801 64.6478 565.467 63.3231 565.467 61.6877V60.701H604.533V61.6877C604.533 63.3139 603.208 64.6478 601.573 64.6478Z" fill="white"/>
</svg>
