<svg width="341" height="302" viewBox="0 0 341 302" fill="none" xmlns="http://www.w3.org/2000/svg">
<g clip-path="url(#clip0)">
<path d="M171.104 301.825C171.021 301.689 169.056 298.391 168.374 291.544C167.75 285.262 168.151 274.673 173.615 259.903C183.967 231.922 171.23 209.345 171.1 209.12L171.728 208.753C171.761 208.81 175.048 214.567 176.989 223.733C179.555 235.885 178.621 248.52 174.296 260.157C163.962 288.091 171.645 301.315 171.724 301.445L171.104 301.825Z" fill="#3F3D56"/>
<path d="M167.056 207.477C169.664 207.477 171.777 205.353 171.777 202.732C171.777 200.112 169.664 197.988 167.056 197.988C164.449 197.988 162.335 200.112 162.335 202.732C162.335 205.353 164.449 207.477 167.056 207.477Z" fill="#2A8BF2"/>
<path d="M181.945 224.995C184.552 224.995 186.666 222.87 186.666 220.25C186.666 217.63 184.552 215.506 181.945 215.506C179.338 215.506 177.224 217.63 177.224 220.25C177.224 222.87 179.338 224.995 181.945 224.995Z" fill="#3F3D56"/>
<path d="M171.777 236.673C174.384 236.673 176.498 234.549 176.498 231.929C176.498 229.308 174.384 227.184 171.777 227.184C169.17 227.184 167.056 229.308 167.056 231.929C167.056 234.549 169.17 236.673 171.777 236.673Z" fill="#2A8BF2"/>
<path d="M184.124 246.527C186.731 246.527 188.845 244.403 188.845 241.782C188.845 239.162 186.731 237.038 184.124 237.038C181.517 237.038 179.403 239.162 179.403 241.782C179.403 244.403 181.517 246.527 184.124 246.527Z" fill="#2A8BF2"/>
<path d="M168.146 261.855C170.753 261.855 172.866 259.731 172.866 257.111C172.866 254.49 170.753 252.366 168.146 252.366C165.538 252.366 163.425 254.49 163.425 257.111C163.425 259.731 165.538 261.855 168.146 261.855Z" fill="#3F3D56"/>
<path d="M173.956 302C173.956 302 169.235 290.321 183.398 281.563L173.956 302Z" fill="#3F3D56"/>
<path d="M168.15 301.788C168.15 301.788 166.002 289.369 149.373 289.475L168.15 301.788Z" fill="#3F3D56"/>
<path d="M59.9301 166.981H59.2039V258.556H59.9301V166.981Z" fill="#3F3D56"/>
<path d="M82.0816 152.891H81.3554V272.647H82.0816V152.891Z" fill="#3F3D56"/>
<path d="M104.233 148.902H103.507V276.636H104.233V148.902Z" fill="#3F3D56"/>
<path d="M126.385 152.891H125.658V272.647H126.385V152.891Z" fill="#3F3D56"/>
<path d="M148.536 166.981H147.81V258.556H148.536V166.981Z" fill="#3F3D56"/>
<path d="M159.83 182.112H47.9102V182.842H159.83V182.112Z" fill="#3F3D56"/>
<path d="M167.419 212.404H40.3206V213.134H167.419V212.404Z" fill="#3F3D56"/>
<path d="M159.83 242.695H47.9102V243.425H159.83V242.695Z" fill="#3F3D56"/>
<path d="M277.451 182.842C312.548 182.842 341 154.248 341 118.975C341 83.7024 312.548 55.1082 277.451 55.1082C242.353 55.1082 213.901 83.7024 213.901 118.975C213.901 154.248 242.353 182.842 277.451 182.842Z" fill="#2A8BF2"/>
<path d="M169.961 106.399H169.235V197.973H169.961V106.399Z" fill="#3F3D56"/>
<path d="M192.113 92.308H191.387V212.064H192.113V92.308Z" fill="#3F3D56"/>
<path d="M214.264 88.3191H213.538V216.053H214.264V88.3191Z" fill="#3F3D56"/>
<path d="M236.416 92.308H235.69V212.064H236.416V92.308Z" fill="#3F3D56"/>
<path d="M258.567 106.399H257.841V197.973H258.567V106.399Z" fill="#3F3D56"/>
<path d="M269.861 121.53H157.941V122.26H269.861V121.53Z" fill="#3F3D56"/>
<path d="M277.451 151.821H150.352V152.551H277.451V151.821Z" fill="#3F3D56"/>
<path d="M269.861 182.112H157.941V182.842H269.861V182.112Z" fill="#3F3D56"/>
<path d="M263.022 12.072H263.021C245.54 12.072 231.369 27.8778 231.369 47.3752V72.1468H238.949L243.338 62.9687L242.241 72.1468H290.967L294.957 63.8031L293.96 72.1468H299.446V52.6966C299.446 30.2603 283.138 12.072 263.022 12.072Z" fill="#2F2E41"/>
<path d="M247.743 56.5948C247.743 56.5948 257.622 79.7623 244.45 84.3958L257.622 128.083L280.016 126.759L285.944 112.197L284.626 90.3531L282.65 75.7907C282.65 75.7907 268.819 79.1003 270.136 54.609L247.743 56.5948Z" fill="#FFB8B8"/>
<path d="M242.474 83.7338C242.474 83.7338 220.739 81.748 222.715 97.6343C224.691 113.521 226.666 116.83 226.666 116.83L228.642 140.66L216.787 147.941H205.59C205.59 147.941 171.341 155.884 188.466 164.489C205.59 173.094 211.518 157.87 211.518 157.87C211.518 157.87 243.132 157.87 245.108 152.574C247.084 147.279 242.474 83.7338 242.474 83.7338Z" fill="#FFB8B8"/>
<path d="M284.626 77.1145C284.626 77.1145 305.044 69.8333 306.361 85.7196C307.679 101.606 307.679 102.93 307.679 102.93L311.63 125.435C311.63 125.435 319.534 145.293 319.534 151.25C319.534 157.208 325.462 175.742 325.462 175.742C325.462 175.742 333.365 201.557 324.803 200.895C316.241 200.233 314.924 173.094 314.924 173.094L297.14 137.35L291.871 115.506L284.626 77.1145Z" fill="#FFB8B8"/>
<path d="M245.767 81.0861H240.498L239.839 108.887C239.839 108.887 231.277 120.802 241.815 131.393L244.45 148.603L292.53 146.617L295.823 128.745C295.823 128.745 302.409 114.182 293.188 100.944L284.626 73.8049H280.016C280.016 73.8049 290.694 113.374 268.16 114.182C249.719 114.844 245.767 81.0861 245.767 81.0861Z" fill="white"/>
<path d="M322.251 245.461C307.401 262.252 289.318 275.843 269.095 285.413C269.088 252.289 269.476 225.385 269.476 225.385C269.476 225.385 266.68 253.815 263.128 288.088C242.839 296.696 221.035 301.117 199.013 301.088C198.62 301.088 198.228 301.088 197.836 301.08C215.957 235.644 242.389 160.646 243.119 158.576C243.125 158.562 243.13 158.547 243.134 158.533L244.728 153.19L245.407 150.916L246.119 148.533L247.085 145.292L289.895 143.971L291.094 146.675L295.165 155.883C295.52 155.987 295.857 156.145 296.163 156.354C303.869 161.438 313.583 200.24 322.251 245.461Z" fill="#2F2E41"/>
<path d="M294.506 138.674L242.474 140.66C242.474 140.66 240.099 158.532 242.474 158.532C243.132 158.532 297.14 163.165 296.482 155.222C295.823 147.279 294.506 138.674 294.506 138.674Z" fill="#3F3D56"/>
<path d="M257.922 64.176C268.143 64.176 276.428 55.8492 276.428 45.5774C276.428 35.3056 268.143 26.9787 257.922 26.9787C247.702 26.9787 239.416 35.3056 239.416 45.5774C239.416 55.8492 247.702 64.176 257.922 64.176Z" fill="#FFB8B8"/>
<path d="M272.02 21.7969C268.842 17.6842 264.154 15.0793 258.922 15.0793H258.3C246.318 15.0793 236.605 25.9756 236.605 39.4169V39.417H240.62L241.269 34.4571L242.219 39.417H266.031L268.025 35.2208L267.527 39.417H272.211C274.397 50.327 271.256 61.2369 262.789 72.1469H270.769L274.758 63.7546L273.761 72.1469H288.972L291.965 52.8446C291.965 38.3889 283.607 26.1308 272.02 21.7969Z" fill="#2F2E41"/>
<path d="M276.393 23.8294C282.941 23.8294 288.249 18.495 288.249 11.9147C288.249 5.33439 282.941 0 276.393 0C269.846 0 264.538 5.33439 264.538 11.9147C264.538 18.495 269.846 23.8294 276.393 23.8294Z" fill="#2F2E41"/>
<path d="M189.784 158.132C193.076 158.132 195.744 155.45 195.744 152.142C195.744 148.834 193.076 146.152 189.784 146.152C186.492 146.152 183.823 148.834 183.823 152.142C183.823 155.45 186.492 158.132 189.784 158.132Z" fill="#2A8BF2"/>
<path d="M189.784 152.142H59.8465V99.4283H167.929L189.784 152.142Z" fill="#EFEFEF"/>
<path d="M190.378 152.541H43.952V87.8471H163.824L163.925 88.0941L190.378 152.541ZM44.7467 151.743H189.19L163.292 88.6458H44.7467V151.743Z" fill="#3F3D56"/>
<path d="M146.074 107.814H81.304V113.805H146.074V107.814Z" fill="#3F3D56"/>
<path d="M146.074 120.194H81.304V126.185H146.074V120.194Z" fill="#3F3D56"/>
<path d="M146.074 132.574H81.304V138.564H146.074V132.574Z" fill="#3F3D56"/>
<path d="M4.35767 213.99C3.49581 213.99 2.6533 213.733 1.93668 213.252C1.22007 212.77 0.661534 212.086 0.331712 211.286C0.00189018 210.486 -0.0844091 209.605 0.0837327 208.756C0.251874 207.906 0.666905 207.126 1.27634 206.514C1.88577 205.901 2.66223 205.484 3.50754 205.315C4.35284 205.146 5.22903 205.233 6.02529 205.564C6.82155 205.896 7.50212 206.457 7.98095 207.177C8.45978 207.897 8.71535 208.744 8.71535 209.61C8.71403 210.771 8.25449 211.885 7.43756 212.706C6.62062 213.527 5.513 213.988 4.35767 213.99ZM4.35767 205.961C3.63945 205.961 2.93736 206.175 2.34018 206.576C1.743 206.977 1.27756 207.547 1.00271 208.214C0.727856 208.881 0.655941 209.614 0.796059 210.322C0.936177 211.03 1.28203 211.681 1.78989 212.191C2.29775 212.701 2.94481 213.049 3.64923 213.19C4.35365 213.331 5.0838 213.258 5.74735 212.982C6.4109 212.706 6.97805 212.238 7.37707 211.638C7.77609 211.038 7.98907 210.332 7.98907 209.61C7.988 208.643 7.60506 207.715 6.92427 207.031C6.24349 206.347 5.32045 205.962 4.35767 205.961Z" fill="#2F2E41"/>
<path d="M157.54 49.136H150.371V41.9314H157.54V49.136ZM150.923 48.5818H156.988V42.4856H150.923V48.5818Z" fill="#3F3D56"/>
<path d="M4.32422 11.5742H7.02246C7.50293 11.5742 7.90723 11.4219 8.23535 11.1172C8.56348 10.8066 8.72754 10.4492 8.72754 10.0449C8.72754 9.63477 8.56348 9.27734 8.23535 8.97266C7.90723 8.66211 7.50293 8.50684 7.02246 8.50684H4.32422V11.5742ZM7.11035 14H1.61719V1.39648H10.3535V3.83105H4.32422V6.08105H7.11035C8.34668 6.08105 9.375 6.46777 10.1953 7.24121C11.0156 8.01465 11.4258 8.94922 11.4258 10.0449C11.4258 11.1348 11.0156 12.0664 10.1953 12.8398C9.375 13.6133 8.34668 14 7.11035 14ZM27.804 1.39648V14H25.1058V1.39648H27.804ZM19.1644 14H14.0316V1.39648H16.7386V5.53613H19.1644C20.4593 5.53613 21.5316 5.94336 22.3812 6.75781C23.2366 7.56641 23.6644 8.57129 23.6644 9.77246C23.6644 10.9736 23.2366 11.9785 22.3812 12.7871C21.5316 13.5957 20.4593 14 19.1644 14ZM16.7386 11.5742H19.0765C19.6155 11.5742 20.0638 11.4014 20.4212 11.0557C20.7845 10.7041 20.9661 10.2764 20.9661 9.77246C20.9661 9.26855 20.7845 8.84375 20.4212 8.49805C20.0638 8.14648 19.6155 7.9707 19.0765 7.9707H16.7386V11.5742ZM37.3532 1.13281C38.0153 1.13281 38.6452 1.2207 39.2428 1.39648C39.8405 1.56641 40.3297 1.77441 40.7106 2.02051C41.0973 2.2666 41.4371 2.5127 41.7301 2.75879C42.0289 3.00488 42.2428 3.21289 42.3717 3.38281L42.5739 3.64648L40.86 5.36035C40.8248 5.31348 40.775 5.24902 40.7106 5.16699C40.652 5.0791 40.5143 4.93262 40.2975 4.72754C40.0866 4.52246 39.8551 4.34375 39.6032 4.19141C39.3512 4.0332 39.0202 3.88965 38.61 3.76074C38.1998 3.62598 37.7809 3.55859 37.3532 3.55859C36.1754 3.55859 35.1911 3.9541 34.4 4.74512C33.609 5.53613 33.2135 6.52051 33.2135 7.69824C33.2135 8.87598 33.609 9.86035 34.4 10.6514C35.1911 11.4424 36.1754 11.8379 37.3532 11.8379C37.8102 11.8379 38.2467 11.7764 38.6627 11.6533C39.0846 11.5244 39.4332 11.375 39.7086 11.2051C39.984 11.0293 40.2272 10.8535 40.4381 10.6777C40.6491 10.502 40.8014 10.3496 40.8952 10.2207L41.0358 10.0361L42.6618 11.75C42.6149 11.8203 42.5416 11.9141 42.442 12.0312C42.3483 12.1426 42.1344 12.3447 41.8004 12.6377C41.4723 12.9248 41.1178 13.1797 40.737 13.4023C40.362 13.6191 39.8668 13.8184 39.2516 14C38.6422 14.1816 38.0094 14.2725 37.3532 14.2725C35.4313 14.2725 33.8082 13.6309 32.484 12.3477C31.1657 11.0586 30.5065 9.50879 30.5065 7.69824C30.5065 5.8877 31.1657 4.34082 32.484 3.05762C33.8082 1.77441 35.4313 1.13281 37.3532 1.13281ZM43.7382 1.39648H53.6347V3.83105H50.04V14H47.3418V3.83105H43.7382V1.39648ZM55.7923 1.39648H61.1009C62.3958 1.39648 63.468 1.80371 64.3177 2.61816C65.1731 3.42676 65.6009 4.43164 65.6009 5.63281C65.6009 6.82812 65.1761 7.83301 64.3264 8.64746C63.4768 9.45605 62.4016 9.86035 61.1009 9.86035H58.4993V14H55.7923V1.39648ZM61.013 3.83105H58.4993V7.42578H61.013C61.552 7.42578 62.0003 7.25293 62.3577 6.90723C62.721 6.56152 62.9026 6.13672 62.9026 5.63281C62.9026 5.12891 62.721 4.7041 62.3577 4.3584C62.0003 4.00684 61.552 3.83105 61.013 3.83105ZM81.9791 1.39648V14H79.2809V1.39648H81.9791ZM73.3395 14H68.2066V1.39648H70.9137V5.53613H73.3395C74.6344 5.53613 75.7066 5.94336 76.5563 6.75781C77.4117 7.56641 77.8395 8.57129 77.8395 9.77246C77.8395 10.9736 77.4117 11.9785 76.5563 12.7871C75.7066 13.5957 74.6344 14 73.3395 14ZM70.9137 11.5742H73.2516C73.7906 11.5742 74.2389 11.4014 74.5963 11.0557C74.9596 10.7041 75.1412 10.2764 75.1412 9.77246C75.1412 9.26855 74.9596 8.84375 74.5963 8.49805C74.2389 8.14648 73.7906 7.9707 73.2516 7.9707H70.9137V11.5742ZM90.2099 -2.05762C90.415 -1.85254 90.6728 -1.75 90.9833 -1.75C91.2939 -1.75 91.5517 -1.85254 91.7568 -2.05762C91.9618 -2.2627 92.0644 -2.52051 92.0644 -2.83105H93.8661C93.8661 -2.0166 93.5995 -1.3457 93.0663 -0.818359C92.5331 -0.296875 91.8388 -0.0361328 90.9833 -0.0361328C90.1337 -0.0361328 89.4423 -0.296875 88.9091 -0.818359C88.3759 -1.3457 88.1093 -2.0166 88.1093 -2.83105H89.9023C89.9023 -2.52051 90.0048 -2.2627 90.2099 -2.05762ZM96.6523 14H93.954V5.99316L87.7489 14H85.4023V1.39648H88.1093V9.41211L94.3144 1.39648H96.6523V14ZM106.645 1.39648V6.88965L111.593 1.39648H114.74L110.064 6.61719L115.1 14H111.954L108.262 8.60352L106.645 10.3965V14H103.938V1.39648H106.645ZM123.384 8.69141L121.854 4.55176L120.316 8.69141H123.384ZM124.28 11.0293H119.42L118.339 14H115.456L120.413 1.39648H123.287L128.244 14H125.361L124.28 11.0293ZM132.933 11.5742H135.631C136.112 11.5742 136.516 11.4219 136.844 11.1172C137.172 10.8066 137.336 10.4492 137.336 10.0449C137.336 9.63477 137.172 9.27734 136.844 8.97266C136.516 8.66211 136.112 8.50684 135.631 8.50684H132.933V11.5742ZM135.719 14H130.226V1.39648H138.962V3.83105H132.933V6.08105H135.719C136.955 6.08105 137.984 6.46777 138.804 7.24121C139.624 8.01465 140.034 8.94922 140.034 10.0449C140.034 11.1348 139.624 12.0664 138.804 12.8398C137.984 13.6133 136.955 14 135.719 14ZM145.347 11.5742H152.097V14H142.64V1.39648H151.913V3.83105H145.347V6.35352H150.471V8.7793H145.347V11.5742ZM165.32 1.39648V14H162.622V3.83105H158.931V5.27246C158.931 7.04785 158.831 8.53906 158.632 9.74609C158.438 10.9473 158.148 11.8701 157.762 12.5146C157.381 13.1592 156.953 13.6133 156.478 13.877C156.004 14.1406 155.441 14.2725 154.791 14.2725C154.527 14.2725 154.261 14.2432 153.991 14.1846C153.722 14.1318 153.522 14.082 153.393 14.0352L153.174 13.9648V11.3896C153.473 11.5068 153.771 11.5684 154.07 11.5742C154.539 11.5742 154.917 11.4336 155.204 11.1523C155.497 10.8652 155.74 10.2471 155.933 9.29785C156.133 8.34277 156.232 7.00684 156.232 5.29004V1.39648H165.32ZM174.043 14H168.735V1.39648H171.442V5.53613H174.043C175.338 5.53613 176.41 5.94336 177.26 6.75781C178.115 7.56641 178.543 8.57129 178.543 9.77246C178.543 10.9736 178.115 11.9785 177.26 12.7871C176.41 13.5957 175.338 14 174.043 14ZM171.442 11.5742H173.955C174.494 11.5742 174.943 11.4014 175.3 11.0557C175.663 10.7041 175.845 10.2764 175.845 9.77246C175.845 9.26855 175.663 8.84375 175.3 8.49805C174.943 8.14648 174.494 7.9707 173.955 7.9707H171.442V11.5742ZM191.951 1.39648V14H189.252V8.86719H183.856V14H181.149V1.39648H183.856V6.44141H189.252V1.39648H191.951ZM209.146 1.39648V14H206.448V1.39648H209.146ZM200.507 14H195.374V1.39648H198.081V5.53613H200.507C201.802 5.53613 202.874 5.94336 203.723 6.75781C204.579 7.56641 205.007 8.57129 205.007 9.77246C205.007 10.9736 204.579 11.9785 203.723 12.7871C202.874 13.5957 201.802 14 200.507 14ZM198.081 11.5742H200.419C200.958 11.5742 201.406 11.4014 201.763 11.0557C202.127 10.7041 202.308 10.2764 202.308 9.77246C202.308 9.26855 202.127 8.84375 201.763 8.49805C201.406 8.14648 200.958 7.9707 200.419 7.9707H198.081V11.5742ZM217.377 -2.05762C217.582 -1.85254 217.84 -1.75 218.151 -1.75C218.461 -1.75 218.719 -1.85254 218.924 -2.05762C219.129 -2.2627 219.232 -2.52051 219.232 -2.83105H221.033C221.033 -2.0166 220.767 -1.3457 220.234 -0.818359C219.7 -0.296875 219.006 -0.0361328 218.151 -0.0361328C217.301 -0.0361328 216.609 -0.296875 216.076 -0.818359C215.543 -1.3457 215.276 -2.0166 215.276 -2.83105H217.069C217.069 -2.52051 217.172 -2.2627 217.377 -2.05762ZM223.819 14H221.121V5.99316L214.916 14H212.569V1.39648H215.276V9.41211L221.482 1.39648H223.819V14ZM12.8672 35H10.1689V26.9932L3.96387 35H1.61719V22.3965H4.32422V30.4121L10.5293 22.3965H12.8672V35ZM27.0833 22.3965V35H24.3851V29.8672H18.9886V35H16.2816V22.3965H18.9886V27.4414H24.3851V22.3965H27.0833ZM29.2496 22.3965H39.1461V24.8311H35.5514V35H32.8532V24.8311H29.2496V22.3965ZM44.0107 32.5742H50.7607V35H41.3037V22.3965H50.5761V24.8311H44.0107V27.3535H49.1347V29.7793H44.0107V32.5742ZM53.4544 22.3965H58.763C60.0579 22.3965 61.1302 22.8037 61.9798 23.6182C62.8352 24.4268 63.263 25.4316 63.263 26.6328C63.263 27.8281 62.8382 28.833 61.9886 29.6475C61.1389 30.4561 60.0638 30.8604 58.763 30.8604H56.1614V35H53.4544V22.3965ZM58.6751 24.8311H56.1614V28.4258H58.6751C59.2141 28.4258 59.6624 28.2529 60.0198 27.9072C60.3831 27.5615 60.5647 27.1367 60.5647 26.6328C60.5647 26.1289 60.3831 25.7041 60.0198 25.3584C59.6624 25.0068 59.2141 24.8311 58.6751 24.8311ZM76.6705 22.3965V35H73.9723V29.8672H68.5758V35H65.8688V22.3965H68.5758V27.4414H73.9723V22.3965H76.6705ZM82.8007 32.5742H89.5507V35H80.0937V22.3965H89.3661V24.8311H82.8007V27.3535H87.9247V29.7793H82.8007V32.5742ZM90.9875 22.3965H100.884V24.8311H97.2893V35H94.5911V24.8311H90.9875V22.3965Z" fill="#0D1C2E"/>
</g>
<defs>
<clipPath id="clip0">
<rect width="341" height="302" fill="white"/>
</clipPath>
</defs>
</svg>
