<svg width="341" height="302" viewBox="0 0 341 302" fill="none" xmlns="http://www.w3.org/2000/svg">
<g clip-path="url(#clip0)">
<path d="M171.104 301.825C171.021 301.689 169.056 298.391 168.374 291.544C167.75 285.262 168.151 274.673 173.615 259.903C183.967 231.922 171.23 209.345 171.1 209.12L171.728 208.753C171.761 208.81 175.048 214.567 176.989 223.733C179.555 235.885 178.621 248.52 174.296 260.157C163.962 288.091 171.645 301.315 171.724 301.445L171.104 301.825Z" fill="#3F3D56"/>
<path d="M167.056 207.477C169.664 207.477 171.777 205.353 171.777 202.732C171.777 200.112 169.664 197.988 167.056 197.988C164.449 197.988 162.335 200.112 162.335 202.732C162.335 205.353 164.449 207.477 167.056 207.477Z" fill="#2A8BF2"/>
<path d="M181.945 224.995C184.552 224.995 186.666 222.87 186.666 220.25C186.666 217.63 184.552 215.506 181.945 215.506C179.338 215.506 177.224 217.63 177.224 220.25C177.224 222.87 179.338 224.995 181.945 224.995Z" fill="#3F3D56"/>
<path d="M171.777 236.673C174.384 236.673 176.498 234.549 176.498 231.929C176.498 229.308 174.384 227.184 171.777 227.184C169.17 227.184 167.056 229.308 167.056 231.929C167.056 234.549 169.17 236.673 171.777 236.673Z" fill="#2A8BF2"/>
<path d="M184.124 246.527C186.731 246.527 188.845 244.403 188.845 241.782C188.845 239.162 186.731 237.038 184.124 237.038C181.517 237.038 179.403 239.162 179.403 241.782C179.403 244.403 181.517 246.527 184.124 246.527Z" fill="#2A8BF2"/>
<path d="M168.146 261.855C170.753 261.855 172.866 259.731 172.866 257.111C172.866 254.49 170.753 252.366 168.146 252.366C165.538 252.366 163.425 254.49 163.425 257.111C163.425 259.731 165.538 261.855 168.146 261.855Z" fill="#3F3D56"/>
<path d="M173.956 302C173.956 302 169.235 290.321 183.398 281.563L173.956 302Z" fill="#3F3D56"/>
<path d="M168.15 301.788C168.15 301.788 166.002 289.369 149.373 289.475L168.15 301.788Z" fill="#3F3D56"/>
<path d="M59.9301 166.981H59.2039V258.556H59.9301V166.981Z" fill="#3F3D56"/>
<path d="M82.0816 152.891H81.3554V272.647H82.0816V152.891Z" fill="#3F3D56"/>
<path d="M104.233 148.902H103.507V276.636H104.233V148.902Z" fill="#3F3D56"/>
<path d="M126.385 152.891H125.658V272.647H126.385V152.891Z" fill="#3F3D56"/>
<path d="M148.536 166.981H147.81V258.556H148.536V166.981Z" fill="#3F3D56"/>
<path d="M159.83 182.112H47.9102V182.842H159.83V182.112Z" fill="#3F3D56"/>
<path d="M167.419 212.404H40.3206V213.134H167.419V212.404Z" fill="#3F3D56"/>
<path d="M159.83 242.695H47.9102V243.425H159.83V242.695Z" fill="#3F3D56"/>
<path d="M277.451 182.842C312.548 182.842 341 154.248 341 118.975C341 83.7024 312.548 55.1082 277.451 55.1082C242.353 55.1082 213.901 83.7024 213.901 118.975C213.901 154.248 242.353 182.842 277.451 182.842Z" fill="#2A8BF2"/>
<path d="M169.961 106.399H169.235V197.973H169.961V106.399Z" fill="#3F3D56"/>
<path d="M192.113 92.308H191.387V212.064H192.113V92.308Z" fill="#3F3D56"/>
<path d="M214.264 88.3191H213.538V216.053H214.264V88.3191Z" fill="#3F3D56"/>
<path d="M236.416 92.308H235.69V212.064H236.416V92.308Z" fill="#3F3D56"/>
<path d="M258.567 106.399H257.841V197.973H258.567V106.399Z" fill="#3F3D56"/>
<path d="M269.861 121.53H157.941V122.26H269.861V121.53Z" fill="#3F3D56"/>
<path d="M277.451 151.821H150.352V152.551H277.451V151.821Z" fill="#3F3D56"/>
<path d="M269.861 182.112H157.941V182.842H269.861V182.112Z" fill="#3F3D56"/>
<path d="M263.022 12.072H263.021C245.54 12.072 231.369 27.8778 231.369 47.3752V72.1468H238.949L243.338 62.9687L242.241 72.1468H290.967L294.957 63.8031L293.96 72.1468H299.446V52.6966C299.446 30.2603 283.138 12.072 263.022 12.072Z" fill="#2F2E41"/>
<path d="M247.743 56.5948C247.743 56.5948 257.622 79.7623 244.45 84.3958L257.622 128.083L280.016 126.759L285.944 112.197L284.626 90.3531L282.65 75.7907C282.65 75.7907 268.819 79.1003 270.136 54.609L247.743 56.5948Z" fill="#FFB8B8"/>
<path d="M242.474 83.7338C242.474 83.7338 220.739 81.748 222.715 97.6343C224.691 113.521 226.666 116.83 226.666 116.83L228.642 140.66L216.787 147.941H205.59C205.59 147.941 171.341 155.884 188.466 164.489C205.59 173.094 211.518 157.87 211.518 157.87C211.518 157.87 243.132 157.87 245.108 152.574C247.084 147.279 242.474 83.7338 242.474 83.7338Z" fill="#FFB8B8"/>
<path d="M284.626 77.1145C284.626 77.1145 305.044 69.8333 306.361 85.7196C307.679 101.606 307.679 102.93 307.679 102.93L311.63 125.435C311.63 125.435 319.534 145.293 319.534 151.25C319.534 157.208 325.462 175.742 325.462 175.742C325.462 175.742 333.365 201.557 324.803 200.895C316.241 200.233 314.924 173.094 314.924 173.094L297.14 137.35L291.871 115.506L284.626 77.1145Z" fill="#FFB8B8"/>
<path d="M245.767 81.0861H240.498L239.839 108.887C239.839 108.887 231.277 120.802 241.815 131.393L244.45 148.603L292.53 146.617L295.823 128.745C295.823 128.745 302.409 114.182 293.188 100.944L284.626 73.8049H280.016C280.016 73.8049 290.694 113.374 268.16 114.182C249.719 114.844 245.767 81.0861 245.767 81.0861Z" fill="white"/>
<path d="M322.251 245.461C307.401 262.252 289.318 275.843 269.095 285.413C269.088 252.289 269.476 225.385 269.476 225.385C269.476 225.385 266.68 253.815 263.128 288.088C242.839 296.696 221.035 301.117 199.013 301.088C198.62 301.088 198.228 301.088 197.836 301.08C215.957 235.644 242.389 160.646 243.119 158.576C243.125 158.562 243.13 158.547 243.134 158.533L244.728 153.19L245.407 150.916L246.119 148.533L247.085 145.292L289.895 143.971L291.094 146.675L295.165 155.883C295.52 155.987 295.857 156.145 296.163 156.354C303.869 161.438 313.583 200.24 322.251 245.461Z" fill="#2F2E41"/>
<path d="M294.506 138.674L242.474 140.66C242.474 140.66 240.099 158.532 242.474 158.532C243.132 158.532 297.14 163.165 296.482 155.222C295.823 147.279 294.506 138.674 294.506 138.674Z" fill="#3F3D56"/>
<path d="M257.922 64.176C268.143 64.176 276.428 55.8492 276.428 45.5774C276.428 35.3056 268.143 26.9787 257.922 26.9787C247.702 26.9787 239.416 35.3056 239.416 45.5774C239.416 55.8492 247.702 64.176 257.922 64.176Z" fill="#FFB8B8"/>
<path d="M272.02 21.7969C268.842 17.6842 264.154 15.0793 258.922 15.0793H258.3C246.318 15.0793 236.605 25.9756 236.605 39.4169V39.417H240.62L241.269 34.4571L242.219 39.417H266.031L268.025 35.2208L267.527 39.417H272.211C274.397 50.327 271.256 61.2369 262.789 72.1469H270.769L274.758 63.7546L273.761 72.1469H288.972L291.965 52.8446C291.965 38.3889 283.607 26.1308 272.02 21.7969Z" fill="#2F2E41"/>
<path d="M276.393 23.8294C282.941 23.8294 288.249 18.495 288.249 11.9147C288.249 5.33439 282.941 0 276.393 0C269.846 0 264.538 5.33439 264.538 11.9147C264.538 18.495 269.846 23.8294 276.393 23.8294Z" fill="#2F2E41"/>
<path d="M189.784 158.132C193.076 158.132 195.744 155.45 195.744 152.142C195.744 148.834 193.076 146.152 189.784 146.152C186.492 146.152 183.823 148.834 183.823 152.142C183.823 155.45 186.492 158.132 189.784 158.132Z" fill="#2A8BF2"/>
<path d="M189.784 152.142H59.8465V99.4283H167.929L189.784 152.142Z" fill="#EFEFEF"/>
<path d="M190.378 152.541H43.952V87.8471H163.824L163.925 88.0941L190.378 152.541ZM44.7467 151.743H189.19L163.292 88.6458H44.7467V151.743Z" fill="#3F3D56"/>
<path d="M146.074 107.814H81.304V113.805H146.074V107.814Z" fill="#3F3D56"/>
<path d="M146.074 120.194H81.304V126.185H146.074V120.194Z" fill="#3F3D56"/>
<path d="M146.074 132.574H81.304V138.564H146.074V132.574Z" fill="#3F3D56"/>
<path d="M4.35767 213.99C3.49581 213.99 2.6533 213.733 1.93668 213.252C1.22007 212.77 0.661534 212.086 0.331712 211.286C0.00189018 210.486 -0.0844091 209.605 0.0837327 208.756C0.251874 207.906 0.666905 207.126 1.27634 206.514C1.88577 205.901 2.66223 205.484 3.50754 205.315C4.35284 205.146 5.22903 205.233 6.02529 205.564C6.82155 205.896 7.50212 206.457 7.98095 207.177C8.45978 207.897 8.71535 208.744 8.71535 209.61C8.71403 210.771 8.25449 211.885 7.43756 212.706C6.62062 213.527 5.513 213.988 4.35767 213.99ZM4.35767 205.961C3.63945 205.961 2.93736 206.175 2.34018 206.576C1.743 206.977 1.27756 207.547 1.00271 208.214C0.727856 208.881 0.655941 209.614 0.796059 210.322C0.936177 211.03 1.28203 211.681 1.78989 212.191C2.29775 212.701 2.94481 213.049 3.64923 213.19C4.35365 213.331 5.0838 213.258 5.74735 212.982C6.4109 212.706 6.97805 212.238 7.37707 211.638C7.77609 211.038 7.98907 210.332 7.98907 209.61C7.988 208.643 7.60506 207.715 6.92427 207.031C6.24349 206.347 5.32045 205.962 4.35767 205.961Z" fill="#2F2E41"/>
<path d="M157.54 49.136H150.371V41.9314H157.54V49.136ZM150.923 48.5818H156.988V42.4856H150.923V48.5818Z" fill="#3F3D56"/>
<path d="M4.32422 15.5742H7.02246C7.50293 15.5742 7.90723 15.4219 8.23535 15.1172C8.56348 14.8066 8.72754 14.4492 8.72754 14.0449C8.72754 13.6348 8.56348 13.2773 8.23535 12.9727C7.90723 12.6621 7.50293 12.5068 7.02246 12.5068H4.32422V15.5742ZM7.11035 18H1.61719V5.39648H10.3535V7.83105H4.32422V10.0811H7.11035C8.34668 10.0811 9.375 10.4678 10.1953 11.2412C11.0156 12.0146 11.4258 12.9492 11.4258 14.0449C11.4258 15.1348 11.0156 16.0664 10.1953 16.8398C9.375 17.6133 8.34668 18 7.11035 18ZM27.804 5.39648V18H25.1058V5.39648H27.804ZM19.1644 18H14.0316V5.39648H16.7386V9.53613H19.1644C20.4593 9.53613 21.5316 9.94336 22.3812 10.7578C23.2366 11.5664 23.6644 12.5713 23.6644 13.7725C23.6644 14.9736 23.2366 15.9785 22.3812 16.7871C21.5316 17.5957 20.4593 18 19.1644 18ZM16.7386 15.5742H19.0765C19.6155 15.5742 20.0638 15.4014 20.4212 15.0557C20.7845 14.7041 20.9661 14.2764 20.9661 13.7725C20.9661 13.2686 20.7845 12.8438 20.4212 12.498C20.0638 12.1465 19.6155 11.9707 19.0765 11.9707H16.7386V15.5742ZM37.3532 5.13281C38.0153 5.13281 38.6452 5.2207 39.2428 5.39648C39.8405 5.56641 40.3297 5.77441 40.7106 6.02051C41.0973 6.2666 41.4371 6.5127 41.7301 6.75879C42.0289 7.00488 42.2428 7.21289 42.3717 7.38281L42.5739 7.64648L40.86 9.36035C40.8248 9.31348 40.775 9.24902 40.7106 9.16699C40.652 9.0791 40.5143 8.93262 40.2975 8.72754C40.0866 8.52246 39.8551 8.34375 39.6032 8.19141C39.3512 8.0332 39.0202 7.88965 38.61 7.76074C38.1998 7.62598 37.7809 7.55859 37.3532 7.55859C36.1754 7.55859 35.1911 7.9541 34.4 8.74512C33.609 9.53613 33.2135 10.5205 33.2135 11.6982C33.2135 12.876 33.609 13.8604 34.4 14.6514C35.1911 15.4424 36.1754 15.8379 37.3532 15.8379C37.8102 15.8379 38.2467 15.7764 38.6627 15.6533C39.0846 15.5244 39.4332 15.375 39.7086 15.2051C39.984 15.0293 40.2272 14.8535 40.4381 14.6777C40.6491 14.502 40.8014 14.3496 40.8952 14.2207L41.0358 14.0361L42.6618 15.75C42.6149 15.8203 42.5416 15.9141 42.442 16.0312C42.3483 16.1426 42.1344 16.3447 41.8004 16.6377C41.4723 16.9248 41.1178 17.1797 40.737 17.4023C40.362 17.6191 39.8668 17.8184 39.2516 18C38.6422 18.1816 38.0094 18.2725 37.3532 18.2725C35.4313 18.2725 33.8082 17.6309 32.484 16.3477C31.1657 15.0586 30.5065 13.5088 30.5065 11.6982C30.5065 9.8877 31.1657 8.34082 32.484 7.05762C33.8082 5.77441 35.4313 5.13281 37.3532 5.13281ZM43.7382 5.39648H53.6347V7.83105H50.04V18H47.3418V7.83105H43.7382V5.39648ZM55.7923 5.39648H61.1009C62.3958 5.39648 63.468 5.80371 64.3177 6.61816C65.1731 7.42676 65.6009 8.43164 65.6009 9.63281C65.6009 10.8281 65.1761 11.833 64.3264 12.6475C63.4768 13.4561 62.4016 13.8604 61.1009 13.8604H58.4993V18H55.7923V5.39648ZM61.013 7.83105H58.4993V11.4258H61.013C61.552 11.4258 62.0003 11.2529 62.3577 10.9072C62.721 10.5615 62.9026 10.1367 62.9026 9.63281C62.9026 9.12891 62.721 8.7041 62.3577 8.3584C62.0003 8.00684 61.552 7.83105 61.013 7.83105ZM81.9791 5.39648V18H79.2809V5.39648H81.9791ZM73.3395 18H68.2066V5.39648H70.9137V9.53613H73.3395C74.6344 9.53613 75.7066 9.94336 76.5563 10.7578C77.4117 11.5664 77.8395 12.5713 77.8395 13.7725C77.8395 14.9736 77.4117 15.9785 76.5563 16.7871C75.7066 17.5957 74.6344 18 73.3395 18ZM70.9137 15.5742H73.2516C73.7906 15.5742 74.2389 15.4014 74.5963 15.0557C74.9596 14.7041 75.1412 14.2764 75.1412 13.7725C75.1412 13.2686 74.9596 12.8438 74.5963 12.498C74.2389 12.1465 73.7906 11.9707 73.2516 11.9707H70.9137V15.5742ZM90.2099 1.94238C90.415 2.14746 90.6728 2.25 90.9833 2.25C91.2939 2.25 91.5517 2.14746 91.7568 1.94238C91.9618 1.7373 92.0644 1.47949 92.0644 1.16895H93.8661C93.8661 1.9834 93.5995 2.6543 93.0663 3.18164C92.5331 3.70312 91.8388 3.96387 90.9833 3.96387C90.1337 3.96387 89.4423 3.70312 88.9091 3.18164C88.3759 2.6543 88.1093 1.9834 88.1093 1.16895H89.9023C89.9023 1.47949 90.0048 1.7373 90.2099 1.94238ZM96.6523 18H93.954V9.99316L87.7489 18H85.4023V5.39648H88.1093V13.4121L94.3144 5.39648H96.6523V18ZM106.645 5.39648V10.8896L111.593 5.39648H114.74L110.064 10.6172L115.1 18H111.954L108.262 12.6035L106.645 14.3965V18H103.938V5.39648H106.645ZM123.384 12.6914L121.854 8.55176L120.316 12.6914H123.384ZM124.28 15.0293H119.42L118.339 18H115.456L120.413 5.39648H123.287L128.244 18H125.361L124.28 15.0293ZM132.933 15.5742H135.631C136.112 15.5742 136.516 15.4219 136.844 15.1172C137.172 14.8066 137.336 14.4492 137.336 14.0449C137.336 13.6348 137.172 13.2773 136.844 12.9727C136.516 12.6621 136.112 12.5068 135.631 12.5068H132.933V15.5742ZM135.719 18H130.226V5.39648H138.962V7.83105H132.933V10.0811H135.719C136.955 10.0811 137.984 10.4678 138.804 11.2412C139.624 12.0146 140.034 12.9492 140.034 14.0449C140.034 15.1348 139.624 16.0664 138.804 16.8398C137.984 17.6133 136.955 18 135.719 18ZM145.347 15.5742H152.097V18H142.64V5.39648H151.913V7.83105H145.347V10.3535H150.471V12.7793H145.347V15.5742ZM165.32 5.39648V18H162.622V7.83105H158.931V9.27246C158.931 11.0479 158.831 12.5391 158.632 13.7461C158.438 14.9473 158.148 15.8701 157.762 16.5146C157.381 17.1592 156.953 17.6133 156.478 17.877C156.004 18.1406 155.441 18.2725 154.791 18.2725C154.527 18.2725 154.261 18.2432 153.991 18.1846C153.722 18.1318 153.522 18.082 153.393 18.0352L153.174 17.9648V15.3896C153.473 15.5068 153.771 15.5684 154.07 15.5742C154.539 15.5742 154.917 15.4336 155.204 15.1523C155.497 14.8652 155.74 14.2471 155.933 13.2979C156.133 12.3428 156.232 11.0068 156.232 9.29004V5.39648H165.32ZM174.043 18H168.735V5.39648H171.442V9.53613H174.043C175.338 9.53613 176.41 9.94336 177.26 10.7578C178.115 11.5664 178.543 12.5713 178.543 13.7725C178.543 14.9736 178.115 15.9785 177.26 16.7871C176.41 17.5957 175.338 18 174.043 18ZM171.442 15.5742H173.955C174.494 15.5742 174.943 15.4014 175.3 15.0557C175.663 14.7041 175.845 14.2764 175.845 13.7725C175.845 13.2686 175.663 12.8438 175.3 12.498C174.943 12.1465 174.494 11.9707 173.955 11.9707H171.442V15.5742ZM191.951 5.39648V18H189.252V12.8672H183.856V18H181.149V5.39648H183.856V10.4414H189.252V5.39648H191.951ZM209.146 5.39648V18H206.448V5.39648H209.146ZM200.507 18H195.374V5.39648H198.081V9.53613H200.507C201.802 9.53613 202.874 9.94336 203.723 10.7578C204.579 11.5664 205.007 12.5713 205.007 13.7725C205.007 14.9736 204.579 15.9785 203.723 16.7871C202.874 17.5957 201.802 18 200.507 18ZM198.081 15.5742H200.419C200.958 15.5742 201.406 15.4014 201.763 15.0557C202.127 14.7041 202.308 14.2764 202.308 13.7725C202.308 13.2686 202.127 12.8438 201.763 12.498C201.406 12.1465 200.958 11.9707 200.419 11.9707H198.081V15.5742ZM217.377 1.94238C217.582 2.14746 217.84 2.25 218.151 2.25C218.461 2.25 218.719 2.14746 218.924 1.94238C219.129 1.7373 219.232 1.47949 219.232 1.16895H221.033C221.033 1.9834 220.767 2.6543 220.234 3.18164C219.7 3.70312 219.006 3.96387 218.151 3.96387C217.301 3.96387 216.609 3.70312 216.076 3.18164C215.543 2.6543 215.276 1.9834 215.276 1.16895H217.069C217.069 1.47949 217.172 1.7373 217.377 1.94238ZM223.819 18H221.121V9.99316L214.916 18H212.569V5.39648H215.276V13.4121L221.482 5.39648H223.819V18ZM12.8672 39H10.1689V30.9932L3.96387 39H1.61719V26.3965H4.32422V34.4121L10.5293 26.3965H12.8672V39ZM27.0833 26.3965V39H24.3851V33.8672H18.9886V39H16.2816V26.3965H18.9886V31.4414H24.3851V26.3965H27.0833ZM29.2496 26.3965H39.1461V28.8311H35.5514V39H32.8532V28.8311H29.2496V26.3965ZM44.0107 36.5742H50.7607V39H41.3037V26.3965H50.5761V28.8311H44.0107V31.3535H49.1347V33.7793H44.0107V36.5742ZM53.4544 26.3965H58.763C60.0579 26.3965 61.1302 26.8037 61.9798 27.6182C62.8352 28.4268 63.263 29.4316 63.263 30.6328C63.263 31.8281 62.8382 32.833 61.9886 33.6475C61.1389 34.4561 60.0638 34.8604 58.763 34.8604H56.1614V39H53.4544V26.3965ZM58.6751 28.8311H56.1614V32.4258H58.6751C59.2141 32.4258 59.6624 32.2529 60.0198 31.9072C60.3831 31.5615 60.5647 31.1367 60.5647 30.6328C60.5647 30.1289 60.3831 29.7041 60.0198 29.3584C59.6624 29.0068 59.2141 28.8311 58.6751 28.8311ZM76.6705 26.3965V39H73.9723V33.8672H68.5758V39H65.8688V26.3965H68.5758V31.4414H73.9723V26.3965H76.6705ZM82.8007 36.5742H89.5507V39H80.0937V26.3965H89.3661V28.8311H82.8007V31.3535H87.9247V33.7793H82.8007V36.5742ZM90.9875 26.3965H100.884V28.8311H97.2893V39H94.5911V28.8311H90.9875V26.3965Z" fill="#0D1C2E"/>
</g>
<defs>
<clipPath id="clip0">
<rect width="341" height="302" fill="white"/>
</clipPath>
</defs>
</svg>
